<?xml version="1.0" encoding="UTF-8" standalone="no"?>
<svg
   width="646"
   height="250"
   version="1.1"
   id="svg78"
   sodipodi:docname="get-it-on.svg"
   xml:space="preserve"
   inkscape:version="1.3.2 (091e20ef0f, 2023-11-25)"
   xmlns:inkscape="http://www.inkscape.org/namespaces/inkscape"
   xmlns:sodipodi="http://sodipodi.sourceforge.net/DTD/sodipodi-0.dtd"
   xmlns:xlink="http://www.w3.org/1999/xlink"
   xmlns="http://www.w3.org/2000/svg"
   xmlns:svg="http://www.w3.org/2000/svg"><sodipodi:namedview
     id="namedview80"
     pagecolor="#ffffff"
     bordercolor="#000000"
     borderopacity="0.25"
     inkscape:showpageshadow="2"
     inkscape:pageopacity="0.0"
     inkscape:pagecheckerboard="0"
     inkscape:deskcolor="#d1d1d1"
     inkscape:zoom="2.3916409"
     inkscape:cx="278.67896"
     inkscape:cy="139.65307"
     inkscape:window-width="2192"
     inkscape:window-height="1233"
     inkscape:window-x="0"
     inkscape:window-y="0"
     inkscape:window-maximized="0"
     inkscape:current-layer="svg78" /><defs
     id="defs8"><radialGradient
       xlink:href="#a"
       id="b"
       cx="113"
       cy="-12.89"
       r="59.662"
       fx="113"
       fy="-12.89"
       gradientTransform="matrix(0 1.96105 -1.97781 0 254.507 78.763)"
       gradientUnits="userSpaceOnUse" /><linearGradient
       id="a"><stop
         offset="0"
         style="stop-color:#fff;stop-opacity:.09803922"
         id="stop3" /><stop
         offset="1"
         style="stop-color:#fff;stop-opacity:0"
         id="stop5" /></linearGradient><radialGradient
       id="a-3"
       cx="0"
       cy="0"
       r="192"
       gradientUnits="userSpaceOnUse"><stop
         stop-color="#fff"
         offset="0"
         id="stop1" /><stop
         stop-color="#fff"
         stop-opacity="0"
         offset="1"
         id="stop2" /></radialGradient><clipPath
       clipPathUnits="userSpaceOnUse"
       id="clipPath9"><path
         id="path9"
         style="stroke-width:1.65042"
         d="M 192.00002,96.75578 A 95.244231,95.244231 0 0 1 96.755781,192 95.244231,95.244231 0 0 1 1.5115616,96.75578 95.244231,95.244231 0 0 1 96.755781,1.5115436 95.244231,95.244231 0 0 1 192.00002,96.75578 Z" /></clipPath><clipPath
       clipPathUnits="userSpaceOnUse"
       id="clipPath10"><path
         id="path10"
         style="stroke-width:1.65042"
         d="M 192.00002,96.75578 A 95.244231,95.244231 0 0 1 96.755781,192 95.244231,95.244231 0 0 1 1.5115616,96.75578 95.244231,95.244231 0 0 1 96.755781,1.5115436 95.244231,95.244231 0 0 1 192.00002,96.75578 Z" /></clipPath></defs><g
     transform="translate(-289,-312.362)"
     id="g76"><path
       id="rect10"
       style="display:inline;overflow:visible;stroke:#a6a6a6;stroke-width:4;marker:none"
       d="m 352,355.362 h 520 c 11.08,0 20,8.92 20,20 v 124 c 0,11.08 -8.92,20 -20,20 H 352 c -11.08,0 -20,-8.92 -20,-20 v -124 c 0,-11.08 8.92,-20 20,-20 z" /><g
       aria-label="GET IT ON"
       id="text14"
       style="font-size:12.3952px;line-height:100%;font-family:'DejaVu Sans';-inkscape-font-specification:'DejaVu Sans';letter-spacing:0;word-spacing:0;display:inline;overflow:visible;fill:#ffffff;stroke-width:1px;marker:none"><path
         d="m 529.2627,398.81787 v -6.6817 h -5.49866 v -2.76599 h 8.83117 v 10.68072 q -1.94952,1.383 -4.29895,2.09949 -2.34942,0.69983 -5.01544,0.69983 -5.83191,0 -9.1311,-3.39917 -3.28253,-3.41583 -3.28253,-9.49768 0,-6.09851 3.28253,-9.49768 3.29919,-3.41583 9.1311,-3.41583 2.43274,0 4.61554,0.59985 2.19947,0.59985 4.04901,1.76623 v 3.58246 q -1.86621,-1.58294 -3.96569,-2.38275 -2.09949,-0.7998 -4.41559,-0.7998 -4.56555,0 -6.86499,2.54937 -2.28278,2.54938 -2.28278,7.59815 0,5.0321 2.28278,7.58148 2.29944,2.54938 6.86499,2.54938 1.78289,0 3.18255,-0.29993 1.39966,-0.31659 2.51606,-0.96643 z"
         style="font-size:34.125px"
         id="path83" /><path
         d="m 538.74371,377.48975 h 15.7295 v 2.83264 h -12.36365 v 7.36487 h 11.84711 v 2.83264 h -11.84711 v 9.01446 h 12.66357 v 2.83264 h -16.02942 z"
         style="font-size:34.125px"
         id="path85" /><path
         d="m 556.85596,377.48975 h 21.04486 v 2.83264 h -8.83118 V 402.367 h -3.38251 v -22.04461 h -8.83117 z"
         style="font-size:34.125px"
         id="path87" /><path
         d="m 591.99738,377.48975 h 3.36584 V 402.367 h -3.36584 z"
         style="font-size:34.125px"
         id="path89" /><path
         d="m 598.61243,377.48975 h 21.04486 v 2.83264 h -8.83118 V 402.367 h -3.38251 v -22.04461 h -8.83117 z"
         style="font-size:34.125px"
         id="path91" /><path
         d="m 643.85138,379.77252 q -3.66577,0 -5.83191,2.73267 -2.14947,2.73266 -2.14947,7.44818 0,4.69885 2.14947,7.43152 2.16614,2.73266 5.83191,2.73266 3.66577,0 5.79858,-2.73266 2.14948,-2.73267 2.14948,-7.43152 0,-4.71552 -2.14948,-7.44818 -2.13281,-2.73267 -5.79858,-2.73267 z m 0,-2.73266 q 5.23206,0 8.36462,3.5158 3.13257,3.49915 3.13257,9.39771 0,5.8819 -3.13257,9.3977 -3.13256,3.49915 -8.36462,3.49915 -5.24872,0 -8.39795,-3.49915 -3.13257,-3.49914 -3.13257,-9.3977 0,-5.89856 3.13257,-9.39771 3.14923,-3.5158 8.39795,-3.5158 z"
         style="font-size:34.125px"
         id="path93" /><path
         d="m 660.61395,377.48975 h 4.53223 l 11.03064,20.81158 v -20.81158 h 3.26587 V 402.367 h -4.53223 L 663.87982,381.55542 V 402.367 h -3.26587 z"
         style="font-size:34.125px"
         id="path95" /></g><g
       aria-label="F-Droid"
       id="text18"
       style="font-weight:700;font-size:29.7088px;line-height:100%;font-family:Rokkitt;-inkscape-font-specification:'Rokkitt Bold';letter-spacing:0;word-spacing:0;display:inline;overflow:visible;fill:#ffffff;stroke-width:1px;marker:none" /><g
       id="g1"
       transform="matrix(0.6123601,0,0,0.6123601,361.21343,375.78886)"
       style="display:inline"><rect
         width="192"
         height="192"
         fill="#5a008a"
         stroke-width="0.94951"
         id="rect2"
         x="0"
         y="0"
         clip-path="url(#clipPath10)" /><g
         id="g6"
         clip-path="url(#clipPath9)"><rect
           x="-192"
           y="-192"
           width="384"
           height="384"
           fill="url(#a)"
           opacity="0.3"
           stroke-width="8.9233"
           id="rect3"
           style="fill:url(#a-3)" /><g
           transform="rotate(-15,65.962,135.14)"
           id="g5"><path
             d="M 121.84,34.264 A 62,62 0 0 1 138.004,76 a 62,62 0 0 1 -62,62 62,62 0 0 1 -41.748,-16.373 72,72 0 0 0 69.748,54.373 72,72 0 0 0 72,-72 72,72 0 0 0 -54.164,-69.736 z"
             fill="#f2f2f1"
             stroke-width="5.5342"
             id="path3" /><path
             d="M 121.84,34.264 A 62,62 0 0 1 138.004,76 a 62,62 0 0 1 -62,62 62,62 0 0 1 -41.748,-16.373 72,72 0 0 0 0.04102,0.125 62,62 0 0 0 45.707,20.248 62,62 0 0 0 62,-62 62,62 0 0 0 -20.143,-45.729 72,72 0 0 0 -0.0215,-0.0078 z"
             fill="#ffffff"
             opacity="0.8"
             stroke-width="7.6164"
             id="path4" /><path
             d="m 152.86,51.139 a 72,72 0 0 1 19.139,48.861 72,72 0 0 1 -72,72 72,72 0 0 1 -47.15,-17.586 72,72 0 0 0 51.15,21.586 72,72 0 0 0 72,-72 72,72 0 0 0 -23.139,-52.861 z"
             opacity="0.3"
             stroke-width="3.0149"
             id="path5" /></g></g></g></g><path
     style="font-weight:bold;font-size:74.6667px;font-family:Vollkorn;-inkscape-font-specification:'Vollkorn Bold';letter-spacing:-3.5px;word-spacing:0px;fill:#ffffff"
     d="m 248.46668,117.43212 17.09868,38.45335 q 1.568,3.28534 2.464,5.00267 0.97067,1.71734 1.792,2.31467 0.896,0.59733 2.016,0.82133 0.29867,0.97067 0.37333,2.09067 0.14934,1.12 0.14934,2.464 -1.19467,-0.14933 -3.136,-0.224 -1.94134,0 -3.95734,0 -1.94133,0 -3.136,0 -0.896,0 -2.38934,0 -1.49333,0 -3.136,0 -1.64266,0.0747 -3.136,0.0747 -1.41867,0.0747 -2.24,0.14933 0,-1.49333 0.14933,-2.53867 0.14934,-1.12 0.448,-2.016 2.76267,-0.52266 3.28534,-1.64266 0.52267,-1.19467 -0.82133,-4.10667 l -7.76534,-18.06934 q -1.568,-3.43467 -2.53867,-6.34667 -0.97067,-2.91201 -1.792,-6.04801 h 1.64267 q -0.896,3.21067 -1.86667,6.27201 -0.97067,2.98666 -2.24,6.12267 l -6.57067,16.94934 q -1.12,2.98667 -0.52267,4.77867 0.59734,1.792 3.28534,2.09066 0.29866,0.896 0.37333,2.09067 0.14933,1.12 0.14933,2.464 -0.82133,-0.0747 -2.24,-0.14933 -1.344,0 -2.912,-0.0747 -1.49333,0 -2.76267,0 -1.86666,0 -3.73333,0 -1.86667,0.0747 -2.98667,0.224 0,-1.26933 0.14933,-2.38933 0.14934,-1.12 0.52267,-2.16534 1.26933,-0.224 2.16533,-0.896 0.89601,-0.74666 1.71734,-2.38933 0.896,-1.64267 2.09067,-4.48 l 15.60534,-38.45335 q 1.19466,-0.29867 2.09066,-0.29867 0.97067,-0.0747 2.31467,-0.0747 z m 3.95734,32.48002 1.12,4.10667 q -5.00267,0 -10.52801,0.14933 -5.45067,0.14933 -10.528,0.52267 l 1.19467,-4.77867 z m 48.82476,14.03734 q -2.016,2.464 -5.22667,3.808 -3.21067,1.26933 -7.39201,1.26933 -5.07733,0 -9.10933,-1.94133 -3.95734,-1.94134 -6.34667,-5.824 -2.31467,-3.88267 -2.31467,-9.85601 0,-4.48 1.94133,-8.58667 1.94134,-4.10667 5.74934,-6.72 3.88267,-2.61334 9.55734,-2.61334 4.032,0 7.01867,0.82134 3.06133,0.74666 5.45067,2.31466 -0.448,2.09067 -0.59734,4.33067 -0.14933,2.16534 -0.14933,4.85334 -1.19467,0.52267 -2.76267,0.74667 -1.568,0.224 -2.98667,0.224 -0.224,-4.33067 -1.86666,-6.57067 -1.56801,-2.24001 -4.18134,-2.24001 -3.136,0 -4.85334,3.36001 -1.71733,3.36 -1.71733,9.03467 0,3.21067 1.04533,6.272 1.12,2.98667 3.36001,4.928 2.24,1.86667 5.74933,1.86667 2.38934,0 4.33067,-0.74667 2.016,-0.82133 3.50934,-2.24 0.672,0.59734 1.12,1.49334 0.52266,0.896 0.672,2.016 z m 31.29465,0 q -2.016,2.464 -5.22667,3.808 -3.21067,1.26933 -7.392,1.26933 -5.07734,0 -9.10934,-1.94133 -3.95733,-1.94134 -6.34667,-5.824 -2.31467,-3.88267 -2.31467,-9.85601 0,-4.48 1.94134,-8.58667 1.94133,-4.10667 5.74933,-6.72 3.88267,-2.61334 9.55734,-2.61334 4.032,0 7.01867,0.82134 3.06134,0.74666 5.45067,2.31466 -0.448,2.09067 -0.59733,4.33067 -0.14934,2.16534 -0.14934,4.85334 -1.19466,0.52267 -2.76266,0.74667 -1.56801,0.224 -2.98667,0.224 -0.224,-4.33067 -1.86667,-6.57067 -1.568,-2.24001 -4.18134,-2.24001 -3.136,0 -4.85333,3.36001 -1.71734,3.36 -1.71734,9.03467 0,3.21067 1.04534,6.272 1.12,2.98667 3.36,4.928 2.24,1.86667 5.74934,1.86667 2.38933,0 4.33067,-0.74667 2.016,-0.82133 3.50933,-2.24 0.672,0.59734 1.12,1.49334 0.52267,0.896 0.672,2.016 z m 17.03332,-8.51201 q 0,3.21067 0.672,5.00267 0.74666,1.792 2.31466,2.61334 1.64267,0.74666 4.40534,0.97066 0.37333,0.896 0.448,2.09067 0.0747,1.19467 0.0747,2.464 -1.26934,-0.0747 -3.21067,-0.14933 -1.86667,0 -4.032,-0.0747 -2.16534,0 -4.25601,0 -3.36,0 -6.944,0 -3.584,0.0747 -5.67467,0.224 0,-1.568 0.0747,-2.61333 0.14933,-1.12 0.37333,-1.94134 2.016,-0.14933 3.136,-0.74666 1.12,-0.59734 1.49334,-2.16534 0.448,-1.64266 0.448,-4.55467 v -5.152 h 10.67734 z m 0,-9.10933 v 6.42133 h -10.67734 v -8.13867 l 10.67734,-7.09334 q 0,1.86667 -0.448,3.80801 -0.37334,1.86666 -0.97067,4.48 z m -1.64267,-0.224 q 0.59733,-1.71734 1.19467,-3.43467 0.59733,-1.71734 1.12,-2.61334 1.64266,-2.61333 4.032,-4.33067 2.38933,-1.71733 5.376,-1.71733 2.912,0 5.30134,1.792 -0.224,1.49333 -0.448,3.43467 -0.14934,1.86667 -0.224,3.808 0,1.94133 0.0747,3.584 -1.12,0.448 -2.98667,0.672 -1.792,0.224 -3.21066,0.224 -0.0747,-2.98667 -0.896,-4.10667 -0.82134,-1.19466 -2.31467,-1.19466 -1.12,0 -2.38934,1.344 -1.26933,1.26933 -2.16533,3.43467 -0.82133,2.09066 -0.82133,4.55466 z m -9.03467,6.64533 v -6.496 q 0,-2.16534 -0.37334,-3.36 -0.29866,-1.26934 -1.49333,-1.86667 -1.12,-0.672 -3.584,-0.82133 0,-1.12 0.14933,-2.16534 0.224,-1.12 0.74667,-2.09067 3.95733,0 7.616,-0.74666 3.73334,-0.82134 5.45067,-1.71734 1.04534,0.37334 1.568,1.344 0.59734,0.896 0.59734,2.688 z m 44.51071,16.27734 q -6.34667,0 -10.30401,-2.31466 -3.95733,-2.31467 -5.824,-6.27201 -1.86667,-4.032 -1.86667,-8.96 0,-5.30134 2.09067,-9.33334 2.09067,-4.032 5.97334,-6.34667 3.95733,-2.31467 9.184,-2.31467 5.376,0 8.73601,2.09067 3.43466,2.016 5.07733,5.67467 1.64267,3.584 1.86667,8.13867 -0.52267,2.16533 -1.86667,3.50934 -1.86667,0 -4.55467,0.0747 -2.688,0 -5.824,0.0747 -3.06133,0 -6.272,0.14933 -3.136,0.0747 -5.97334,0.29867 v -4.928 h 14.33601 q 0,-5.00267 -1.49334,-7.69067 -1.41866,-2.76267 -4.18133,-2.76267 -1.792,0 -3.21067,1.19467 -1.41867,1.12 -2.24,3.65866 -0.82133,2.46401 -0.82133,6.49601 0,3.808 0.97066,7.01867 0.97067,3.21067 3.21067,5.07733 2.31467,1.86667 6.272,1.86667 2.53867,0 5.07734,-0.97067 2.53867,-0.97066 4.33067,-2.53866 0.672,0.37333 1.26933,1.49333 0.59734,1.12 0.59734,2.24 -2.76267,2.76267 -6.34667,4.10667 -3.58401,1.26933 -8.21334,1.26933 z m 43.092,-33.15201 q -0.0747,1.86666 -0.0747,3.95733 0.0747,2.016 0.37334,3.95734 -1.04534,0.59733 -2.53867,0.97066 -1.49334,0.37334 -3.136,0.37334 -0.14934,-1.94134 -1.04534,-3.50934 -0.82133,-1.64266 -2.38933,-2.61333 -1.49334,-1.04534 -3.73334,-1.04534 -1.71733,0 -2.76266,0.89601 -1.04534,0.896 -1.04534,2.31466 0,1.04534 0.52267,1.94134 0.52267,0.82133 2.24,1.86666 1.792,0.97067 5.376,2.46401 4.256,1.71733 6.64534,3.28533 2.38933,1.49333 3.36,3.36 1.04533,1.792 1.04533,4.33067 0,3.36 -1.94133,5.74934 -1.86667,2.38933 -5.376,3.65867 -3.50934,1.19466 -8.28801,1.19466 -4.62933,0 -7.616,-0.672 -2.98667,-0.672 -5.824,-1.94133 0.14933,-1.41867 0.224,-3.06134 0.0747,-1.71733 0,-3.36 0,-1.64267 -0.14934,-2.83733 1.04534,-0.672 2.688,-0.97067 1.64267,-0.29867 3.13601,-0.29867 0.448,4.18134 2.38933,6.27201 2.016,2.09066 5.07734,2.09066 2.24,0 3.584,-0.97066 1.344,-1.04534 1.344,-2.76267 0,-1.19467 -0.59734,-2.016 -0.52266,-0.896 -2.09066,-1.792 -1.49334,-0.896 -4.48,-2.09067 -3.50934,-1.344 -5.89867,-2.76267 -2.38934,-1.41867 -3.65867,-3.43467 -1.26934,-2.09066 -1.26934,-5.30133 0,-2.464 1.12,-4.256 1.12,-1.79201 3.06134,-2.98667 2.016,-1.19467 4.48,-1.792 2.53867,-0.59734 5.30134,-0.59734 3.95733,0 6.72,0.59734 2.76267,0.59733 5.22667,1.792 z m 34.95335,28.07468 q -2.016,2.464 -5.22667,3.808 -3.21067,1.26933 -7.392,1.26933 -5.07734,0 -9.10934,-1.94133 -3.95733,-1.94134 -6.34667,-5.824 -2.31467,-3.88267 -2.31467,-9.85601 0,-4.48 1.94134,-8.58667 1.94133,-4.10667 5.74933,-6.72 3.88267,-2.61334 9.55734,-2.61334 4.032,0 7.01867,0.82134 3.06134,0.74666 5.45067,2.31466 -0.448,2.09067 -0.59733,4.33067 -0.14934,2.16534 -0.14934,4.85334 -1.19466,0.52267 -2.76266,0.74667 -1.568,0.224 -2.98667,0.224 -0.224,-4.33067 -1.86667,-6.57067 -1.568,-2.24001 -4.18133,-2.24001 -3.13601,0 -4.85334,3.36001 -1.71733,3.36 -1.71733,9.03467 0,3.21067 1.04533,6.272 1.12,2.98667 3.36,4.928 2.24,1.86667 5.74934,1.86667 2.38933,0 4.33067,-0.74667 2.016,-0.82133 3.50933,-2.24 0.672,0.59734 1.12,1.49334 0.52267,0.896 0.672,2.016 z m 18.89998,5.07733 q -6.34667,0 -10.30401,-2.31466 -3.95733,-2.31467 -5.824,-6.27201 -1.86667,-4.032 -1.86667,-8.96 0,-5.30134 2.09067,-9.33334 2.09067,-4.032 5.97333,-6.34667 3.95734,-2.31467 9.18401,-2.31467 5.376,0 8.736,2.09067 3.43467,2.016 5.07734,5.67467 1.64267,3.584 1.86667,8.13867 -0.52267,2.16533 -1.86667,3.50934 -1.86667,0 -4.55467,0.0747 -2.688,0 -5.824,0.0747 -3.06134,0 -6.27201,0.14933 -3.136,0.0747 -5.97333,0.29867 v -4.928 h 14.33601 q 0,-5.00267 -1.49334,-7.69067 -1.41867,-2.76267 -4.18133,-2.76267 -1.792,0 -3.21067,1.19467 -1.41867,1.12 -2.24,3.65866 -0.82134,2.46401 -0.82134,6.49601 0,3.808 0.97067,7.01867 0.97067,3.21067 3.21067,5.07733 2.31467,1.86667 6.272,1.86667 2.53867,0 5.07734,-0.97067 2.53866,-0.97066 4.33067,-2.53866 0.672,0.37333 1.26933,1.49333 0.59733,1.12 0.59733,2.24 -2.76266,2.76267 -6.34667,4.10667 -3.584,1.26933 -8.21333,1.26933 z m 22.11067,-16.27734 v -6.496 q 0,-2.16534 -0.37333,-3.36 -0.29867,-1.26934 -1.49334,-1.86667 -1.12,-0.672 -3.584,-0.82133 0,-1.12 0.14933,-2.16534 0.224,-1.12 0.74667,-2.09067 3.95734,0 7.616,-0.74666 3.73334,-0.82134 5.45067,-1.71734 1.04534,0.37334 1.568,1.344 0.59734,0.896 0.59734,2.688 z m 34.34668,4.77867 q 0,3.73334 0.82134,5.152 0.896,1.344 2.912,1.344 0.37333,0.896 0.448,2.016 0.14933,1.04534 0.14933,2.53867 -1.64267,-0.0747 -4.256,-0.14933 -2.53867,-0.0747 -5.00267,-0.0747 -1.64267,0 -3.73334,0 -2.016,0.0747 -3.88266,0.0747 -1.86667,0.0747 -2.98667,0.14933 0,-1.344 0.0747,-2.464 0.0747,-1.12 0.448,-2.09067 2.09067,0 3.21067,-1.49333 1.12,-1.49333 1.12,-5.45067 v -8.13867 q 0,-4.704 -1.49333,-6.496 -1.49333,-1.86667 -4.256,-1.86667 -1.792,0 -3.50934,1.41867 -1.64267,1.344 -2.688,4.032 -1.04533,2.61333 -1.04533,6.57067 v 4.928 q 0,3.808 0.97066,5.152 1.04534,1.344 3.28534,1.344 0.448,1.04534 0.52267,2.09067 0.0747,1.04534 0.0747,2.464 -1.04533,-0.0747 -2.83733,-0.14933 -1.792,0 -3.73334,-0.0747 -1.86666,0 -3.584,0 -1.71733,0 -3.808,0 -2.09067,0.0747 -4.032,0.0747 -1.94134,0.0747 -3.06134,0.14933 0,-1.41866 0.14934,-2.61333 0.14933,-1.19467 0.448,-1.94134 2.912,0 3.88266,-1.344 1.04534,-1.41866 1.04534,-5.152 v -11.27467 l 10.67734,-8.73601 q 0,0.89601 -0.224,2.09067 -0.14934,1.12 -0.52267,2.38934 0.448,-0.896 0.896,-1.792 0.448,-0.896 1.19467,-1.71734 1.49333,-1.71733 4.18133,-3.136 2.688,-1.49333 6.19734,-1.49333 3.136,0 5.824,1.19466 2.76267,1.19467 4.40534,3.88267 1.71733,2.688 1.71733,7.09334 z m 19.50981,11.49867 q -5.15201,0 -7.76534,-2.688 -2.61334,-2.688 -2.61334,-9.03467 v -16.80001 q -1.19466,-0.448 -2.464,-0.672 -1.26933,-0.224 -3.06133,-0.29866 0,-1.34401 0.14933,-2.38934 0.224,-1.04533 0.74667,-2.24 h 4.62933 v -9.184 q 2.46401,-0.37334 4.85334,-1.34401 2.38933,-1.04533 3.95734,-2.31466 1.04533,0.448 1.41866,1.26933 0.37334,0.82133 0.37334,3.28534 v 8.288 h 9.184 q 0,1.344 -0.14933,2.53867 -0.14934,1.12 -0.52267,2.16533 -2.53867,0 -4.62934,0.29867 -2.09066,0.29867 -3.88266,0.82133 v 15.30668 q 0,2.98666 0.37333,4.704 0.448,1.64267 1.344,2.31467 0.896,0.672 2.16533,0.672 1.26934,0 2.38934,-0.29867 1.19467,-0.37333 2.24,-0.97067 1.04533,1.344 1.12,3.65867 -1.49333,1.26934 -4.256,2.09067 -2.688,0.82133 -5.6,0.82133 z"
     id="text1"
     aria-label="Accrescent" /></svg>
