<?xml version="1.0" encoding="UTF-8" standalone="no"?>
<!DOCTYPE svg PUBLIC "-//W3C//DTD SVG 1.1//EN" "http://www.w3.org/Graphics/SVG/1.1/DTD/svg11.dtd">
<svg width="100%" height="100%" viewBox="0 0 4267 4267" version="1.1" xmlns="http://www.w3.org/2000/svg" xmlns:xlink="http://www.w3.org/1999/xlink" xml:space="preserve" xmlns:serif="http://www.serif.com/" style="fill-rule:evenodd;clip-rule:evenodd;stroke-linejoin:round;stroke-miterlimit:2;">
    <g transform="matrix(1,0,0,1,-28467.9,-11750.3)">
        <g id="Icon-4-for-rive" serif:id="Icon 4 for rive" transform="matrix(5.99251,0,0,5.28707,28467.9,11750.3)">
            <rect x="0" y="0" width="712" height="807" style="fill:none;"/>
            <clipPath id="_clip1">
                <rect x="0" y="0" width="712" height="807"/>
            </clipPath>
            <g clip-path="url(#_clip1)">
                <g id="background" transform="matrix(0.166875,0,0,0.189141,-4750.58,-2222.46)">
                    <path d="M31900.2,12934.3C31900.2,12764.6 31762.4,12626.8 31592.6,12626.8L29669.3,12626.8C29499.6,12626.8 29361.8,12764.6 29361.8,12934.3L29361.8,14847.2C29361.8,15016.9 29499.6,15154.7 29669.3,15154.7L31592.6,15154.7C31762.4,15154.7 31900.2,15016.9 31900.2,14847.2L31900.2,12934.3Z" style="fill:rgb(53,50,51);"/>
                </g>
                <g id="wolf" transform="matrix(0.166875,0,0,0.189141,-4750.58,-2222.46)">
                    <path d="M30720,13711.7L31071.1,13711.7L31071.1,13757.9C31119.8,13744.9 31166,13738.3 31206.6,13738.2L31289.9,13737.9L31291.4,14172.5C31306,14158.2 31324.3,14139.7 31353.4,14115.9C31368.5,14103.7 31369.9,14160 31369.9,14160C31400,14154.2 31421.6,14013.8 31436.8,13894.2C31440.6,13864.3 31469.7,13904.3 31469.7,13904.3C31479.2,13906.9 31471.2,13738.3 31461.6,13697.8C31430,13565.3 31412.9,13483.1 31471.6,13322.4C31486.3,13282.4 31590.1,13121.2 31566.8,13102.2C31554.3,13092 31522,13120.6 31501.4,13140.7C31520.1,13101.6 31529.8,12953.1 31448.2,12969.6C31424.5,12974.3 31344.4,13130.4 31323.3,13127.1C31252.2,13116.2 31201.7,13184.6 31201.7,13184.6C31192,13199 31059.3,13211.6 31042,13236.7C31034.3,13247.9 31090.6,13269.7 31090.6,13269.7C31066.7,13266.6 31004.6,13300.3 31008.3,13318.3C31011.9,13335.4 31080.1,13371.6 31080.1,13371.6C31047.4,13453.4 30995.9,13496.6 30924.4,13544.5C30916.5,13549.8 30990.1,13550.8 30990.1,13550.8C30990.1,13550.8 30911.9,13583.8 30863.2,13590.1C30854.5,13591.2 30939,13610.2 30939,13610.2C30890.6,13665.3 30798.6,13684.5 30720,13711.7ZM29733.6,13711.7L29733.6,13192.1C29719.2,13211.8 29705.8,13231.9 29693.6,13251.7C29689.9,13257.6 29682.2,13212.9 29682.2,13212.9C29636.9,13268.3 29610.4,13404.1 29607.7,13493.9C29607.5,13501.9 29578.1,13467 29578.1,13467C29580.6,13532.9 29605.9,13617.9 29631.2,13673.2C29635.9,13683.6 29643,13696.9 29652,13711.7L29733.6,13711.7ZM30293.7,13077.6L30293.7,13395.3C30358.5,13440.2 30419.9,13522.9 30456.3,13650.2C30494.8,13518.9 30493.3,13413.6 30467.9,13330.1C30463.1,13314.4 30488.1,13322.8 30488.1,13322.8C30474.2,13287.9 30415,13214 30388.3,13189.2C30367,13169.3 30347.3,13148.6 30324.9,13132.3C30314.9,13125.1 30364.4,13116.9 30364.4,13116.9C30343.5,13103.1 30319.4,13089.9 30293.7,13077.6Z" style="fill:rgb(222,67,80);"/>
                </g>
                <g id="tr" transform="matrix(0.166875,0,0,0.189141,-4750.58,-2222.46)">
                    <path d="M30594.4,14427.9L30594.4,14427.9C30594.4,14427.9 30594.4,14822.3 30594.4,14822.3L30987.8,14822.3L30987.8,14625.6L30987.8,14427.9C30987.8,14369.6 31028.4,14322.1 31071.3,14285.3C31116.7,14246.4 31168.3,14215.1 31208.2,14215L31206.9,13821.5C31144.1,13821.7 31066.3,13840.4 30987.8,13876.4L30987.8,13795L30594.4,13795L30594.4,14427.9ZM30210.4,13795L30210.4,11750.3L29817,11750.3L29817,13795L29546.8,13795L29546.8,14188.4L29817,14188.4C29817,14455.4 29818.8,14625.8 29897.6,14714.9C30006.3,14837.9 30232.5,14820.7 30541.3,14820.7L30541.3,14427.3C30183.6,14427.3 30210.4,14442.1 30210.4,14188.4L30538.2,14188.4L30538.2,13795L30210.4,13795Z" style="fill:rgb(254,244,239);"/>
                </g>
            </g>
        </g>
        <g id="Original-template" serif:id="Original template">
        </g>
    </g>
</svg>
