<?xml version="1.0" encoding="UTF-8" standalone="no"?><!DOCTYPE svg PUBLIC "-//W3C//DTD SVG 1.1//EN" "http://www.w3.org/Graphics/SVG/1.1/DTD/svg11.dtd"><svg width="100%" height="100%" viewBox="0 0 764 764" version="1.1" xmlns="http://www.w3.org/2000/svg" xmlns:xlink="http://www.w3.org/1999/xlink" xml:space="preserve" xmlns:serif="http://www.serif.com/" style="fill-rule:evenodd;clip-rule:evenodd;stroke-linejoin:round;stroke-miterlimit:2;"><g id="wolf"><g id="icon"><g id="canvas"><g id="icon1" serif:id="icon"><g id="wolf1" serif:id="wolf"><path d="M426.894,428.748l105.727,0l0,13.912c14.665,-3.915 28.577,-5.902 40.803,-5.932l25.084,-0.09l0.452,130.872c4.397,-4.306 9.907,-9.877 18.67,-17.044c4.547,-3.674 4.969,13.28 4.969,13.28c9.064,-1.747 15.568,-44.025 20.146,-80.041c1.144,-9.004 9.907,3.041 9.907,3.041c2.861,0.783 0.452,-49.988 -2.439,-62.184c-9.516,-39.9 -14.665,-64.653 3.011,-113.045c4.427,-12.045 35.684,-60.588 28.668,-66.309c-3.764,-3.072 -13.491,5.541 -19.694,11.594c5.631,-11.774 8.552,-56.492 -16.02,-51.524c-7.137,1.415 -31.257,48.422 -37.611,47.428c-21.41,-3.282 -36.618,17.315 -36.618,17.315c-2.921,4.336 -42.881,8.131 -48.091,15.689c-2.319,3.373 14.635,9.937 14.635,9.937c-7.197,-0.934 -25.897,9.215 -24.783,14.635c1.084,5.149 21.621,16.05 21.621,16.05c-9.847,24.633 -25.355,37.641 -46.886,52.066c-2.379,1.596 19.784,1.897 19.784,1.897c0,0 -23.548,9.937 -38.214,11.834c-2.62,0.331 22.826,6.053 22.826,6.053c-14.575,16.592 -42.279,22.374 -65.948,30.565Zm-297.036,0l0,-156.468c-4.336,5.932 -8.371,11.985 -12.045,17.947c-1.114,1.777 -3.433,-11.684 -3.433,-11.684c-13.641,16.683 -21.621,57.576 -22.434,84.618c-0.06,2.409 -8.913,-8.1 -8.913,-8.1c0.753,19.845 8.371,45.441 15.99,62.093c1.415,3.132 3.553,7.137 6.264,11.594l24.572,0Zm168.663,-190.947l0,95.669c19.513,13.521 38.003,38.424 48.964,76.758c11.594,-39.539 11.142,-71.248 3.493,-96.392c-1.445,-4.728 6.083,-2.198 6.083,-2.198c-4.186,-10.509 -22.013,-32.763 -30.053,-40.231c-6.414,-5.993 -12.346,-12.226 -19.092,-17.134c-3.011,-2.168 11.895,-4.637 11.895,-4.637c-6.294,-4.156 -13.551,-8.131 -21.29,-11.834Z" style="fill:#00658b;"/></g></g></g></g></g><path d="M206.527,-28.246c8.326,11.386 45.742,8.737 66.926,8.985l0,473.102l98.711,0l0,118.471l-98.711,0c0,76.391 -8.07,71.919 99.614,71.919l0,118.468c-92.959,0 -161.075,5.18 -193.808,-31.829c-23.729,-26.861 -24.271,-78.177 -24.271,-158.558l-81.365,0l0,-118.471l81.365,0l0,-471.287l51.539,-10.8Zm182.56,482.087l118.465,0l0,24.512c23.639,-10.835 47.067,-16.463 65.948,-16.526l0.422,118.468c-12.015,0.042 -27.584,9.458 -41.255,21.199c-12.889,11.082 -25.115,25.362 -25.115,42.939l0,118.748l-118.465,0l0,-309.34Z" style="fill:#001d2c;"/></svg>