<?xml version="1.0" encoding="UTF-8" standalone="no"?>
<!DOCTYPE svg PUBLIC "-//W3C//DTD SVG 1.1//EN" "http://www.w3.org/Graphics/SVG/1.1/DTD/svg11.dtd">
<svg width="100%" height="100%" viewBox="0 0 2231 784" version="1.1" xmlns="http://www.w3.org/2000/svg" xmlns:xlink="http://www.w3.org/1999/xlink" xml:space="preserve" xmlns:serif="http://www.serif.com/" style="fill-rule:evenodd;clip-rule:evenodd;stroke-linejoin:round;stroke-miterlimit:2;">
    <g transform="matrix(1,0,0,1,-9056.614175,-18097)">
        <g id="v2">
        </g>
        <g id="v1">
        </g>
        <g id="Slogan-m3e" serif:id="Slogan m3e" transform="matrix(0.619436,0,0,0.435497,13204.433467,17873.932667)">
            <rect x="-6696.122" y="512.213" width="3600.513" height="1799.856" style="fill:none;"/>
            <clipPath id="_clip1">
                <rect x="-6696.122" y="512.213" width="3600.513" height="1799.856"/>
            </clipPath>
            <g clip-path="url(#_clip1)">
                <g id="Background" transform="matrix(1.614372,0,0,2.296225,-7008.848882,-39984.091441)">
                    <path d="M980.581,18207.232L980.581,17656.19C980.581,17648.358 986.939,17642 994.771,17642L2324.684,17642C2378.394,17642 2422,17685.606 2422,17739.316L2422,18207.232C2422,18215.309 2415.443,18221.867 2407.366,18221.867L995.215,18221.867C987.138,18221.867 980.581,18215.309 980.581,18207.232ZM291.154,17642L951.748,17642C959.382,17642 965.581,17648.198 965.581,17655.833L965.581,18406.033C965.581,18413.668 959.382,18419.867 951.748,18419.867L291.154,18419.867C237.375,18419.867 193.714,18376.205 193.714,18322.427L193.714,17739.44C193.714,17685.661 237.375,17642 291.154,17642Z" style="fill:rgb(255,241,239);"/>
                </g>
                <g transform="matrix(-0.758128,0,0,1.081197,-3151.307444,-14802.48058)">
                    <path d="M1960.023,15470.106C1960.023,15453.49 1946.497,15440 1929.837,15440L1010.767,15440C994.106,15440 980.581,15453.49 980.581,15470.106L980.581,15799.159C980.581,15815.775 994.106,15829.265 1010.767,15829.265L1929.837,15829.265C1946.497,15829.265 1960.023,15815.775 1960.023,15799.159L1960.023,15470.106ZM3000.18,15470.106C3000.18,15453.49 2986.654,15440 2969.994,15440L2022.15,15440C2005.49,15440 1991.964,15453.49 1991.964,15470.106L1991.964,15799.159C1991.964,15815.775 2005.49,15829.265 2022.15,15829.265L2969.994,15829.265C2986.654,15829.265 3000.18,15815.775 3000.18,15799.159L3000.18,15470.106ZM-39.02,15440C-55.68,15440 -69.206,15453.49 -69.206,15470.106L-69.206,15634.633C-69.206,15742.053 18.238,15829.265 125.943,15829.265L918.453,15829.265C935.114,15829.265 948.639,15815.775 948.639,15799.159L948.639,15470.106C948.639,15453.49 935.114,15440 918.453,15440L-39.02,15440Z" style="fill:rgb(255,219,206);"/>
                </g>
                <g transform="matrix(1.29277,0,0,0.538472,-5425.827196,1404.396782)">
                    <path d="M802.472,461.857C802.872,486.829 804.996,508.215 808.842,526.015C813.136,545.883 819.78,555.816 828.774,555.816C834.312,555.816 839.076,551.999 843.065,544.364C847.053,536.73 850.267,527.62 852.706,517.035L862.462,545.145C859.769,558.332 855.539,570.522 849.772,581.714C844.005,592.905 837.005,598.501 828.774,598.501C815.308,598.501 804.993,584.967 797.829,557.899C790.664,530.83 787.082,495.867 787.082,453.008L787.082,444.679C787.082,401.994 790.677,367.117 797.867,340.049C805.057,312.98 814.546,299.446 826.335,299.446C838.225,299.446 847.358,312.113 853.735,337.446C860.112,362.78 863.301,396.962 863.301,439.994L863.301,461.857L802.472,461.857ZM802.931,420.474L847.98,420.474C847.943,398.091 846.304,379.482 843.065,364.645C839.787,349.636 834.21,342.131 826.335,342.131C818.56,342.131 812.628,352.022 808.537,371.802C805.648,385.775 803.779,401.999 802.931,420.474ZM1111.24,307.254L1111.24,249.213L1126.332,249.213L1126.332,307.254L1145.082,307.254L1145.082,347.857L1126.332,347.857L1126.332,519.898C1126.332,532.045 1127.094,540.72 1128.618,545.926C1130.143,551.131 1132.531,553.734 1135.783,553.734C1137.307,553.734 1138.794,553.214 1140.242,552.173C1141.69,551.131 1143.176,549.743 1144.701,548.008L1144.701,590.693C1143.278,592.775 1141.449,594.597 1139.213,596.159C1136.977,597.721 1134.538,598.501 1131.896,598.501C1125.595,598.501 1120.577,592.168 1116.843,579.501C1113.108,566.835 1111.24,546.967 1111.24,519.898L1111.24,347.857L1095.768,347.857L1095.768,307.254L1111.24,307.254ZM264.449,590.693L264.449,190.912L279.541,190.912L279.541,340.83C282.132,329.031 285.6,319.617 289.945,312.59C294.289,305.563 299.535,302.049 305.684,302.049C316.659,302.049 325.437,315.496 332.017,342.391C338.598,369.286 341.888,403.382 341.888,444.679L341.888,453.008C341.888,494.305 338.598,528.444 332.017,555.426C325.437,582.408 316.659,595.899 305.684,595.899C299.535,595.899 294.149,591.778 289.525,583.536C284.901,575.294 281.472,565.36 279.236,553.734L278.855,553.734L278.169,590.693L264.449,590.693ZM279.541,504.542C281.268,517.035 284.088,528.184 288.001,537.988C291.914,547.791 296.665,552.693 302.254,552.693C310.587,552.693 316.697,543.106 320.585,523.933C324.472,504.759 326.415,481.118 326.415,453.008L326.415,444.679C326.415,416.743 324.472,393.188 320.585,374.015C316.697,354.841 310.587,345.254 302.254,345.254C296.665,345.254 291.914,350.156 288.001,359.96C284.088,369.764 281.268,380.912 279.541,393.405L279.541,504.542ZM354.845,453.008L354.845,444.679C354.845,401.994 358.567,367.117 366.011,340.049C373.455,312.98 383.376,299.446 395.774,299.446C408.223,299.446 418.17,312.98 425.614,340.049C433.058,367.117 436.78,401.994 436.78,444.679L436.78,453.008C436.78,495.867 433.058,530.83 425.614,557.899C418.17,584.967 408.223,598.501 395.774,598.501C383.376,598.501 373.455,584.967 366.011,557.899C358.567,530.83 354.845,495.867 354.845,453.008ZM370.317,444.679L370.317,453.008C370.317,481.638 372.451,505.844 376.72,525.625C380.988,545.405 387.34,555.296 395.774,555.296C404.26,555.296 410.637,545.405 414.905,525.625C419.174,505.844 421.308,481.638 421.308,453.008L421.308,444.679C421.308,416.223 419.174,392.104 414.905,372.323C410.637,352.542 404.26,342.652 395.774,342.652C387.34,342.652 380.988,352.542 376.72,372.323C372.451,392.104 370.317,416.223 370.317,444.679ZM449.737,453.008L449.737,444.679C449.737,403.382 453.027,369.286 459.608,342.391C466.188,315.496 474.966,302.049 485.941,302.049C492.09,302.049 497.336,305.563 501.68,312.59C506.025,319.617 509.493,329.031 512.084,340.83L512.084,190.912L527.176,190.912L527.176,590.693L513.456,590.693L512.77,553.734L512.389,553.734C510.153,565.36 506.724,575.294 502.1,583.536C497.476,591.778 492.09,595.899 485.941,595.899C474.966,595.899 466.188,582.408 459.608,555.426C453.027,528.444 449.737,494.305 449.737,453.008ZM465.21,453.008C465.21,481.118 467.153,504.759 471.04,523.933C474.928,543.106 481.038,552.693 489.371,552.693C494.96,552.693 499.711,547.791 503.624,537.988C507.537,528.184 510.357,517.035 512.084,504.542L512.084,393.405C510.357,380.912 507.537,369.764 503.624,359.96C499.711,350.156 494.96,345.254 489.371,345.254C481.038,345.254 474.928,354.841 471.04,374.015C467.153,393.188 465.21,416.743 465.21,444.679L465.21,453.008ZM542.801,698.967L542.801,654.721C544.223,656.109 545.798,657.237 547.526,658.104C549.254,658.972 550.931,659.406 552.557,659.406C556.418,659.406 559.607,656.109 562.122,649.515C564.637,642.921 567.673,622.533 571.23,588.351L571.23,588.09L539.218,307.254L554.31,307.254L574.584,491.268C575.346,498.382 576.057,505.367 576.718,512.22C577.378,519.074 577.887,525.972 578.242,532.912L578.7,532.912C579.055,525.972 579.576,519.074 580.262,512.22C580.948,505.367 581.672,498.382 582.434,491.268L601.489,307.254L615.818,307.254L580.834,627.132C578.09,651.424 574.469,670.337 569.973,683.871C565.476,697.406 559.95,704.173 553.395,704.173C551.21,704.173 549.279,703.739 547.602,702.871C545.925,702.004 544.325,700.702 542.801,698.967ZM655.681,307.254L670.619,307.254L686.092,489.186C686.702,496.127 687.286,503.067 687.845,510.008C688.404,516.949 688.81,523.889 689.064,530.83L689.522,530.83C689.827,523.889 690.233,516.949 690.741,510.008C691.249,503.067 691.859,496.127 692.57,489.186L710.939,307.254L724.506,307.254L742.875,489.186C743.586,496.127 744.196,503.067 744.704,510.008C745.212,516.949 745.619,523.889 745.924,530.83L746.381,530.83C746.635,523.889 747.042,516.949 747.6,510.008C748.159,503.067 748.744,496.127 749.354,489.186L764.826,307.254L778.698,307.254L752.478,590.693L739.75,590.693L721.305,404.076C720.594,397.136 719.92,390.195 719.285,383.254C718.65,376.314 718.053,369.373 717.494,362.433L717.037,362.433C716.478,369.373 715.881,376.314 715.246,383.254C714.61,390.195 713.937,397.136 713.226,404.076L694.705,590.693L681.9,590.693L655.681,307.254ZM881.136,590.693L881.136,307.254L896.227,307.254L896.227,590.693L881.136,590.693ZM879.688,226.569C879.688,218.241 880.463,211.213 882.012,205.487C883.562,199.761 885.785,196.898 888.682,196.898C891.578,196.898 893.801,199.761 895.351,205.487C896.9,211.213 897.675,218.241 897.675,226.569C897.675,235.072 896.9,242.186 895.351,247.912C893.801,253.638 891.578,256.501 888.682,256.501C885.785,256.501 883.562,253.638 882.012,247.912C880.463,242.186 879.688,235.072 879.688,226.569ZM918.026,664.611L926.791,625.049C929.332,634.072 932.876,641.967 937.423,648.734C941.971,655.501 947.065,658.885 952.705,658.885C960.226,658.885 966.158,652.248 970.502,638.974C974.847,625.7 977.019,607.004 977.019,582.885L977.019,557.118C974.428,568.917 970.96,578.33 966.615,585.357C962.271,592.385 957.024,595.899 950.876,595.899C939.901,595.899 931.123,582.408 924.542,555.426C917.962,528.444 914.672,494.305 914.672,453.008L914.672,444.679C914.672,403.382 917.962,369.286 924.542,342.391C931.123,315.496 939.901,302.049 950.876,302.049C957.024,302.049 962.411,306.17 967.034,314.412C971.658,322.654 975.088,332.588 977.324,344.213L977.705,344.213L978.391,307.254L992.11,307.254L992.11,582.885C992.11,621.926 988.503,651.901 981.287,672.81C974.072,693.718 964.697,704.173 953.163,704.173C945.998,704.173 939.392,700.442 933.346,692.981C927.299,685.52 922.192,676.063 918.026,664.611ZM930.145,453.008C930.145,481.118 932.088,504.759 935.975,523.933C939.862,543.106 945.973,552.693 954.306,552.693C959.895,552.693 964.646,547.791 968.559,537.988C972.471,528.184 975.291,517.035 977.019,504.542L977.019,393.405C975.291,380.912 972.471,369.764 968.559,359.96C964.646,350.156 959.895,345.254 954.306,345.254C945.973,345.254 939.862,354.841 935.975,374.015C932.088,393.188 930.145,416.743 930.145,444.679L930.145,453.008ZM1014.671,590.693L1014.671,190.912L1029.763,190.912L1029.763,343.953C1032.964,330.766 1036.813,320.485 1041.31,313.111C1045.807,305.736 1050.85,302.049 1056.439,302.049C1065.23,302.049 1072.229,310.464 1077.437,327.296C1082.646,344.127 1085.25,372.41 1085.25,412.145L1085.25,590.693L1070.082,590.693L1070.082,411.624C1070.082,388.2 1068.494,371.455 1065.319,361.391C1062.143,351.328 1057.633,346.296 1051.79,346.296C1046.81,346.296 1042.44,350.677 1038.68,359.439C1034.92,368.202 1031.947,379.524 1029.763,393.405L1029.763,590.693L1014.671,590.693ZM1193.481,453.008L1193.481,444.679C1193.481,403.382 1196.771,369.286 1203.351,342.391C1209.931,315.496 1218.709,302.049 1229.685,302.049C1235.833,302.049 1241.079,305.563 1245.424,312.59C1249.768,319.617 1253.236,329.031 1255.828,340.83L1255.828,190.912L1270.919,190.912L1270.919,590.693L1257.199,590.693L1256.514,553.734L1256.132,553.734C1253.897,565.36 1250.467,575.294 1245.843,583.536C1241.219,591.778 1235.833,595.899 1229.685,595.899C1218.709,595.899 1209.931,582.408 1203.351,555.426C1196.771,528.444 1193.481,494.305 1193.481,453.008ZM1208.953,453.008C1208.953,481.118 1210.897,504.759 1214.784,523.933C1218.671,543.106 1224.781,552.693 1233.114,552.693C1238.704,552.693 1243.455,547.791 1247.367,537.988C1251.28,528.184 1254.1,517.035 1255.828,504.542L1255.828,393.405C1254.1,380.912 1251.28,369.764 1247.367,359.96C1243.455,350.156 1238.704,345.254 1233.114,345.254C1224.781,345.254 1218.671,354.841 1214.784,374.015C1210.897,393.188 1208.953,416.743 1208.953,444.679L1208.953,453.008ZM1294.166,590.693L1294.166,307.254L1309.257,307.254L1309.257,590.693L1294.166,590.693ZM1292.717,226.569C1292.717,218.241 1293.492,211.213 1295.042,205.487C1296.592,199.761 1298.815,196.898 1301.711,196.898C1304.608,196.898 1306.831,199.761 1308.38,205.487C1309.93,211.213 1310.705,218.241 1310.705,226.569C1310.705,235.072 1309.93,242.186 1308.38,247.912C1306.831,253.638 1304.608,256.501 1301.711,256.501C1298.815,256.501 1296.592,253.638 1295.042,247.912C1293.492,242.186 1292.717,235.072 1292.717,226.569ZM1328.083,507.405C1328.083,478.602 1331.589,456.175 1338.601,440.124C1345.613,424.074 1354.506,416.049 1365.278,416.049L1385.323,416.049L1385.323,393.665C1385.323,378.049 1383.939,365.339 1381.169,355.535C1378.4,345.732 1373.636,340.83 1366.878,340.83C1360.171,340.83 1355.369,345.211 1352.473,353.974C1349.577,362.736 1348.129,372.93 1348.129,384.556L1348.129,385.857L1333.037,385.857L1333.037,384.556C1333.037,361.825 1336.124,341.958 1342.298,324.953C1348.472,307.948 1356.817,299.446 1367.336,299.446C1377.803,299.446 1385.933,307.341 1391.726,323.131C1397.518,338.921 1400.415,362.433 1400.415,393.665L1400.415,528.227C1400.415,539.506 1400.681,550.134 1401.215,560.111C1401.748,570.088 1402.498,578.894 1403.463,586.529L1403.463,590.693L1388.829,590.693C1388.067,586.182 1387.381,580.282 1386.771,572.994C1386.162,565.707 1385.781,558.506 1385.628,551.392C1383.545,563.017 1380.191,573.341 1375.567,582.364C1370.943,591.387 1364.973,595.899 1357.656,595.899C1349.475,595.899 1342.501,588.307 1336.734,573.125C1330.967,557.942 1328.083,536.036 1328.083,507.405ZM1343.174,504.803C1343.174,520.419 1344.635,532.609 1347.557,541.371C1350.479,550.134 1355.014,554.515 1361.162,554.515C1367.31,554.515 1372.874,547.878 1377.854,534.604C1382.834,521.33 1385.323,507.319 1385.323,492.57L1385.323,453.268L1366.878,453.268C1359.104,453.268 1353.21,457.91 1349.196,467.193C1345.181,476.476 1343.174,489.013 1343.174,504.803ZM1422.899,590.693L1422.899,307.254L1436.619,307.254L1437.305,343.953L1437.686,343.953C1439.921,332.154 1442.856,321.786 1446.489,312.85C1450.122,303.914 1454.454,299.446 1459.484,299.446C1460.653,299.446 1461.885,299.88 1463.181,300.748C1464.477,301.615 1465.378,302.396 1465.887,303.09L1465.887,352.282C1464.82,351.588 1463.702,351.067 1462.533,350.72C1461.364,350.373 1460.069,350.2 1458.646,350.2C1453.615,350.2 1449.347,354.451 1445.841,362.953C1442.335,371.455 1439.718,381.953 1437.991,394.446L1437.991,590.693L1422.899,590.693ZM1473.966,698.967L1473.966,654.721C1475.389,656.109 1476.964,657.237 1478.691,658.104C1480.419,658.972 1482.096,659.406 1483.722,659.406C1487.584,659.406 1490.772,656.109 1493.287,649.515C1495.803,642.921 1498.839,622.533 1502.395,588.351L1502.395,588.09L1470.384,307.254L1485.475,307.254L1505.749,491.268C1506.511,498.382 1507.223,505.367 1507.883,512.22C1508.544,519.074 1509.052,525.972 1509.408,532.912L1509.865,532.912C1510.221,525.972 1510.741,519.074 1511.427,512.22C1512.113,505.367 1512.837,498.382 1513.6,491.268L1532.654,307.254L1546.983,307.254L1511.999,627.132C1509.255,651.424 1505.635,670.337 1501.138,683.871C1496.641,697.406 1491.115,704.173 1484.56,704.173C1482.375,704.173 1480.444,703.739 1478.768,702.871C1477.091,702.004 1475.49,700.702 1473.966,698.967ZM471.037,-986.271L444.318,-986.271L444.318,-1038.528L445.633,-1038.528C451.244,-1038.528 456.131,-1039.88 460.293,-1042.586C464.455,-1045.291 467.699,-1050.353 470.024,-1057.772C472.35,-1065.191 473.513,-1075.766 473.513,-1089.497L473.513,-1210.951L541.913,-1210.951L541.913,-1044.498L592.501,-1044.498L592.501,-986.271L541.913,-986.271L541.913,-614.896C541.913,-581.264 542.984,-555.002 545.126,-536.109C547.267,-517.217 550.452,-503.908 554.678,-496.185C558.905,-488.461 564.057,-484.599 570.135,-484.599C575.128,-484.599 579.836,-486.312 584.26,-489.739C588.684,-493.165 592.053,-495.88 594.367,-497.882L594.367,-443.573C592.315,-440.389 589.224,-437.134 585.097,-433.807C580.969,-430.48 576.095,-427.678 570.476,-425.402C564.857,-423.126 558.592,-421.988 551.679,-421.988C536.283,-421.988 522.486,-428.617 510.288,-441.876C498.091,-455.134 488.499,-477.59 481.515,-509.244C474.53,-540.898 471.037,-583.789 471.037,-637.918L471.037,-986.271ZM702.813,-848.65L702.813,-496.203C702.813,-489.437 704.251,-484.434 707.127,-481.194C710.003,-477.954 713.409,-475.777 717.345,-474.664C721.281,-473.551 724.792,-472.995 727.876,-472.995L730.847,-472.995L730.847,-433.928L611.922,-433.928L611.922,-472.771L612.428,-472.771C617.968,-472.771 622.604,-475.236 626.337,-480.168C630.071,-485.099 631.937,-494.68 631.937,-508.908L631.937,-959.779C631.937,-968.597 631.352,-975.282 630.182,-979.835C629.011,-984.387 627.186,-988.165 624.707,-991.168C622.227,-994.172 619.028,-997.173 615.109,-1000.17L611.922,-1002.577L611.922,-1044.498L698.135,-1044.498L698.135,-880.737C700.912,-906.933 704.015,-930.845 707.445,-952.475C712.385,-983.625 718.664,-1008.071 726.283,-1025.814C733.901,-1043.556 743.449,-1052.427 754.926,-1052.427C758.173,-1052.427 761.104,-1051.911 763.718,-1050.878C766.332,-1049.846 768.297,-1048.515 769.614,-1046.886L769.614,-889.425C767.577,-891.813 765.292,-893.723 762.759,-895.153C760.227,-896.583 757.594,-897.818 754.86,-898.856C752.126,-899.895 749.362,-900.414 746.565,-900.414C740.245,-900.414 734.44,-898.962 729.151,-896.058C723.862,-893.154 719.11,-888.147 714.895,-881.039C710.68,-873.931 706.921,-864.174 703.618,-851.767C703.348,-850.751 703.079,-849.712 702.813,-848.65ZM911.635,-524.798C908.43,-507.944 904.617,-492.906 900.196,-479.683C893.989,-461.12 886.6,-446.863 878.029,-436.913C869.458,-426.963 859.594,-421.988 848.436,-421.988C835.73,-421.988 824.623,-428.132 815.115,-440.42C805.607,-452.709 798.237,-470.88 793.006,-494.935C787.774,-518.989 785.158,-548.497 785.158,-583.459C785.158,-617.029 787.758,-645.943 792.96,-670.203C798.162,-694.462 806.112,-715.006 816.811,-731.834C827.51,-748.662 841.047,-762.695 857.422,-773.933C871.69,-783.724 888.242,-791.96 907.076,-798.641L907.076,-886.403C907.076,-917.933 906.08,-942.428 904.088,-959.891C902.096,-977.353 899.068,-989.626 895.003,-996.709C890.937,-1003.793 885.632,-1007.334 879.088,-1007.334C869.929,-1007.334 862.165,-1002.384 855.797,-992.484C854.405,-990.319 853.076,-988.043 851.811,-985.655L851.811,-866.832L798.549,-866.832L798.549,-978.212C802.445,-987.279 808.235,-997.935 815.918,-1010.179C823.6,-1022.424 833.31,-1033.195 845.047,-1042.492C856.784,-1051.79 870.49,-1056.438 886.167,-1056.438C899.522,-1056.438 911.697,-1052.433 922.692,-1044.423C933.687,-1036.413 943.184,-1023.876 951.181,-1006.812C959.179,-989.747 965.36,-967.596 969.725,-940.358C974.09,-913.119 976.273,-880.06 976.273,-841.18L976.273,-512.919C976.273,-504.449 976.98,-497.851 978.393,-493.125C979.806,-488.399 981.863,-484.888 984.565,-482.593C987.266,-480.299 990.491,-478.436 994.239,-477.006L996.117,-475.569L996.117,-433.928L911.635,-433.928L911.635,-524.798ZM907.076,-754.687C901.334,-752.014 896.077,-748.656 891.303,-744.614C884.267,-738.656 878.209,-731.259 873.129,-722.422C868.049,-713.585 863.915,-703.078 860.728,-690.902C857.542,-678.726 855.174,-664.646 853.626,-648.664C852.078,-632.681 851.304,-614.753 851.304,-594.877C851.304,-575.039 852.232,-558.379 854.087,-544.897C855.942,-531.414 858.609,-521.194 862.086,-514.235C865.563,-507.276 869.652,-503.796 874.353,-503.796C880.567,-503.796 886.181,-508.495 891.192,-517.891C896.204,-527.288 900.718,-540.87 904.734,-558.637C905.536,-562.182 906.316,-565.888 907.076,-569.754L907.076,-754.687ZM1211.996,-722.301C1212.197,-683.118 1213.248,-649.073 1215.15,-620.166C1217.276,-587.834 1220.534,-561.631 1224.924,-541.557C1229.314,-521.483 1234.855,-506.66 1241.547,-497.089C1248.24,-487.519 1256.107,-482.733 1265.148,-482.733C1275.65,-482.733 1284.752,-488.05 1292.454,-498.685C1300.155,-509.319 1306.893,-524.11 1312.668,-543.059C1318.442,-562.008 1323.616,-583.708 1328.187,-608.161L1342.335,-574.486C1336.974,-544.847 1330.222,-518.501 1322.078,-495.448C1313.934,-472.394 1304.219,-454.388 1292.932,-441.428C1281.644,-428.468 1268.417,-421.988 1253.248,-421.988C1230.45,-421.988 1210.591,-434.565 1193.672,-459.72C1176.753,-484.876 1163.685,-521.094 1154.469,-568.376C1145.254,-615.657 1140.646,-671.997 1140.646,-737.394C1140.646,-801.236 1145.188,-857.063 1154.273,-904.873C1163.358,-952.683 1175.868,-989.897 1191.802,-1016.513C1207.737,-1043.13 1225.848,-1056.438 1246.134,-1056.438C1262.278,-1056.438 1276.507,-1049.115 1288.823,-1034.47C1301.138,-1019.825 1311.545,-998.323 1320.044,-969.965C1328.542,-941.608 1334.987,-906.726 1339.379,-865.321C1343.77,-823.916 1346.038,-776.243 1346.182,-722.301L1211.996,-722.301ZM1212.131,-772.114L1280.155,-772.114C1279.918,-811.192 1279.2,-844.484 1278.001,-871.991C1276.622,-903.639 1274.594,-928.934 1271.918,-947.876C1269.241,-966.819 1265.876,-980.36 1261.822,-988.501C1257.768,-996.641 1253.024,-1000.711 1247.591,-1000.711C1242.261,-1000.711 1237.424,-995.926 1233.082,-986.355C1228.74,-976.784 1224.995,-961.548 1221.848,-940.647C1218.701,-919.745 1216.266,-892.513 1214.544,-858.95C1213.264,-834.018 1212.46,-805.072 1212.131,-772.114ZM1102.136,-1311.528L1102.136,-509.487C1102.136,-494.748 1103.996,-484.981 1107.716,-480.187C1111.436,-475.392 1116.049,-472.995 1121.554,-472.995L1122.066,-472.995L1122.066,-433.928L1011.239,-433.928L1011.239,-472.995L1011.769,-472.995C1017.35,-472.995 1021.994,-475.392 1025.7,-480.187C1029.407,-484.981 1031.26,-494.555 1031.26,-508.908L1031.26,-1226.604C1031.26,-1235.509 1030.685,-1242.347 1029.533,-1247.116C1028.382,-1251.886 1026.572,-1255.801 1024.104,-1258.861C1021.636,-1261.92 1018.384,-1264.638 1014.347,-1267.014L1011.006,-1269.439L1011.006,-1311.528L1102.136,-1311.528ZM781.252,1171.261L781.252,1120.959L794.331,1120.959L794.331,1171.261L810.581,1171.261L810.581,1206.45L794.331,1206.45L794.331,1355.553C794.331,1366.079 794.991,1373.598 796.312,1378.11C797.634,1382.621 799.703,1384.877 802.522,1384.877C803.843,1384.877 805.131,1384.426 806.386,1383.523C807.641,1382.621 808.929,1381.418 810.25,1379.914L810.25,1416.908C809.017,1418.712 807.432,1420.291 805.494,1421.645C803.557,1422.998 801.443,1423.675 799.153,1423.675C793.692,1423.675 789.344,1418.186 786.107,1407.208C782.87,1396.231 781.252,1379.012 781.252,1355.553L781.252,1206.45L767.842,1206.45L767.842,1171.261L781.252,1171.261ZM701.522,1344.725L714.601,1344.725L714.601,1345.853C714.601,1359.538 716.23,1369.951 719.489,1377.095C722.748,1384.238 727.041,1387.809 732.37,1387.809C737.698,1387.809 741.871,1384.388 744.888,1377.546C747.904,1370.703 749.412,1362.019 749.412,1351.492C749.412,1340.665 748.223,1332.356 745.845,1326.567C743.467,1320.777 738.095,1315.025 729.728,1309.31C721.405,1303.596 715.063,1294.874 710.703,1283.144C706.344,1271.415 704.164,1255.399 704.164,1235.098C704.164,1214.796 706.707,1197.954 711.793,1184.57C716.88,1171.186 723.739,1164.494 732.37,1164.494C741.177,1164.494 748.168,1171.374 753.343,1185.134C758.517,1198.893 761.104,1216.977 761.104,1239.383L761.104,1240.511L748.091,1240.511L748.091,1239.383C748.091,1227.353 746.814,1217.804 744.26,1210.736C741.706,1203.668 737.743,1200.134 732.37,1200.134C726.997,1200.134 723.122,1203.292 720.744,1209.608C718.366,1215.924 717.177,1223.593 717.177,1232.616C717.177,1241.94 718.399,1249.346 720.843,1254.835C723.287,1260.324 728.693,1265.926 737.06,1271.64C745.383,1277.355 751.713,1286.227 756.051,1298.257C760.389,1310.288 762.558,1327.206 762.558,1349.011C762.558,1370.816 760.037,1388.711 754.994,1402.697C749.952,1416.682 742.411,1423.675 732.37,1423.675C722.329,1423.675 714.678,1416.569 709.415,1402.359C704.153,1388.148 701.522,1369.312 701.522,1345.853L701.522,1344.725ZM817.649,1510.745L817.649,1472.398C818.882,1473.601 820.247,1474.579 821.744,1475.331C823.241,1476.083 824.695,1476.459 826.104,1476.459C829.451,1476.459 832.214,1473.601 834.394,1467.887C836.574,1462.172 839.205,1444.503 842.288,1414.878L842.288,1414.652L814.544,1171.261L827.623,1171.261L845.194,1330.74C845.855,1336.905 846.471,1342.958 847.044,1348.898C847.616,1354.838 848.057,1360.816 848.365,1366.831L848.761,1366.831C849.069,1360.816 849.521,1354.838 850.115,1348.898C850.71,1342.958 851.337,1336.905 851.998,1330.74L868.512,1171.261L880.931,1171.261L850.611,1448.488C848.233,1469.541 845.095,1485.933 841.198,1497.662C837.3,1509.392 832.511,1515.257 826.83,1515.257C824.937,1515.257 823.263,1514.881 821.81,1514.129C820.357,1513.377 818.97,1512.249 817.649,1510.745ZM891.103,1416.908L891.103,1070.431L904.182,1070.431L904.182,1416.908L891.103,1416.908ZM924.858,1416.908L924.858,1171.261L937.937,1171.261L937.937,1416.908L924.858,1416.908ZM923.603,1101.334C923.603,1094.116 924.275,1088.025 925.618,1083.063C926.961,1078.1 928.887,1075.619 931.398,1075.619C933.908,1075.619 935.834,1078.1 937.178,1083.063C938.521,1088.025 939.192,1094.116 939.192,1101.334C939.192,1108.703 938.521,1114.868 937.178,1119.831C935.834,1124.793 933.908,1127.275 931.398,1127.275C928.887,1127.275 926.961,1124.793 925.618,1119.831C924.275,1114.868 923.603,1108.703 923.603,1101.334ZM953.593,1344.725L966.672,1344.725L966.672,1345.853C966.672,1359.538 968.301,1369.951 971.56,1377.095C974.819,1384.238 979.112,1387.809 984.441,1387.809C989.769,1387.809 993.942,1384.388 996.958,1377.546C999.975,1370.703 1001.483,1362.019 1001.483,1351.492C1001.483,1340.665 1000.294,1332.356 997.916,1326.567C995.538,1320.777 990.166,1315.025 981.799,1309.31C973.475,1303.596 967.134,1294.874 962.774,1283.144C958.415,1271.415 956.235,1255.399 956.235,1235.098C956.235,1214.796 958.778,1197.954 963.864,1184.57C968.951,1171.186 975.809,1164.494 984.441,1164.494C993.248,1164.494 1000.239,1171.374 1005.414,1185.134C1010.588,1198.893 1013.175,1216.977 1013.175,1239.383L1013.175,1240.511L1000.162,1240.511L1000.162,1239.383C1000.162,1227.353 998.885,1217.804 996.331,1210.736C993.777,1203.668 989.813,1200.134 984.441,1200.134C979.068,1200.134 975.193,1203.292 972.815,1209.608C970.437,1215.924 969.248,1223.593 969.248,1232.616C969.248,1241.94 970.47,1249.346 972.914,1254.835C975.358,1260.324 980.764,1265.926 989.131,1271.64C997.454,1277.355 1003.784,1286.227 1008.122,1298.257C1012.46,1310.288 1014.629,1327.206 1014.629,1349.011C1014.629,1370.816 1012.107,1388.711 1007.065,1402.697C1002.023,1416.682 994.481,1423.675 984.441,1423.675C974.4,1423.675 966.749,1416.569 961.486,1402.359C956.224,1388.148 953.593,1369.312 953.593,1345.853L953.593,1344.725ZM1029.689,1416.908L1029.689,1070.431L1042.769,1070.431L1042.769,1203.066C1045.543,1191.638 1048.879,1182.727 1052.776,1176.336C1056.673,1169.945 1061.044,1166.75 1065.888,1166.75C1073.507,1166.75 1079.573,1174.043 1084.087,1188.63C1088.601,1203.217 1090.858,1227.729 1090.858,1262.166L1090.858,1416.908L1077.712,1416.908L1077.712,1261.715C1077.712,1241.414 1076.336,1226.902 1073.584,1218.18C1070.831,1209.458 1066.923,1205.097 1061.859,1205.097C1057.543,1205.097 1053.756,1208.894 1050.497,1216.488C1047.238,1224.082 1044.662,1233.895 1042.769,1245.925L1042.769,1416.908L1029.689,1416.908ZM449.731,1305.25C450.078,1326.893 451.919,1345.427 455.252,1360.853C458.974,1378.072 464.731,1386.681 472.526,1386.681C477.326,1386.681 481.455,1383.373 484.912,1376.756C488.369,1370.139 491.154,1362.244 493.268,1353.071L501.723,1377.433C499.389,1388.862 495.723,1399.426 490.725,1409.126C485.726,1418.825 479.66,1423.675 472.526,1423.675C460.856,1423.675 451.917,1411.945 445.707,1388.486C439.498,1365.027 436.393,1334.725 436.393,1297.581L436.393,1290.362C436.393,1253.369 439.509,1223.142 445.74,1199.683C451.972,1176.224 460.196,1164.494 470.412,1164.494C480.717,1164.494 488.633,1175.472 494.16,1197.427C499.686,1219.383 502.45,1249.008 502.45,1286.302L502.45,1305.25L449.731,1305.25ZM450.129,1269.384L489.172,1269.384C489.14,1249.986 487.719,1233.858 484.912,1220.999C482.071,1207.991 477.238,1201.487 470.412,1201.487C463.675,1201.487 458.533,1210.059 454.988,1227.203C452.484,1239.312 450.864,1253.373 450.129,1269.384ZM89.003,1344.725L102.082,1344.725L102.082,1345.853C102.082,1359.538 103.712,1369.951 106.97,1377.095C110.229,1384.238 114.523,1387.809 119.851,1387.809C125.18,1387.809 129.353,1384.388 132.369,1377.546C135.386,1370.703 136.894,1362.019 136.894,1351.492C136.894,1340.665 135.705,1332.356 133.327,1326.567C130.949,1320.777 125.576,1315.025 117.209,1309.31C108.886,1303.596 102.545,1294.874 98.185,1283.144C93.825,1271.415 91.645,1255.399 91.645,1235.098C91.645,1214.796 94.189,1197.954 99.275,1184.57C104.361,1171.186 111.22,1164.494 119.851,1164.494C128.659,1164.494 135.65,1171.374 140.824,1185.134C145.999,1198.893 148.586,1216.977 148.586,1239.383L148.586,1240.511L135.573,1240.511L135.573,1239.383C135.573,1227.353 134.296,1217.804 131.742,1210.736C129.187,1203.668 125.224,1200.134 119.851,1200.134C114.479,1200.134 110.604,1203.292 108.226,1209.608C105.848,1215.924 104.659,1223.593 104.659,1232.616C104.659,1241.94 105.881,1249.346 108.325,1254.835C110.769,1260.324 116.174,1265.926 124.541,1271.64C132.865,1277.355 139.195,1286.227 143.533,1298.257C147.87,1310.288 150.039,1327.206 150.039,1349.011C150.039,1370.816 147.518,1388.711 142.476,1402.697C137.433,1416.682 129.892,1423.675 119.851,1423.675C109.811,1423.675 102.159,1416.569 96.897,1402.359C91.634,1388.148 89.003,1369.312 89.003,1345.853L89.003,1344.725ZM165.695,1416.908L165.695,1171.261L178.774,1171.261L178.774,1416.908L165.695,1416.908ZM164.439,1101.334C164.439,1094.116 165.111,1088.025 166.454,1083.063C167.797,1078.1 169.724,1075.619 172.234,1075.619C174.744,1075.619 176.671,1078.1 178.014,1083.063C179.357,1088.025 180.029,1094.116 180.029,1101.334C180.029,1108.703 179.357,1114.868 178.014,1119.831C176.671,1124.793 174.744,1127.275 172.234,1127.275C169.724,1127.275 167.797,1124.793 166.454,1119.831C165.111,1114.868 164.439,1108.703 164.439,1101.334ZM198.921,1416.908L198.921,1171.261L210.811,1171.261L211.406,1203.743L211.736,1203.743C214.51,1192.014 217.813,1182.915 221.644,1176.449C225.476,1169.983 229.747,1166.75 234.459,1166.75C239.523,1166.75 243.894,1170.096 247.571,1176.787C251.248,1183.479 254.034,1194.119 255.927,1208.706L256.258,1208.706C259.472,1193.818 263.062,1183.103 267.025,1176.562C270.988,1170.02 275.48,1166.75 280.5,1166.75C288.295,1166.75 294.405,1174.081 298.831,1188.743C303.257,1203.405 305.47,1227.879 305.47,1262.166L305.47,1416.908L292.391,1416.908L292.391,1261.715C292.347,1241.414 291.014,1226.902 288.394,1218.18C285.774,1209.458 282.042,1205.097 277.198,1205.097C273.014,1205.097 269.37,1208.894 266.265,1216.488C263.161,1224.082 260.661,1233.895 258.768,1245.925L258.768,1416.908L245.623,1416.908L245.623,1261.715C245.623,1241.414 244.302,1226.902 241.659,1218.18C239.017,1209.458 235.274,1205.097 230.43,1205.097C226.246,1205.097 222.602,1208.894 219.497,1216.488C216.393,1224.082 213.894,1233.895 212,1245.925L212,1416.908L198.921,1416.908ZM324.362,1510.745L324.362,1171.261L336.252,1171.261L336.846,1203.292L337.177,1203.292C339.114,1193.217 342.087,1184.607 346.094,1177.464C350.102,1170.321 354.77,1166.75 360.098,1166.75C369.61,1166.75 377.218,1178.404 382.921,1201.713C388.624,1225.022 391.475,1254.572 391.475,1290.362L391.475,1297.581C391.475,1333.371 388.624,1362.959 382.921,1386.343C377.218,1409.727 369.61,1421.419 360.098,1421.419C354.77,1421.419 350.223,1418.374 346.458,1412.284C342.692,1406.193 339.687,1398.035 337.441,1387.809L337.441,1510.745L324.362,1510.745ZM337.441,1342.244C338.938,1353.071 341.382,1362.733 344.773,1371.23C348.164,1379.726 352.282,1383.974 357.126,1383.974C364.348,1383.974 369.643,1375.666 373.012,1359.049C376.381,1342.432 378.066,1321.942 378.066,1297.581L378.066,1290.362C378.066,1266.151 376.381,1245.737 373.012,1229.12C369.643,1212.503 364.348,1204.194 357.126,1204.194C352.282,1204.194 348.164,1208.443 344.773,1216.939C341.382,1225.436 338.938,1235.098 337.441,1245.925L337.441,1342.244ZM407.395,1416.908L407.395,1070.431L420.474,1070.431L420.474,1416.908L407.395,1416.908ZM1377.622,1305.25C1377.969,1326.893 1379.809,1345.427 1383.143,1360.853C1386.864,1378.072 1392.622,1386.681 1400.417,1386.681C1405.217,1386.681 1409.346,1383.373 1412.802,1376.756C1416.259,1370.139 1419.045,1362.244 1421.159,1353.071L1429.614,1377.433C1427.28,1388.862 1423.614,1399.426 1418.615,1409.126C1413.617,1418.825 1407.551,1423.675 1400.417,1423.675C1388.747,1423.675 1379.807,1411.945 1373.598,1388.486C1367.389,1365.027 1364.284,1334.725 1364.284,1297.581L1364.284,1290.362C1364.284,1253.369 1367.4,1223.142 1373.631,1199.683C1379.862,1176.224 1388.086,1164.494 1398.303,1164.494C1408.608,1164.494 1416.524,1175.472 1422.05,1197.427C1427.577,1219.383 1430.34,1249.008 1430.34,1286.302L1430.34,1305.25L1377.622,1305.25ZM1378.02,1269.384L1417.063,1269.384C1417.031,1249.986 1415.61,1233.858 1412.802,1220.999C1409.962,1207.991 1405.129,1201.487 1398.303,1201.487C1391.565,1201.487 1386.424,1210.059 1382.879,1227.203C1380.375,1239.312 1378.755,1253.373 1378.02,1269.384ZM1658.229,1305.25C1658.576,1326.893 1660.417,1345.427 1663.75,1360.853C1667.472,1378.072 1673.229,1386.681 1681.024,1386.681C1685.824,1386.681 1689.953,1383.373 1693.41,1376.756C1696.867,1370.139 1699.652,1362.244 1701.766,1353.071L1710.221,1377.433C1707.887,1388.862 1704.221,1399.426 1699.223,1409.126C1694.224,1418.825 1688.158,1423.675 1681.024,1423.675C1669.354,1423.675 1660.415,1411.945 1654.205,1388.486C1647.996,1365.027 1644.891,1334.725 1644.891,1297.581L1644.891,1290.362C1644.891,1253.369 1648.007,1223.142 1654.238,1199.683C1660.47,1176.224 1668.694,1164.494 1678.91,1164.494C1689.215,1164.494 1697.131,1175.472 1702.658,1197.427C1708.184,1219.383 1710.948,1249.008 1710.948,1286.302L1710.948,1305.25L1658.229,1305.25ZM1658.627,1269.384L1697.67,1269.384C1697.638,1249.986 1696.218,1233.858 1693.41,1220.999C1690.569,1207.991 1685.736,1201.487 1678.91,1201.487C1672.173,1201.487 1667.031,1210.059 1663.486,1227.203C1660.982,1239.312 1659.362,1253.373 1658.627,1269.384ZM1292.349,1344.725L1305.428,1344.725L1305.428,1345.853C1305.428,1359.538 1307.057,1369.951 1310.316,1377.095C1313.575,1384.238 1317.869,1387.809 1323.197,1387.809C1328.526,1387.809 1332.698,1384.388 1335.715,1377.546C1338.731,1370.703 1340.24,1362.019 1340.24,1351.492C1340.24,1340.665 1339.051,1332.356 1336.673,1326.567C1334.295,1320.777 1328.922,1315.025 1320.555,1309.31C1312.232,1303.596 1305.89,1294.874 1301.531,1283.144C1297.171,1271.415 1294.991,1255.399 1294.991,1235.098C1294.991,1214.796 1297.534,1197.954 1302.621,1184.57C1307.707,1171.186 1314.566,1164.494 1323.197,1164.494C1332.005,1164.494 1338.996,1171.374 1344.17,1185.134C1349.344,1198.893 1351.932,1216.977 1351.932,1239.383L1351.932,1240.511L1338.919,1240.511L1338.919,1239.383C1338.919,1227.353 1337.641,1217.804 1335.087,1210.736C1332.533,1203.668 1328.57,1200.134 1323.197,1200.134C1317.825,1200.134 1313.949,1203.292 1311.571,1209.608C1309.193,1215.924 1308.004,1223.593 1308.004,1232.616C1308.004,1241.94 1309.226,1249.346 1311.67,1254.835C1314.114,1260.324 1319.52,1265.926 1327.887,1271.64C1336.21,1277.355 1342.541,1286.227 1346.878,1298.257C1351.216,1310.288 1353.385,1327.206 1353.385,1349.011C1353.385,1370.816 1350.864,1388.711 1345.821,1402.697C1340.779,1416.682 1333.238,1423.675 1323.197,1423.675C1313.157,1423.675 1305.505,1416.569 1300.243,1402.359C1294.98,1388.148 1292.349,1369.312 1292.349,1345.853L1292.349,1344.725ZM1441.042,1297.581L1441.042,1290.362C1441.042,1253.369 1444.135,1223.142 1450.322,1199.683C1456.51,1176.224 1465.02,1164.494 1475.853,1164.494C1485.894,1164.494 1493.523,1173.291 1498.742,1190.886C1503.96,1208.48 1506.569,1228.105 1506.569,1249.76L1506.569,1250.888L1493.821,1250.888L1493.821,1249.76C1493.821,1237.128 1492.4,1225.962 1489.56,1216.262C1486.72,1206.563 1482.151,1201.713 1475.853,1201.713C1468.499,1201.713 1463.093,1210.285 1459.636,1227.428C1456.179,1244.572 1454.451,1265.55 1454.451,1290.362L1454.451,1297.581C1454.451,1322.544 1456.179,1343.597 1459.636,1360.741C1463.093,1377.884 1468.499,1386.456 1475.853,1386.456C1482.151,1386.456 1486.72,1381.606 1489.56,1371.906C1492.4,1362.207 1493.821,1351.041 1493.821,1338.409L1493.821,1337.281L1506.569,1337.281L1506.569,1338.409C1506.569,1360.064 1503.96,1379.689 1498.742,1397.283C1493.523,1414.878 1485.894,1423.675 1475.853,1423.675C1465.02,1423.675 1456.51,1411.945 1450.322,1388.486C1444.135,1365.027 1441.042,1334.725 1441.042,1297.581ZM1520.639,1326.003L1520.639,1171.261L1533.719,1171.261L1533.719,1326.454C1533.719,1346.755 1535.095,1361.267 1537.847,1369.989C1540.599,1378.711 1544.53,1383.072 1549.638,1383.072C1553.91,1383.072 1557.675,1379.275 1560.934,1371.681C1564.193,1364.087 1566.769,1354.274 1568.662,1342.244L1568.662,1171.261L1581.808,1171.261L1581.808,1416.908L1569.851,1416.908L1569.323,1384.2L1568.993,1384.2C1566.174,1396.08 1562.772,1405.253 1558.787,1411.72C1554.802,1418.186 1550.387,1421.419 1545.543,1421.419C1537.968,1421.419 1531.924,1414.088 1527.41,1399.426C1522.896,1384.764 1520.639,1360.29 1520.639,1326.003ZM1601.36,1416.908L1601.36,1171.261L1613.25,1171.261L1613.845,1203.066L1614.175,1203.066C1616.113,1192.841 1618.656,1183.855 1621.805,1176.111C1624.953,1168.366 1628.708,1164.494 1633.067,1164.494C1634.08,1164.494 1635.148,1164.87 1636.271,1165.622C1637.394,1166.374 1638.176,1167.05 1638.616,1167.652L1638.616,1210.285C1637.691,1209.683 1636.722,1209.232 1635.71,1208.931C1634.697,1208.631 1633.574,1208.48 1632.341,1208.48C1627.981,1208.48 1624.282,1212.165 1621.243,1219.533C1618.205,1226.902 1615.937,1236 1614.439,1246.827L1614.439,1416.908L1601.36,1416.908Z" style="fill:rgb(0,29,44);"/>
                </g>
                <g id="Curve" transform="matrix(1.242611,-0,-0,1.968193,-6213.746144,-35038.66422)">
                    <path d="M1033.586,18504.606C1033.004,18503.24 1032.239,18501.97 1031.317,18500.831C1028.633,18497.516 1024.593,18495.292 1020,18495.292C1015.497,18495.292 1011.524,18497.431 1008.843,18500.638C1007.849,18501.826 1007.029,18503.162 1006.414,18504.606C1004.812,18508.365 1000.114,18510.248 995.928,18508.81C991.743,18507.372 989.645,18503.153 991.247,18499.394C992.413,18496.658 993.975,18494.131 995.857,18491.881C1001.616,18484.994 1010.329,18480.708 1020,18480.708C1029.846,18480.708 1038.7,18485.15 1044.452,18492.256C1046.196,18494.411 1047.652,18496.809 1048.753,18499.394C1049.335,18500.76 1050.101,18502.03 1051.023,18503.169C1053.706,18506.484 1057.746,18508.708 1062.339,18508.708C1066.843,18508.708 1070.815,18506.569 1073.497,18503.362C1074.49,18502.174 1075.31,18500.838 1075.926,18499.394C1077.091,18496.658 1078.654,18494.131 1080.536,18491.881C1086.295,18484.994 1095.007,18480.708 1104.679,18480.708C1114.525,18480.708 1123.378,18485.15 1129.131,18492.256C1130.875,18494.411 1132.331,18496.809 1133.432,18499.394C1134.014,18500.76 1134.78,18502.03 1135.702,18503.169C1138.385,18506.484 1142.425,18508.708 1147.018,18508.708C1151.521,18508.708 1155.494,18506.569 1158.176,18503.362C1159.169,18502.174 1159.989,18500.838 1160.604,18499.394C1161.77,18496.658 1163.333,18494.131 1165.214,18491.881C1170.974,18484.994 1179.686,18480.708 1189.358,18480.708C1199.203,18480.708 1208.057,18485.15 1213.81,18492.256C1215.554,18494.411 1217.009,18496.809 1218.111,18499.394C1218.693,18500.76 1219.459,18502.03 1220.38,18503.169C1223.064,18506.484 1227.104,18508.708 1231.697,18508.708C1236.2,18508.708 1240.173,18506.569 1242.855,18503.362C1243.848,18502.174 1244.668,18500.838 1245.283,18499.394C1246.449,18496.658 1248.012,18494.131 1249.893,18491.881C1255.653,18484.994 1264.365,18480.708 1274.037,18480.708C1283.882,18480.708 1292.736,18485.15 1298.489,18492.256C1300.233,18494.411 1301.688,18496.809 1302.79,18499.394C1303.372,18500.76 1304.137,18502.03 1305.059,18503.169C1307.743,18506.484 1311.783,18508.708 1316.376,18508.708C1320.879,18508.708 1324.852,18506.569 1327.533,18503.362C1328.527,18502.174 1329.347,18500.838 1329.962,18499.394C1331.128,18496.658 1332.69,18494.131 1334.572,18491.881C1340.332,18484.994 1349.044,18480.708 1358.715,18480.708C1368.561,18480.708 1377.415,18485.15 1383.167,18492.256C1384.912,18494.411 1386.367,18496.809 1387.469,18499.394C1388.051,18500.76 1388.816,18502.03 1389.738,18503.169C1392.422,18506.484 1396.462,18508.708 1401.055,18508.708C1405.558,18508.708 1409.531,18506.569 1412.212,18503.362C1413.206,18502.174 1414.026,18500.838 1414.641,18499.394C1415.807,18496.658 1417.369,18494.131 1419.251,18491.881C1425.01,18484.994 1433.723,18480.708 1443.394,18480.708C1453.24,18480.708 1462.094,18485.15 1467.846,18492.256C1469.591,18494.411 1471.046,18496.809 1472.148,18499.394C1472.73,18500.76 1473.495,18502.03 1474.417,18503.169C1477.101,18506.484 1481.14,18508.708 1485.734,18508.708C1490.237,18508.708 1494.209,18506.569 1496.891,18503.362C1497.884,18502.174 1498.704,18500.838 1499.32,18499.394C1500.486,18496.658 1502.048,18494.131 1503.93,18491.881C1509.689,18484.994 1518.402,18480.708 1528.073,18480.708C1537.919,18480.708 1546.773,18485.15 1552.525,18492.256C1554.269,18494.411 1555.725,18496.809 1556.826,18499.394C1557.409,18500.76 1558.174,18502.03 1559.096,18503.169C1561.78,18506.484 1565.819,18508.708 1570.413,18508.708C1574.916,18508.708 1578.888,18506.569 1581.57,18503.362C1582.563,18502.174 1583.383,18500.838 1583.999,18499.394C1585.165,18496.658 1586.727,18494.131 1588.609,18491.881C1594.368,18484.994 1603.081,18480.708 1612.752,18480.708C1622.598,18480.708 1631.451,18485.15 1637.204,18492.256C1638.948,18494.411 1640.404,18496.809 1641.505,18499.394C1642.087,18500.76 1642.853,18502.03 1643.775,18503.169C1646.458,18506.484 1650.498,18508.708 1655.091,18508.708C1659.595,18508.708 1663.567,18506.569 1666.249,18503.362C1667.242,18502.174 1668.062,18500.838 1668.677,18499.394C1669.843,18496.658 1671.406,18494.131 1673.288,18491.881C1679.047,18484.994 1687.759,18480.708 1697.431,18480.708C1707.277,18480.708 1716.13,18485.15 1721.883,18492.256C1723.627,18494.411 1725.083,18496.809 1726.184,18499.394C1726.766,18500.76 1727.532,18502.03 1728.454,18503.169C1731.137,18506.484 1735.177,18508.708 1739.77,18508.708C1744.273,18508.708 1748.246,18506.569 1750.928,18503.362C1751.921,18502.174 1752.741,18500.838 1753.356,18499.394C1754.522,18496.658 1756.085,18494.131 1757.966,18491.881C1763.726,18484.994 1772.438,18480.708 1782.11,18480.708C1791.955,18480.708 1800.809,18485.15 1806.562,18492.256C1808.306,18494.411 1809.761,18496.809 1810.863,18499.394C1811.445,18500.76 1812.21,18502.03 1813.132,18503.169C1815.816,18506.484 1819.856,18508.708 1824.449,18508.708C1828.952,18508.708 1832.925,18506.569 1835.607,18503.362C1836.6,18502.174 1837.42,18500.838 1838.035,18499.394C1839.201,18496.658 1840.764,18494.131 1842.645,18491.881C1848.405,18484.994 1857.117,18480.708 1866.788,18480.708C1876.634,18480.708 1885.488,18485.15 1891.241,18492.256C1892.985,18494.411 1894.44,18496.809 1895.542,18499.394C1896.124,18500.76 1896.889,18502.03 1897.811,18503.169C1900.495,18506.484 1904.535,18508.708 1909.128,18508.708C1913.631,18508.708 1917.604,18506.569 1920.285,18503.362C1921.279,18502.174 1922.099,18500.838 1922.714,18499.394C1923.88,18496.658 1925.442,18494.131 1927.324,18491.881C1933.084,18484.994 1941.796,18480.708 1951.467,18480.708C1961.313,18480.708 1970.167,18485.15 1975.919,18492.256C1977.664,18494.411 1979.119,18496.809 1980.221,18499.394C1980.803,18500.76 1981.568,18502.03 1982.49,18503.169C1985.174,18506.484 1989.213,18508.708 1993.807,18508.708C1998.31,18508.708 2002.283,18506.569 2004.964,18503.362C2005.957,18502.174 2006.777,18500.838 2007.393,18499.394C2008.559,18496.658 2010.121,18494.131 2012.003,18491.881C2017.762,18484.994 2026.475,18480.708 2036.146,18480.708C2045.992,18480.708 2054.846,18485.15 2060.598,18492.256C2062.342,18494.411 2063.798,18496.809 2064.899,18499.394C2065.482,18500.76 2066.247,18502.03 2067.169,18503.169C2069.853,18506.484 2073.892,18508.708 2078.486,18508.708C2082.989,18508.708 2086.961,18506.569 2089.643,18503.362C2090.636,18502.174 2091.456,18500.838 2092.072,18499.394C2093.238,18496.658 2094.8,18494.131 2096.682,18491.881C2102.441,18484.994 2111.154,18480.708 2120.825,18480.708C2130.671,18480.708 2139.525,18485.15 2145.277,18492.256C2147.021,18494.411 2148.477,18496.809 2149.578,18499.394C2151.18,18503.153 2149.082,18507.372 2144.897,18508.81C2140.711,18510.248 2136.013,18508.365 2134.411,18504.606C2133.829,18503.24 2133.064,18501.97 2132.142,18500.831C2129.458,18497.516 2125.418,18495.292 2120.825,18495.292C2116.322,18495.292 2112.349,18497.431 2109.668,18500.638C2108.674,18501.826 2107.854,18503.162 2107.239,18504.606C2106.073,18507.342 2104.511,18509.869 2102.629,18512.119C2096.869,18519.006 2088.157,18523.292 2078.486,18523.292C2068.64,18523.292 2059.786,18518.85 2054.034,18511.744C2052.289,18509.589 2050.834,18507.191 2049.732,18504.606C2049.15,18503.24 2048.385,18501.97 2047.463,18500.831C2044.779,18497.516 2040.739,18495.292 2036.146,18495.292C2031.643,18495.292 2027.67,18497.431 2024.989,18500.638C2023.995,18501.826 2023.175,18503.162 2022.56,18504.606C2021.394,18507.342 2019.832,18509.869 2017.95,18512.119C2012.191,18519.006 2003.478,18523.292 1993.807,18523.292C1983.961,18523.292 1975.107,18518.85 1969.355,18511.744C1967.61,18509.589 1966.155,18507.191 1965.053,18504.606C1964.471,18503.24 1963.706,18501.97 1962.784,18500.831C1960.1,18497.516 1956.061,18495.292 1951.467,18495.292C1946.964,18495.292 1942.992,18497.431 1940.31,18500.638C1939.317,18501.826 1938.497,18503.162 1937.881,18504.606C1936.715,18507.342 1935.153,18509.869 1933.271,18512.119C1927.512,18519.006 1918.799,18523.292 1909.128,18523.292C1899.282,18523.292 1890.428,18518.85 1884.676,18511.744C1882.932,18509.589 1881.476,18507.191 1880.375,18504.606C1879.792,18503.24 1879.027,18501.97 1878.105,18500.831C1875.421,18497.516 1871.382,18495.292 1866.788,18495.292C1862.285,18495.292 1858.313,18497.431 1855.631,18500.638C1854.638,18501.826 1853.818,18503.162 1853.202,18504.606C1852.036,18507.342 1850.474,18509.869 1848.592,18512.119C1842.833,18519.006 1834.12,18523.292 1824.449,18523.292C1814.603,18523.292 1805.75,18518.85 1799.997,18511.744C1798.253,18509.589 1796.797,18507.191 1795.696,18504.606C1795.114,18503.24 1794.348,18501.97 1793.426,18500.831C1790.743,18497.516 1786.703,18495.292 1782.11,18495.292C1777.606,18495.292 1773.634,18497.431 1770.952,18500.638C1769.959,18501.826 1769.139,18503.162 1768.524,18504.606C1767.358,18507.342 1765.795,18509.869 1763.913,18512.119C1758.154,18519.006 1749.442,18523.292 1739.77,18523.292C1729.924,18523.292 1721.071,18518.85 1715.318,18511.744C1713.574,18509.589 1712.118,18507.191 1711.017,18504.606C1710.435,18503.24 1709.669,18501.97 1708.747,18500.831C1706.064,18497.516 1702.024,18495.292 1697.431,18495.292C1692.928,18495.292 1688.955,18497.431 1686.273,18500.638C1685.28,18501.826 1684.46,18503.162 1683.845,18504.606C1682.679,18507.342 1681.116,18509.869 1679.235,18512.119C1673.475,18519.006 1664.763,18523.292 1655.091,18523.292C1645.246,18523.292 1636.392,18518.85 1630.639,18511.744C1628.895,18509.589 1627.44,18507.191 1626.338,18504.606C1625.756,18503.24 1624.991,18501.97 1624.069,18500.831C1621.385,18497.516 1617.345,18495.292 1612.752,18495.292C1608.249,18495.292 1604.276,18497.431 1601.594,18500.638C1600.601,18501.826 1599.781,18503.162 1599.166,18504.606C1598,18507.342 1596.437,18509.869 1594.556,18512.119C1588.796,18519.006 1580.084,18523.292 1570.413,18523.292C1560.567,18523.292 1551.713,18518.85 1545.96,18511.744C1544.216,18509.589 1542.761,18507.191 1541.659,18504.606C1541.077,18503.24 1540.312,18501.97 1539.39,18500.831C1536.706,18497.516 1532.666,18495.292 1528.073,18495.292C1523.57,18495.292 1519.597,18497.431 1516.916,18500.638C1515.922,18501.826 1515.102,18503.162 1514.487,18504.606C1513.321,18507.342 1511.759,18509.869 1509.877,18512.119C1504.117,18519.006 1495.405,18523.292 1485.734,18523.292C1475.888,18523.292 1467.034,18518.85 1461.282,18511.744C1459.537,18509.589 1458.082,18507.191 1456.98,18504.606C1456.398,18503.24 1455.633,18501.97 1454.711,18500.831C1452.027,18497.516 1447.988,18495.292 1443.394,18495.292C1438.891,18495.292 1434.918,18497.431 1432.237,18500.638C1431.244,18501.826 1430.424,18503.162 1429.808,18504.606C1428.642,18507.342 1427.08,18509.869 1425.198,18512.119C1419.439,18519.006 1410.726,18523.292 1401.055,18523.292C1391.209,18523.292 1382.355,18518.85 1376.603,18511.744C1374.859,18509.589 1373.403,18507.191 1372.302,18504.606C1371.719,18503.24 1370.954,18501.97 1370.032,18500.831C1367.348,18497.516 1363.309,18495.292 1358.715,18495.292C1354.212,18495.292 1350.24,18497.431 1347.558,18500.638C1346.565,18501.826 1345.745,18503.162 1345.129,18504.606C1343.963,18507.342 1342.401,18509.869 1340.519,18512.119C1334.76,18519.006 1326.047,18523.292 1316.376,18523.292C1306.53,18523.292 1297.676,18518.85 1291.924,18511.744C1290.18,18509.589 1288.724,18507.191 1287.623,18504.606C1287.04,18503.24 1286.275,18501.97 1285.353,18500.831C1282.669,18497.516 1278.63,18495.292 1274.037,18495.292C1269.533,18495.292 1265.561,18497.431 1262.879,18500.638C1261.886,18501.826 1261.066,18503.162 1260.45,18504.606C1259.285,18507.342 1257.722,18509.869 1255.84,18512.119C1250.081,18519.006 1241.368,18523.292 1231.697,18523.292C1221.851,18523.292 1212.998,18518.85 1207.245,18511.744C1205.501,18509.589 1204.045,18507.191 1202.944,18504.606C1202.362,18503.24 1201.596,18501.97 1200.674,18500.831C1197.991,18497.516 1193.951,18495.292 1189.358,18495.292C1184.855,18495.292 1180.882,18497.431 1178.2,18500.638C1177.207,18501.826 1176.387,18503.162 1175.772,18504.606C1174.606,18507.342 1173.043,18509.869 1171.162,18512.119C1165.402,18519.006 1156.69,18523.292 1147.018,18523.292C1137.172,18523.292 1128.319,18518.85 1122.566,18511.744C1120.822,18509.589 1119.366,18507.191 1118.265,18504.606C1117.683,18503.24 1116.917,18501.97 1115.996,18500.831C1113.312,18497.516 1109.272,18495.292 1104.679,18495.292C1100.176,18495.292 1096.203,18497.431 1093.521,18500.638C1092.528,18501.826 1091.708,18503.162 1091.093,18504.606C1089.927,18507.342 1088.364,18509.869 1086.483,18512.119C1080.723,18519.006 1072.011,18523.292 1062.339,18523.292C1052.494,18523.292 1043.64,18518.85 1037.887,18511.744C1036.143,18509.589 1034.688,18507.191 1033.586,18504.606Z" style="fill:rgb(0,101,139);"/>
                </g>
                <g id="wolf" transform="matrix(0.478955,0,0,0.616573,-20709.233768,-6935.309392)">
                    <path d="M30719.996,13711.686L31071.141,13711.686L31071.141,13757.877C31119.811,13744.863 31165.95,13738.338 31206.564,13738.199L31289.897,13737.913L31291.39,14172.513C31306.041,14158.181 31324.252,14139.677 31353.405,14115.948C31368.456,14103.697 31369.879,14160.038 31369.879,14160.038C31399.979,14154.23 31421.603,14013.768 31436.836,13894.163C31440.636,13864.323 31469.704,13904.265 31469.704,13904.265C31479.159,13906.864 31471.244,13738.313 31461.584,13697.802C31429.99,13565.304 31412.921,13483.08 31471.638,13322.428C31486.261,13282.418 31590.077,13121.224 31566.761,13102.194C31554.302,13092.025 31522.045,13120.569 31501.393,13140.674C31520.117,13101.623 31529.809,12953.104 31448.163,12969.563C31424.469,12974.34 31344.385,13130.378 31323.323,13127.14C31252.176,13116.203 31201.665,13184.552 31201.665,13184.552C31191.977,13199.023 31059.328,13211.592 31042.007,13236.68C31034.291,13247.856 31090.595,13269.684 31090.595,13269.684C31066.726,13266.622 31004.59,13300.264 31008.315,13318.279C31011.863,13335.436 31080.133,13371.583 31080.133,13371.583C31047.405,13453.429 30995.934,13496.576 30924.38,13544.521C30916.465,13549.824 30990.081,13550.794 30990.081,13550.794C30990.081,13550.794 30911.895,13583.844 30863.25,13590.082C30854.525,13591.2 30938.994,13610.228 30938.994,13610.228C30890.615,13665.276 30798.599,13684.523 30719.996,13711.686ZM29733.646,13711.686L29733.645,13192.071C29719.192,13211.823 29705.806,13231.899 29693.608,13251.685C29689.944,13257.627 29682.24,13212.906 29682.24,13212.906C29636.869,13268.26 29610.352,13404.105 29607.731,13493.899C29607.497,13501.912 29578.068,13467.015 29578.068,13467.015C29580.608,13532.901 29605.908,13617.876 29631.177,13673.191C29635.949,13683.637 29642.984,13696.881 29651.977,13711.686L29733.646,13711.686ZM30293.733,13077.572L30293.733,13395.287C30358.482,13440.178 30419.853,13522.945 30456.261,13650.169C30494.791,13518.867 30493.303,13413.645 30467.853,13330.141C30463.063,13314.426 30488.082,13322.813 30488.082,13322.813C30474.242,13287.926 30414.953,13214.001 30388.285,13189.152C30366.962,13169.284 30347.333,13148.63 30324.853,13132.312C30314.878,13125.072 30364.426,13116.885 30364.426,13116.885C30343.538,13103.09 30319.426,13089.87 30293.733,13077.572Z" style="fill:rgb(0,101,139);"/>
                </g>
                <g id="tr" transform="matrix(0.478955,0,0,0.616573,-23033.355808,-4102.170117)">
                    <path d="M35446.868,9200.043L35446.868,10227.29L35840.289,10227.29L35840.289,9832.963C35840.289,9774.594 35880.869,9727.169 35923.735,9690.368C35969.147,9651.381 36020.829,9620.111 36060.684,9619.974L36059.333,9226.555C35996.586,9226.771 35918.806,9245.462 35840.289,9281.438L35840.289,9200.043L35446.868,9200.043ZM35062.882,7695.444L34669.461,7695.444L34669.461,9200.043L34399.307,9200.043L34399.307,9593.464L34669.461,9593.464C34669.461,9860.39 34671.265,10030.848 34750.057,10119.968C34858.752,10242.91 35085.007,10225.71 35393.749,10225.71L35393.749,9832.289C35036.117,9832.289 35062.882,9847.135 35062.882,9593.464L35390.732,9593.464L35390.732,9200.043L35062.882,9200.043L35062.882,7695.444Z" style="fill:rgb(0,29,44);"/>
                </g>
            </g>
        </g>
    </g>
</svg>
