<?xml version="1.0" encoding="UTF-8" standalone="no"?>
<svg
   width="100%"
   height="100%"
   viewBox="0 0 2137 791"
   version="1.1"
   xml:space="preserve"
   style="fill-rule:evenodd;clip-rule:evenodd;stroke-linejoin:round;stroke-miterlimit:2;"
   id="svg62"
   sodipodi:docname="trale_icon_extended.svg"
   inkscape:version="1.2 (dc2aedaf03, 2022-05-15)"
   xmlns:inkscape="http://www.inkscape.org/namespaces/inkscape"
   xmlns:sodipodi="http://sodipodi.sourceforge.net/DTD/sodipodi-0.dtd"
   xmlns="http://www.w3.org/2000/svg"
   xmlns:svg="http://www.w3.org/2000/svg"><defs
   id="defs66" /><sodipodi:namedview
   id="namedview64"
   pagecolor="#ffffff"
   bordercolor="#666666"
   borderopacity="1.0"
   inkscape:showpageshadow="2"
   inkscape:pageopacity="0.0"
   inkscape:pagecheckerboard="0"
   inkscape:deskcolor="#d1d1d1"
   showgrid="false"
   inkscape:zoom="0.44438203"
   inkscape:cx="628.96333"
   inkscape:cy="228.40708"
   inkscape:window-width="1920"
   inkscape:window-height="1139"
   inkscape:window-x="26"
   inkscape:window-y="23"
   inkscape:window-maximized="0"
   inkscape:current-layer="icon" />
    <g
   transform="matrix(1,0,0,1,-4051.04,-5810.68)"
   id="g60"
   inkscape:label="canvas">
        
        
        
    <g
   id="icon"
   transform="matrix(1.8045271,0,0,1.5920968,3800.7479,5559.9258)"
   style="fill-rule:evenodd;clip-rule:evenodd;stroke-linejoin:round;stroke-miterlimit:2">
                    
                    
                    
                <path
   id="path47"
   style="fill-rule:evenodd;clip-rule:evenodd;stroke-linejoin:round;stroke-miterlimit:2;fill:rgb(208, 228, 255)"
   inkscape:label="icon"
   d="M 34555.801 8021.2785 C 34351.001 8021.2785 34184.699 8187.5475 34184.699 8392.3473 L 34184.699 10185.601 C 34184.699 10390.401 34351.001 10556.702 34555.801 10556.702 L 36349.303 10556.702 C 36554.103 10556.702 36720.398 10390.401 36720.398 10185.601 L 36720.398 8392.3473 C 36720.398 8187.5475 36554.103 8021.2785 36349.303 8021.2785 L 35062.9 8021.2785 L 35062.9 9200.0386 L 35390.702 9200.0386 L 35390.702 9593.458 L 35062.9 9593.458 C 35062.9 9847.1377 35036.098 9832.2908 35393.698 9832.2908 L 35393.698 10225.697 C 35084.998 10225.697 34858.801 10242.902 34750.101 10120.002 C 34671.301 10030.802 34669.5 9860.3877 34669.5 9593.458 L 34399.301 9593.458 L 34399.301 9200.0386 L 34669.5 9200.0386 L 34669.5 8021.2785 L 34555.801 8021.2785 z M 35446.903 9200.0386 L 35840.303 9200.0386 L 35840.303 9281.4375 C 35918.803 9245.4575 35996.602 9226.7697 36059.302 9226.5597 L 36060.703 9619.9726 C 36020.803 9620.1126 35969.1 9651.3814 35923.7 9690.3713 C 35880.9 9727.1713 35840.303 9774.589 35840.303 9832.9589 L 35840.303 10227.299 L 35446.903 10227.299 L 35446.903 9200.0386 z "
   transform="matrix(0.166875,0,0,0.189141,-5560.3299,-1353.36)" /><path
   d="M30720,13711.7L31071.1,13711.7L31071.1,13757.9C31119.8,13744.9 31166,13738.3 31206.6,13738.2L31289.9,13737.9L31291.4,14172.5C31306,14158.2 31324.3,14139.7 31353.4,14115.9C31368.5,14103.7 31369.9,14160 31369.9,14160C31400,14154.2 31421.6,14013.8 31436.8,13894.2C31440.6,13864.3 31469.7,13904.3 31469.7,13904.3C31479.2,13906.9 31471.2,13738.3 31461.6,13697.8C31430,13565.3 31412.9,13483.1 31471.6,13322.4C31486.3,13282.4 31590.1,13121.2 31566.8,13102.2C31554.3,13092 31522,13120.6 31501.4,13140.7C31520.1,13101.6 31529.8,12953.1 31448.2,12969.6C31424.5,12974.3 31344.4,13130.4 31323.3,13127.1C31252.2,13116.2 31201.7,13184.6 31201.7,13184.6C31192,13199 31059.3,13211.6 31042,13236.7C31034.3,13247.9 31090.6,13269.7 31090.6,13269.7C31066.7,13266.6 31004.6,13300.3 31008.3,13318.3C31011.9,13335.4 31080.1,13371.6 31080.1,13371.6C31047.4,13453.4 30995.9,13496.6 30924.4,13544.5C30916.5,13549.8 30990.1,13550.8 30990.1,13550.8C30990.1,13550.8 30911.9,13583.8 30863.2,13590.1C30854.5,13591.2 30939,13610.2 30939,13610.2C30890.6,13665.3 30798.6,13684.5 30720,13711.7ZM29733.6,13711.7L29733.6,13192.1C29719.2,13211.8 29705.8,13231.9 29693.6,13251.7C29689.9,13257.6 29682.2,13212.9 29682.2,13212.9C29636.9,13268.3 29610.4,13404.1 29607.7,13493.9C29607.5,13501.9 29578.1,13467 29578.1,13467C29580.6,13532.9 29605.9,13617.9 29631.2,13673.2C29635.9,13683.6 29643,13696.9 29652,13711.7L29733.6,13711.7ZM30293.7,13077.6L30293.7,13395.3C30358.5,13440.2 30419.9,13522.9 30456.3,13650.2C30494.8,13518.9 30493.3,13413.6 30467.9,13330.1C30463.1,13314.4 30488.1,13322.8 30488.1,13322.8C30474.2,13287.9 30415,13214 30388.3,13189.2C30367,13169.3 30347.3,13148.6 30324.9,13132.3C30314.9,13125.1 30364.4,13116.9 30364.4,13116.9C30343.5,13103.1 30319.4,13089.9 30293.7,13077.6Z"
   style="fill-rule:evenodd;clip-rule:evenodd;stroke-linejoin:round;stroke-miterlimit:2;fill:rgb(67, 71, 78)"
   id="path50"
   transform="matrix(0.166875,0,0,0.189141,-4750.58,-2222.46)"
   inkscape:label="wolf" /></g><g
   id="slogan"
   transform="matrix(0.72474544,0,0,0.97681003,4907.5438,5820.6897)"
   style="fill-rule:evenodd;clip-rule:evenodd;stroke-linejoin:round;stroke-miterlimit:2;display:inline">
                    
                    
                    
                    
                    
                    
                    
                    
                    
                <path
   d="m 5810.73,5537.16 c -0.7,-1.08 -1.03,-2.23 -0.97,-3.47 0.07,-1.22 0.77,-2.28 2.1,-3.15 0.87,-0.63 1.86,-0.9 2.97,-0.81 1.1,0.08 2.13,0.62 3.09,1.62 2.29,2.75 4.95,4.94 7.97,6.56 3.02,1.63 6.68,2.44 10.97,2.44 2,-0.04 4.01,-0.36 6.03,-0.97 2.02,-0.6 3.72,-1.62 5.09,-3.06 1.38,-1.44 2.07,-3.36 2.07,-5.78 0,-2.33 -0.71,-4.2 -2.13,-5.6 -1.42,-1.39 -3.26,-2.53 -5.53,-3.4 -2.27,-0.88 -4.72,-1.65 -7.34,-2.31 -2.75,-0.75 -5.46,-1.6 -8.13,-2.54 -2.67,-0.93 -5.06,-2.13 -7.19,-3.59 -2.12,-1.46 -3.83,-3.29 -5.12,-5.5 -1.29,-2.21 -1.94,-4.91 -1.94,-8.12 0,-3.71 1.02,-6.94 3.06,-9.69 2.05,-2.75 4.78,-4.89 8.22,-6.41 3.44,-1.52 7.22,-2.28 11.35,-2.28 2.29,0 4.7,0.28 7.25,0.84 2.54,0.57 5.02,1.5 7.43,2.79 2.42,1.29 4.55,3.04 6.38,5.25 0.79,0.87 1.22,1.92 1.28,3.15 0.06,1.23 -0.49,2.35 -1.66,3.35 -0.87,0.66 -1.87,0.96 -3,0.9 -1.12,-0.06 -2.06,-0.47 -2.81,-1.22 -1.79,-2.12 -4,-3.75 -6.62,-4.87 -2.63,-1.13 -5.52,-1.69 -8.69,-1.69 -2,0 -3.96,0.3 -5.88,0.91 -1.91,0.6 -3.52,1.59 -4.81,2.97 -1.29,1.37 -1.94,3.27 -1.94,5.68 0.09,2.25 0.85,4.08 2.28,5.47 1.44,1.4 3.37,2.55 5.79,3.44 2.41,0.9 5.08,1.74 8,2.53 2.62,0.67 5.17,1.45 7.65,2.34 2.48,0.9 4.71,2.06 6.69,3.47 1.98,1.42 3.56,3.22 4.75,5.41 1.19,2.19 1.78,4.95 1.78,8.28 0,3.88 -1.09,7.2 -3.28,9.97 -2.19,2.77 -5.04,4.89 -8.56,6.34 -3.52,1.46 -7.33,2.19 -11.41,2.19 -4.62,0 -9.17,-0.86 -13.62,-2.59 -4.46,-1.73 -8.32,-4.68 -11.57,-8.85 z m 158.44,-56.06 c 4.25,0 8.08,0.46 11.5,1.38 3.42,0.91 6.13,2.16 8.13,3.75 2,1.58 3,3.37 3,5.37 0,1.13 -0.37,2.19 -1.1,3.19 -0.73,1 -1.74,1.5 -3.03,1.5 -1.12,0 -2.04,-0.22 -2.75,-0.66 -0.71,-0.44 -1.37,-0.98 -2,-1.62 -0.62,-0.65 -1.48,-1.24 -2.56,-1.78 -1,-0.54 -2.46,-0.99 -4.38,-1.35 -1.91,-0.35 -3.85,-0.53 -5.81,-0.53 -4.54,0 -8.55,1.09 -12.03,3.25 -3.48,2.17 -6.21,5.09 -8.19,8.75 -1.98,3.67 -2.97,7.84 -2.97,12.5 0,4.67 0.96,8.84 2.88,12.53 1.92,3.69 4.58,6.61 8,8.75 3.42,2.15 7.37,3.22 11.87,3.22 2.92,0 5.24,-0.24 6.97,-0.72 1.73,-0.48 3.2,-1.05 4.41,-1.72 1.46,-0.83 2.58,-1.66 3.37,-2.5 0.8,-0.83 1.88,-1.25 3.25,-1.25 1.42,0 2.51,0.45 3.28,1.35 0.77,0.89 1.16,2.01 1.16,3.34 0,1.54 -1.04,3.15 -3.12,4.81 -2.09,1.67 -4.9,3.08 -8.44,4.22 -3.54,1.15 -7.54,1.72 -12,1.72 -6.33,0 -11.88,-1.48 -16.63,-4.44 -4.75,-2.95 -8.43,-6.98 -11.06,-12.09 -2.62,-5.1 -3.94,-10.84 -3.94,-17.22 0,-6.33 1.36,-12.04 4.07,-17.12 2.7,-5.09 6.48,-9.13 11.31,-12.13 4.83,-3 10.44,-4.5 16.81,-4.5 z m -51.12,26.88 v -1 c -0.3,-3.42 -1.42,-6.36 -3.38,-8.82 -1.96,-2.45 -4.34,-4.35 -7.16,-5.68 -2.81,-1.34 -5.76,-2 -8.84,-2 -2.5,0 -4.98,0.45 -7.44,1.34 -2.45,0.9 -4.66,2.31 -6.62,4.25 -1.96,1.94 -3.53,4.45 -4.72,7.53 -1.19,3.09 -1.78,6.81 -1.78,11.19 0,4.79 0.98,9.03 2.94,12.72 1.95,3.68 4.68,6.58 8.18,8.68 3.5,2.11 7.57,3.16 12.19,3.16 2.96,0 5.52,-0.36 7.69,-1.09 2.17,-0.73 4.03,-1.67 5.59,-2.82 1.56,-1.14 2.89,-2.3 3.97,-3.46 1.08,-0.75 2.15,-1.13 3.19,-1.13 1.21,0 2.22,0.43 3.03,1.28 0.81,0.86 1.22,1.85 1.22,2.97 0,1.42 -0.67,2.69 -2,3.81 -2.38,2.59 -5.55,4.85 -9.53,6.78 -3.98,1.94 -8.24,2.91 -12.78,2.91 -6.67,0 -12.5,-1.41 -17.5,-4.22 -5,-2.81 -8.89,-6.7 -11.66,-11.69 -2.77,-4.97 -4.16,-10.71 -4.16,-17.21 0,-7.25 1.44,-13.43 4.32,-18.54 2.87,-5.1 6.61,-9.01 11.21,-11.75 4.61,-2.72 9.49,-4.09 14.66,-4.09 3.88,0 7.59,0.72 11.16,2.16 3.56,1.43 6.73,3.51 9.5,6.22 2.77,2.71 4.99,5.95 6.65,9.71 1.67,3.78 2.55,8.02 2.63,12.72 -0.04,1.34 -0.56,2.45 -1.56,3.35 -1,0.89 -2.17,1.34 -3.5,1.34 h -49.38 l -2.25,-8.62 z m 246.25,0 v -1 c -0.3,-3.42 -1.42,-6.36 -3.38,-8.82 -1.96,-2.45 -4.34,-4.35 -7.16,-5.68 -2.81,-1.34 -5.76,-2 -8.84,-2 -2.5,0 -4.98,0.45 -7.44,1.34 -2.45,0.9 -4.66,2.31 -6.62,4.25 -1.96,1.94 -3.53,4.45 -4.72,7.53 -1.19,3.09 -1.78,6.81 -1.78,11.19 0,4.79 0.98,9.03 2.94,12.72 1.95,3.68 4.68,6.58 8.18,8.68 3.5,2.11 7.57,3.16 12.19,3.16 2.96,0 5.52,-0.36 7.69,-1.09 2.17,-0.73 4.03,-1.67 5.59,-2.82 1.56,-1.14 2.89,-2.3 3.97,-3.46 1.08,-0.75 2.15,-1.13 3.19,-1.13 1.21,0 2.22,0.43 3.03,1.28 0.81,0.86 1.22,1.85 1.22,2.97 0,1.42 -0.67,2.69 -2,3.81 -2.38,2.59 -5.55,4.85 -9.53,6.78 -3.98,1.94 -8.24,2.91 -12.78,2.91 -6.67,0 -12.5,-1.41 -17.5,-4.22 -5,-2.81 -8.89,-6.7 -11.66,-11.69 -2.77,-4.97 -4.16,-10.71 -4.16,-17.21 0,-7.25 1.44,-13.43 4.32,-18.54 2.87,-5.1 6.61,-9.01 11.21,-11.75 4.61,-2.72 9.49,-4.09 14.66,-4.09 3.88,0 7.59,0.72 11.16,2.16 3.56,1.43 6.73,3.51 9.5,6.22 2.77,2.71 4.99,5.95 6.65,9.71 1.67,3.78 2.55,8.02 2.63,12.72 -0.04,1.34 -0.56,2.45 -1.56,3.35 -1,0.89 -2.17,1.34 -3.5,1.34 h -49.38 l -2.25,-8.62 z m -110.75,-25.25 c 1.45,0 2.65,0.49 3.59,1.46 0.94,0.99 1.41,2.18 1.41,3.6 v 34.06 c 0,8.46 -2.37,14.99 -7.1,19.59 -4.73,4.61 -11.28,6.91 -19.65,6.91 -8.34,0 -14.86,-2.3 -19.57,-6.91 -4.7,-4.6 -7.06,-11.13 -7.06,-19.59 v -34.06 c 0,-1.42 0.48,-2.61 1.44,-3.6 0.96,-0.97 2.14,-1.46 3.56,-1.46 1.46,0 2.66,0.49 3.59,1.46 0.94,0.99 1.41,2.18 1.41,3.6 v 34.06 c 0,5.71 1.45,10.01 4.34,12.91 2.9,2.89 6.99,4.34 12.29,4.34 5.37,0 9.51,-1.45 12.4,-4.34 2.9,-2.9 4.35,-7.2 4.35,-12.91 v -34.06 c 0,-1.42 0.46,-2.61 1.4,-3.6 0.94,-0.97 2.14,-1.46 3.6,-1.46 z m 32,13.74 c 0.33,-0.81 0.7,-1.61 1.12,-2.4 1.29,-2.44 2.94,-4.63 4.94,-6.59 2,-1.96 4.3,-3.51 6.9,-4.66 2.61,-1.14 5.45,-1.72 8.54,-1.72 1.83,0 3.51,0.44 5.03,1.31 1.52,0.88 2.28,2.11 2.28,3.69 0,1.75 -0.46,3.05 -1.38,3.91 -0.91,0.85 -1.95,1.28 -3.12,1.28 -1.04,0 -2.06,-0.24 -3.06,-0.72 -1,-0.48 -2.25,-0.72 -3.75,-0.72 -2.09,0 -4.16,0.58 -6.22,1.72 -2.07,1.15 -3.95,2.75 -5.66,4.81 -1.71,2.06 -3.07,4.42 -4.09,7.06 -1.02,2.65 -1.53,5.45 -1.53,8.41 v 30.44 c 0,1.42 -0.48,2.61 -1.44,3.59 -0.96,0.98 -2.15,1.47 -3.56,1.47 -1.46,0 -2.66,-0.49 -3.6,-1.47 -0.94,-0.98 -1.4,-2.17 -1.4,-3.59 v -54.5 c 0,-1.42 0.48,-2.61 1.43,-3.6 0.96,-0.97 2.15,-1.46 3.57,-1.46 1.45,0 2.65,0.49 3.59,1.46 0.94,0.99 1.41,2.18 1.41,3.6 z m -167.5,11.51 h 2 l -2,1.81 z m 246.25,0 h 2 l -2,1.81 z"
   style="fill-rule:nonzero;clip-rule:evenodd;stroke-linejoin:round;stroke-miterlimit:2;display:inline;fill:#0161a3"
   id="path42"
   transform="matrix(1.37979,0,0,1.02374,-6771.4,-4924.9)"
   inkscape:label="secure" /><path
   d="m 1184.98,769.768 c 0,1.45 -0.66,2.677 -1.98,3.679 -1.32,1.003 -2.99,1.504 -5,1.504 -1.96,0 -3.58,-0.501 -4.87,-1.504 -1.3,-1.002 -1.95,-2.229 -1.95,-3.679 V 658.18 c 0,-1.45 0.67,-2.676 1.99,-3.679 1.32,-1.002 2.99,-1.503 5,-1.503 2.01,0 3.65,0.501 4.92,1.503 1.26,1.003 1.89,2.229 1.89,3.679 z"
   style="fill-rule:nonzero;clip-rule:evenodd;stroke-linejoin:round;stroke-miterlimit:2;display:inline;fill:#43474e"
   id="path40"
   inkscape:label="bar" /><path
   d="m 5515.17,5538.21 c -1.08,1.6 -2.37,3.05 -3.87,4.33 -2.25,1.92 -4.85,3.4 -7.79,4.47 -2.93,1.06 -6.13,1.59 -9.59,1.59 -4.79,0 -8.83,-1.02 -12.12,-3.06 -3.3,-2.04 -5.79,-4.86 -7.47,-8.47 -1.69,-3.6 -2.53,-7.78 -2.53,-12.53 v -37.75 c 0,-1.42 0.46,-2.61 1.4,-3.6 0.94,-0.97 2.14,-1.46 3.6,-1.46 1.45,0 2.65,0.49 3.59,1.46 0.94,0.99 1.41,2.18 1.41,3.6 v 35.5 c 0,5.67 1.25,9.93 3.75,12.78 2.5,2.86 6.37,4.28 11.62,4.28 3.33,0 6.34,-0.75 9.03,-2.25 2.69,-1.5 4.85,-3.55 6.47,-6.16 1.63,-2.6 2.44,-5.48 2.44,-8.65 v -35.5 c 0,-1.42 0.47,-2.61 1.4,-3.6 0.94,-0.97 2.14,-1.46 3.6,-1.46 1.46,0 2.65,0.49 3.59,1.46 0.94,0.99 1.41,2.18 1.41,3.6 v 54.44 c 0,7.04 -1.37,12.86 -4.1,17.46 -2.73,4.61 -6.4,8.04 -11.03,10.29 -4.62,2.25 -9.85,3.37 -15.68,3.37 -3.25,0 -6.39,-0.33 -9.41,-1 -3.02,-0.66 -5.49,-1.54 -7.41,-2.62 -1.54,-0.75 -2.63,-1.68 -3.28,-2.79 -0.64,-1.1 -0.74,-2.28 -0.28,-3.53 0.54,-1.54 1.39,-2.59 2.53,-3.15 1.15,-0.57 2.33,-0.57 3.53,-0.03 1.38,0.62 3.33,1.45 5.85,2.46 2.52,1.03 5.38,1.54 8.59,1.54 4.33,0 8.04,-0.83 11.13,-2.47 3.08,-1.65 5.45,-4.08 7.12,-7.32 1.67,-3.22 2.5,-7.21 2.5,-11.96 z m -144.69,-1.05 c -0.7,-1.08 -1.03,-2.23 -0.97,-3.47 0.07,-1.22 0.77,-2.28 2.1,-3.15 0.87,-0.63 1.86,-0.9 2.97,-0.81 1.1,0.08 2.13,0.62 3.09,1.62 2.29,2.75 4.95,4.94 7.97,6.56 3.02,1.63 6.68,2.44 10.97,2.44 2,-0.04 4.01,-0.36 6.03,-0.97 2.02,-0.6 3.72,-1.62 5.09,-3.06 1.38,-1.44 2.07,-3.36 2.07,-5.78 0,-2.33 -0.71,-4.2 -2.13,-5.6 -1.42,-1.39 -3.26,-2.53 -5.53,-3.4 -2.27,-0.88 -4.72,-1.65 -7.34,-2.31 -2.75,-0.75 -5.46,-1.6 -8.13,-2.54 -2.67,-0.93 -5.06,-2.13 -7.19,-3.59 -2.12,-1.46 -3.83,-3.29 -5.12,-5.5 -1.29,-2.21 -1.94,-4.91 -1.94,-8.12 0,-3.71 1.02,-6.94 3.06,-9.69 2.05,-2.75 4.78,-4.89 8.22,-6.41 3.44,-1.52 7.22,-2.28 11.35,-2.28 2.29,0 4.7,0.28 7.25,0.84 2.54,0.57 5.02,1.5 7.43,2.79 2.42,1.29 4.55,3.04 6.38,5.25 0.79,0.87 1.22,1.92 1.28,3.15 0.06,1.23 -0.49,2.35 -1.66,3.35 -0.87,0.66 -1.87,0.96 -3,0.9 -1.12,-0.06 -2.06,-0.47 -2.81,-1.22 -1.79,-2.12 -4,-3.75 -6.62,-4.87 -2.63,-1.13 -5.52,-1.69 -8.69,-1.69 -2,0 -3.96,0.3 -5.88,0.91 -1.91,0.6 -3.52,1.59 -4.81,2.97 -1.29,1.37 -1.94,3.27 -1.94,5.68 0.09,2.25 0.85,4.08 2.28,5.47 1.44,1.4 3.37,2.55 5.79,3.44 2.41,0.9 5.08,1.74 8,2.53 2.62,0.67 5.17,1.45 7.65,2.34 2.48,0.9 4.71,2.06 6.69,3.47 1.98,1.42 3.56,3.22 4.75,5.41 1.19,2.19 1.78,4.95 1.78,8.28 0,3.88 -1.09,7.2 -3.28,9.97 -2.19,2.77 -5.04,4.89 -8.56,6.34 -3.52,1.46 -7.33,2.19 -11.41,2.19 -4.62,0 -9.17,-0.86 -13.62,-2.59 -4.46,-1.73 -8.32,-4.68 -11.57,-8.85 z m 220.63,0 c -0.71,-1.08 -1.03,-2.23 -0.97,-3.47 0.06,-1.22 0.76,-2.28 2.09,-3.15 0.88,-0.63 1.87,-0.9 2.97,-0.81 1.11,0.08 2.14,0.62 3.1,1.62 2.29,2.75 4.94,4.94 7.96,6.56 3.02,1.63 6.68,2.44 10.97,2.44 2,-0.04 4.01,-0.36 6.03,-0.97 2.02,-0.6 3.72,-1.62 5.1,-3.06 1.37,-1.44 2.06,-3.36 2.06,-5.78 0,-2.33 -0.71,-4.2 -2.12,-5.6 -1.42,-1.39 -3.27,-2.53 -5.54,-3.4 -2.27,-0.88 -4.71,-1.65 -7.34,-2.31 -2.75,-0.75 -5.46,-1.6 -8.12,-2.54 -2.67,-0.93 -5.07,-2.13 -7.19,-3.59 -2.13,-1.46 -3.83,-3.29 -5.13,-5.5 -1.29,-2.21 -1.93,-4.91 -1.93,-8.12 0,-3.71 1.02,-6.94 3.06,-9.69 2.04,-2.75 4.78,-4.89 8.22,-6.41 3.43,-1.52 7.22,-2.28 11.34,-2.28 2.29,0 4.71,0.28 7.25,0.84 2.54,0.57 5.02,1.5 7.44,2.79 2.42,1.29 4.54,3.04 6.37,5.25 0.8,0.87 1.22,1.92 1.28,3.15 0.07,1.23 -0.48,2.35 -1.65,3.35 -0.88,0.66 -1.88,0.96 -3,0.9 -1.13,-0.06 -2.06,-0.47 -2.81,-1.22 -1.8,-2.12 -4,-3.75 -6.63,-4.87 -2.62,-1.13 -5.52,-1.69 -8.69,-1.69 -2,0 -3.95,0.3 -5.87,0.91 -1.92,0.6 -3.52,1.59 -4.81,2.97 -1.3,1.37 -1.94,3.27 -1.94,5.68 0.08,2.25 0.84,4.08 2.28,5.47 1.44,1.4 3.36,2.55 5.78,3.44 2.42,0.9 5.08,1.74 8,2.53 2.63,0.67 5.18,1.45 7.66,2.34 2.48,0.9 4.7,2.06 6.68,3.47 1.98,1.42 3.57,3.22 4.75,5.41 1.19,2.19 1.79,4.95 1.79,8.28 0,3.88 -1.1,7.2 -3.29,9.97 -2.18,2.77 -5.04,4.89 -8.56,6.34 -3.52,1.46 -7.32,2.19 -11.4,2.19 -4.63,0 -9.17,-0.86 -13.63,-2.59 -4.46,-1.73 -8.31,-4.68 -11.56,-8.85 z m -38.13,5.13 c 0,1.42 -0.49,2.61 -1.47,3.59 -0.98,0.98 -2.17,1.47 -3.59,1.47 -1.42,0 -2.59,-0.49 -3.53,-1.47 -0.94,-0.98 -1.41,-2.17 -1.41,-3.59 v -82.38 c 0,-1.41 0.49,-2.61 1.47,-3.59 0.98,-0.98 2.18,-1.47 3.6,-1.47 1.45,0 2.64,0.49 3.56,1.47 0.92,0.98 1.37,2.18 1.37,3.59 z m 25.69,-0.06 c 0,1.41 -0.48,2.62 -1.44,3.62 -0.95,1 -2.14,1.5 -3.56,1.5 -1.5,0 -2.71,-0.5 -3.62,-1.5 -0.92,-1 -1.38,-2.21 -1.38,-3.62 v -55.5 c 0,-1.42 0.48,-2.61 1.44,-3.57 0.96,-0.95 2.14,-1.43 3.56,-1.43 1.42,0 2.61,0.48 3.56,1.43 0.96,0.96 1.44,2.15 1.44,3.57 z M 5437.8,5483.1 v -11.94 c 0,-1.41 0.48,-2.61 1.46,-3.59 0.98,-0.98 2.18,-1.47 3.6,-1.47 1.46,0 2.64,0.49 3.56,1.47 0.92,0.98 1.38,2.18 1.38,3.59 v 11.94 h 11.31 c 1.33,0 2.45,0.46 3.34,1.38 0.9,0.91 1.35,2.02 1.35,3.31 0,1.29 -0.45,2.37 -1.35,3.25 -0.89,0.87 -2.01,1.31 -3.34,1.31 h -11.31 v 39.19 c 0,1.96 0.29,3.45 0.87,4.47 0.58,1.02 1.34,1.71 2.28,2.06 0.94,0.36 1.89,0.53 2.85,0.53 0.79,0 1.5,-0.13 2.12,-0.41 0.63,-0.26 1.36,-0.4 2.19,-0.4 0.87,0 1.65,0.39 2.34,1.15 0.69,0.78 1.03,1.79 1.03,3.04 0,1.54 -0.87,2.82 -2.62,3.84 -1.75,1.02 -3.71,1.53 -5.88,1.53 -1.12,0 -2.54,-0.08 -4.25,-0.25 -1.7,-0.16 -3.39,-0.71 -5.06,-1.62 -1.67,-0.92 -3.06,-2.43 -4.19,-4.54 -1.12,-2.1 -1.68,-5.09 -1.68,-8.96 v -39.63 h -8 c -1.3,0 -2.4,-0.46 -3.32,-1.37 -0.91,-0.92 -1.37,-2.02 -1.37,-3.32 0,-1.29 0.46,-2.37 1.37,-3.25 0.92,-0.87 2.02,-1.31 3.32,-1.31 z m 225.12,10.64 c 0.06,-0.1 0.13,-0.2 0.19,-0.3 1.42,-2.18 3.22,-4.16 5.4,-5.93 2.19,-1.77 4.62,-3.18 7.29,-4.22 2.66,-1.04 5.43,-1.56 8.31,-1.56 5.5,0 9.85,1.18 13.06,3.56 3.21,2.37 5.51,5.55 6.91,9.53 1.39,3.98 2.09,8.39 2.09,13.22 v 34.25 c 0,1.42 -0.48,2.61 -1.44,3.59 -0.95,0.98 -2.14,1.47 -3.56,1.47 -1.46,0 -2.66,-0.49 -3.59,-1.47 -0.94,-0.98 -1.41,-2.17 -1.41,-3.59 v -34.25 c 0,-3.17 -0.46,-6.03 -1.37,-8.6 -0.92,-2.56 -2.44,-4.61 -4.57,-6.15 -2.12,-1.54 -5.04,-2.31 -8.75,-2.31 -3.37,0 -6.48,0.77 -9.31,2.31 -2.83,1.54 -5.08,3.59 -6.75,6.15 -1.67,2.57 -2.5,5.43 -2.5,8.6 v 34.25 c 0,1.42 -0.48,2.61 -1.44,3.59 -0.95,0.98 -2.14,1.47 -3.56,1.47 -1.46,0 -2.66,-0.49 -3.59,-1.47 -0.94,-0.98 -1.41,-2.17 -1.41,-3.59 v -82.38 c 0,-1.41 0.48,-2.61 1.44,-3.59 0.96,-0.98 2.14,-1.47 3.56,-1.47 1.46,0 2.66,0.49 3.59,1.47 0.94,0.98 1.41,2.18 1.41,3.59 z m -89.25,-20.26 c -2.08,0 -3.62,-0.42 -4.62,-1.25 -1,-0.84 -1.5,-2.13 -1.5,-3.88 v -1.75 c 0,-1.75 0.54,-3.04 1.62,-3.87 1.08,-0.84 2.63,-1.25 4.63,-1.25 2,0 3.5,0.41 4.5,1.25 1,0.83 1.5,2.12 1.5,3.87 v 1.75 c 0,1.75 -0.52,3.04 -1.57,3.88 -1.04,0.83 -2.56,1.25 -4.56,1.25 z"
   style="fill-rule:nonzero;clip-rule:evenodd;stroke-linejoin:round;stroke-miterlimit:2;display:inline;fill:#0161a3"
   id="path36"
   inkscape:label="stylish"
   transform="matrix(1.37979,0,0,1.02374,-6771.4,-4924.9)" /><path
   d="m 577.53,769.768 c 0,1.45 -0.662,2.677 -1.984,3.679 -1.322,1.003 -2.989,1.504 -5.002,1.504 -1.954,0 -3.578,-0.501 -4.872,-1.504 -1.294,-1.002 -1.94,-2.229 -1.94,-3.679 V 658.18 c 0,-1.45 0.661,-2.676 1.983,-3.679 1.322,-1.002 2.99,-1.503 5.002,-1.503 2.012,0 3.651,0.501 4.915,1.503 1.265,1.003 1.898,2.229 1.898,3.679 z"
   style="fill-rule:nonzero;clip-rule:evenodd;stroke-linejoin:round;stroke-miterlimit:2;display:inline;fill:#43474e"
   id="path34"
   inkscape:label="bar" /><path
   d="m 5124.3,5493.23 c 0.35,-0.58 0.75,-1.16 1.18,-1.72 1.46,-1.9 3.25,-3.58 5.38,-5.07 2.12,-1.47 4.49,-2.63 7.09,-3.46 2.61,-0.84 5.33,-1.25 8.16,-1.25 5.71,0 10.8,1.42 15.28,4.28 4.48,2.85 8.03,6.77 10.66,11.75 2.62,4.98 3.93,10.72 3.93,17.22 0,6.46 -1.31,12.2 -3.93,17.21 -2.63,5.03 -6.17,8.97 -10.63,11.85 -4.46,2.87 -9.48,4.31 -15.06,4.31 -3.04,0 -5.93,-0.47 -8.66,-1.41 -2.73,-0.93 -5.19,-2.18 -7.37,-3.75 -2.19,-1.56 -4.03,-3.31 -5.53,-5.25 -0.18,-0.22 -0.34,-0.44 -0.5,-0.66 v 30.01 c 0,1.42 -0.47,2.61 -1.41,3.59 -0.94,0.98 -2.14,1.47 -3.59,1.47 -1.42,0 -2.61,-0.48 -3.57,-1.44 -0.95,-0.95 -1.43,-2.16 -1.43,-3.62 v -79.88 c 0,-1.41 0.46,-2.61 1.4,-3.59 0.94,-0.98 2.14,-1.47 3.6,-1.47 1.45,0 2.65,0.49 3.59,1.47 0.94,0.98 1.41,2.18 1.41,3.59 z m -211.19,43.93 c -0.71,-1.08 -1.03,-2.23 -0.97,-3.47 0.06,-1.22 0.76,-2.28 2.09,-3.15 0.88,-0.63 1.87,-0.9 2.97,-0.81 1.11,0.08 2.14,0.62 3.1,1.62 2.29,2.75 4.94,4.94 7.96,6.56 3.02,1.63 6.68,2.44 10.97,2.44 2,-0.04 4.01,-0.36 6.03,-0.97 2.02,-0.6 3.72,-1.62 5.1,-3.06 1.37,-1.44 2.06,-3.36 2.06,-5.78 0,-2.33 -0.71,-4.2 -2.12,-5.6 -1.42,-1.39 -3.27,-2.53 -5.54,-3.4 -2.27,-0.88 -4.71,-1.65 -7.34,-2.31 -2.75,-0.75 -5.46,-1.6 -8.12,-2.54 -2.67,-0.93 -5.07,-2.13 -7.19,-3.59 -2.13,-1.46 -3.83,-3.29 -5.13,-5.5 -1.29,-2.21 -1.93,-4.91 -1.93,-8.12 0,-3.71 1.02,-6.94 3.06,-9.69 2.04,-2.75 4.78,-4.89 8.22,-6.41 3.43,-1.52 7.22,-2.28 11.34,-2.28 2.29,0 4.71,0.28 7.25,0.84 2.54,0.57 5.02,1.5 7.44,2.79 2.42,1.29 4.54,3.04 6.37,5.25 0.8,0.87 1.22,1.92 1.28,3.15 0.07,1.23 -0.48,2.35 -1.65,3.35 -0.88,0.66 -1.88,0.96 -3,0.9 -1.13,-0.06 -2.06,-0.47 -2.81,-1.22 -1.8,-2.12 -4,-3.75 -6.63,-4.87 -2.62,-1.13 -5.52,-1.69 -8.69,-1.69 -2,0 -3.95,0.3 -5.87,0.91 -1.92,0.6 -3.52,1.59 -4.81,2.97 -1.3,1.37 -1.94,3.27 -1.94,5.68 0.08,2.25 0.84,4.08 2.28,5.47 1.44,1.4 3.36,2.55 5.78,3.44 2.42,0.9 5.08,1.74 8,2.53 2.63,0.67 5.18,1.45 7.66,2.34 2.48,0.9 4.7,2.06 6.68,3.47 1.98,1.42 3.57,3.22 4.75,5.41 1.19,2.19 1.79,4.95 1.79,8.28 0,3.88 -1.1,7.2 -3.29,9.97 -2.18,2.77 -5.04,4.89 -8.56,6.34 -3.52,1.46 -7.32,2.19 -11.4,2.19 -4.63,0 -9.17,-0.86 -13.63,-2.59 -4.46,-1.73 -8.31,-4.68 -11.56,-8.85 z m 346.81,-29.18 v -1 c -0.29,-3.42 -1.42,-6.36 -3.37,-8.82 -1.96,-2.45 -4.35,-4.35 -7.16,-5.68 -2.81,-1.34 -5.76,-2 -8.84,-2 -2.5,0 -4.98,0.45 -7.44,1.34 -2.46,0.9 -4.67,2.31 -6.63,4.25 -1.95,1.94 -3.53,4.45 -4.72,7.53 -1.18,3.09 -1.78,6.81 -1.78,11.19 0,4.79 0.98,9.03 2.94,12.72 1.96,3.68 4.69,6.58 8.19,8.68 3.5,2.11 7.56,3.16 12.19,3.16 2.95,0 5.52,-0.36 7.68,-1.09 2.17,-0.73 4.03,-1.67 5.6,-2.82 1.56,-1.14 2.88,-2.3 3.97,-3.46 1.08,-0.75 2.14,-1.13 3.18,-1.13 1.21,0 2.22,0.43 3.03,1.28 0.82,0.86 1.22,1.85 1.22,2.97 0,1.42 -0.66,2.69 -2,3.81 -2.37,2.59 -5.55,4.85 -9.53,6.78 -3.98,1.94 -8.24,2.91 -12.78,2.91 -6.67,0 -12.5,-1.41 -17.5,-4.22 -5,-2.81 -8.89,-6.7 -11.66,-11.69 -2.77,-4.97 -4.15,-10.71 -4.15,-17.21 0,-7.25 1.44,-13.43 4.31,-18.54 2.88,-5.1 6.61,-9.01 11.22,-11.75 4.6,-2.72 9.49,-4.09 14.66,-4.09 3.87,0 7.59,0.72 11.15,2.16 3.56,1.43 6.73,3.51 9.5,6.22 2.77,2.71 4.99,5.95 6.66,9.71 1.67,3.78 2.54,8.02 2.62,12.72 -0.04,1.34 -0.56,2.45 -1.56,3.35 -1,0.89 -2.17,1.34 -3.5,1.34 h -46.39 c -0.15,-2.9 0.01,-5.78 0.53,-8.62 z m -60.31,34.31 c 0,1.42 -0.49,2.61 -1.47,3.59 -0.98,0.98 -2.18,1.47 -3.59,1.47 -1.42,0 -2.6,-0.49 -3.54,-1.47 -0.93,-0.98 -1.4,-2.17 -1.4,-3.59 v -82.38 c 0,-1.41 0.49,-2.61 1.47,-3.59 0.98,-0.98 2.17,-1.47 3.59,-1.47 1.46,0 2.65,0.49 3.56,1.47 0.92,0.98 1.38,2.18 1.38,3.59 z m -215.06,-0.06 c 0,1.41 -0.48,2.62 -1.44,3.62 -0.96,1 -2.15,1.5 -3.56,1.5 -1.5,0 -2.71,-0.5 -3.63,-1.5 -0.92,-1 -1.37,-2.21 -1.37,-3.62 v -55.5 c 0,-1.42 0.48,-2.61 1.43,-3.57 0.96,-0.95 2.15,-1.43 3.57,-1.43 1.41,0 2.6,0.48 3.56,1.43 0.96,0.96 1.44,2.15 1.44,3.57 z m 67.09,-46.78 c 1.05,-2.13 2.68,-4.19 4.87,-6.19 2.4,-2.19 5.18,-3.99 8.35,-5.41 3.17,-1.41 6.46,-2.12 9.87,-2.12 5.5,0 9.85,1.18 13.03,3.56 3.19,2.37 5.46,5.54 6.82,9.5 1.35,3.96 2.03,8.4 2.03,13.31 v 34.19 c 0,1.42 -0.47,2.61 -1.41,3.59 -0.94,0.98 -2.13,1.47 -3.59,1.47 -1.46,0 -2.66,-0.49 -3.6,-1.47 -0.93,-0.98 -1.4,-2.17 -1.4,-3.59 v -33.94 c 0,-3.21 -0.47,-6.12 -1.41,-8.75 -0.94,-2.62 -2.48,-4.72 -4.62,-6.28 -2.15,-1.56 -5.05,-2.34 -8.72,-2.34 -3.38,0 -6.48,0.78 -9.31,2.34 -2.84,1.56 -5.09,3.66 -6.75,6.28 -1.67,2.63 -2.5,5.54 -2.5,8.75 v 33.94 c 0,1.42 -0.47,2.61 -1.41,3.59 -0.94,0.98 -2.14,1.47 -3.59,1.47 -1.46,0 -2.66,-0.49 -3.6,-1.47 -0.94,-0.98 -1.4,-2.17 -1.4,-3.59 v -34.25 c 0,-3.17 -0.45,-6.03 -1.35,-8.6 -0.89,-2.56 -2.38,-4.61 -4.47,-6.15 -2.08,-1.54 -4.93,-2.31 -8.56,-2.31 -3.33,0 -6.39,0.77 -9.16,2.31 -2.77,1.54 -4.98,3.59 -6.62,6.15 -1.65,2.57 -2.47,5.43 -2.47,8.6 v 34.25 c 0,1.42 -0.48,2.61 -1.44,3.59 -0.95,0.98 -2.14,1.47 -3.56,1.47 -1.46,0 -2.66,-0.49 -3.59,-1.47 -0.94,-0.98 -1.41,-2.17 -1.41,-3.59 v -54.5 c 0,-1.42 0.48,-2.61 1.44,-3.6 0.96,-0.97 2.14,-1.46 3.56,-1.46 1.46,0 2.66,0.49 3.59,1.46 0.94,0.99 1.41,2.18 1.41,3.6 v 5.68 c 1.35,-2.08 3.05,-3.98 5.09,-5.71 2.15,-1.82 4.57,-3.27 7.25,-4.38 2.69,-1.1 5.54,-1.65 8.54,-1.65 5.66,0 10.26,1.43 13.78,4.31 2.87,2.35 4.97,5.48 6.31,9.41 z m 93.41,-4.47 c -4.21,0 -7.91,1.04 -11.1,3.12 -3.19,2.09 -5.69,4.92 -7.5,8.5 -1.81,3.59 -2.72,7.71 -2.72,12.38 0,4.58 0.91,8.71 2.72,12.37 1.81,3.67 4.31,6.54 7.5,8.63 3.19,2.08 6.89,3.12 11.1,3.12 4.16,0 7.83,-1.04 11,-3.12 3.16,-2.09 5.66,-4.96 7.5,-8.63 1.83,-3.66 2.75,-7.79 2.75,-12.37 0,-4.63 -0.92,-8.74 -2.75,-12.35 -1.84,-3.6 -4.34,-6.44 -7.5,-8.53 -3.17,-2.08 -6.84,-3.12 -11,-3.12 z m 114.87,17 h 2 l -2,1.81 z m -280.37,-34.5 c -2.09,0 -3.63,-0.42 -4.63,-1.25 -1,-0.84 -1.5,-2.13 -1.5,-3.88 v -1.75 c 0,-1.75 0.54,-3.04 1.63,-3.87 1.08,-0.84 2.62,-1.25 4.62,-1.25 2,0 3.5,0.41 4.5,1.25 1,0.83 1.5,2.12 1.5,3.87 v 1.75 c 0,1.75 -0.52,3.04 -1.56,3.88 -1.04,0.83 -2.56,1.25 -4.56,1.25 z"
   style="fill-rule:nonzero;clip-rule:evenodd;stroke-linejoin:round;stroke-miterlimit:2;display:inline;fill:#0161a3"
   id="path30"
   inkscape:label="simple"
   transform="matrix(1.37979,0,0,1.02374,-6771.4,-4924.9)" /><path
   id="path18"
   style="fill-rule:nonzero;clip-rule:evenodd;stroke-linejoin:round;stroke-miterlimit:2;display:inline;fill:#43474e"
   d="m 4922.8007,5288.1905 c -1.42,0 -2.6216,0.489 -3.6016,1.459 -0.98,0.98 -1.4687,2.1796 -1.4687,3.5996 v 82.3711 c 0,1.42 0.4701,2.6196 1.4101,3.5996 0.94,0.97 2.1094,1.4707 3.5294,1.4707 1.42,0 2.6098,-0.5007 3.5898,-1.4707 0.98,-0.98 1.4707,-2.1796 1.4707,-3.5996 v -82.3711 c 0,-1.42 -0.4511,-2.6196 -1.3711,-3.5996 -0.92,-0.97 -2.1086,-1.459 -3.5586,-1.459 z m 163.4303,0 c -1.45,0 -2.6518,0.489 -3.5918,1.459 -0.94,0.98 -1.4082,2.1796 -1.4082,3.5996 v 82.3711 c 0,1.42 0.4682,2.6196 1.4082,3.5996 0.94,0.97 2.1418,1.4707 3.5918,1.4707 1.46,0 2.6596,-0.5007 3.5996,-1.4707 0.93,-0.98 1.3984,-2.1796 1.3984,-3.5996 v -16.9297 l 8.3204,-7.2598 25.8712,27.5098 c 1.04,1.12 2.2694,1.6797 3.6894,1.6797 1,0 2.0893,-0.4398 3.2793,-1.3398 1.19,-0.9 1.7813,-2.0899 1.7813,-3.5899 0,-1.42 -0.5206,-2.67 -1.5606,-3.75 l -25.3594,-27.2305 23.42,-20.4609 c 1.29,-1.13 1.9394,-2.38 1.9394,-3.75 0,-1.13 -0.4794,-2.21 -1.4394,-3.25 -0.96,-1.04 -2.0811,-1.5586 -3.3711,-1.5586 -1.34,0 -2.5203,0.5186 -3.5703,1.5586 l -33.0002,29.4102 v -53.4102 c 0,-1.42 -0.4684,-2.6196 -1.3984,-3.5996 -0.94,-0.97 -2.1396,-1.459 -3.5996,-1.459 z m 656.0687,0 c -1.42,0 -2.6104,0.489 -3.5704,1.459 -0.95,0.98 -1.4296,2.1796 -1.4296,3.5996 v 82.3711 c 0,1.42 0.4603,2.6196 1.4003,3.5996 0.94,0.97 2.1397,1.4707 3.5997,1.4707 1.41,0 2.6005,-0.5007 3.5605,-1.4707 0.96,-0.98 1.4395,-2.1796 1.4395,-3.5996 v -34.25 c 0,-3.16 0.83,-6.0299 2.5,-8.5899 1.66,-2.56 3.91,-4.6201 6.75,-6.1601 2.83,-1.54 5.9306,-2.3106 9.3106,-2.3106 3.71,0 6.62,0.7706 8.75,2.3106 2.12,1.54 3.6406,3.6001 4.5606,6.1601 0.92,2.56 1.3789,5.4299 1.3789,8.5899 v 34.25 c 0,1.42 0.4604,2.6196 1.4004,3.5996 0.94,0.97 2.1396,1.4707 3.5996,1.4707 1.41,0 2.6006,-0.5007 3.5606,-1.4707 0.96,-0.98 1.4394,-2.1796 1.4394,-3.5996 v -34.25 c 0,-4.83 -0.6996,-9.2407 -2.0996,-13.2207 -1.39,-3.97 -3.7004,-7.1493 -6.9004,-9.5293 -3.21,-2.37 -7.5704,-3.5606 -13.0704,-3.5606 -2.8699,0 -5.6386,0.5206 -8.3086,1.5606 -2.67,1.04 -5.0913,2.4507 -7.2813,4.2207 -2.1899,1.77 -3.9901,3.7494 -5.4101,5.9394 -0.06,0.1 -0.1197,0.1991 -0.1797,0.2891 v -33.8203 c 0,-1.42 -0.4702,-2.6196 -1.4102,-3.5996 -0.94,-0.97 -2.1398,-1.459 -3.5898,-1.459 z m -102.8793,6.6191 c -2,0 -3.5411,0.42 -4.6211,1.25 -1.09,0.83 -1.6289,2.1309 -1.6289,3.8809 v 1.75 c 0,1.75 0.5,3.0391 1.5,3.8691 1,0.83 2.5389,1.25 4.6289,1.25 2,0 3.5206,-0.42 4.5606,-1.25 1.04,-0.83 1.5605,-2.1191 1.5605,-3.8691 v -1.75 c 0,-1.75 -0.5,-3.0509 -1.5,-3.8809 -1,-0.83 -2.5,-1.25 -4.5,-1.25 z m 178.6901,4.6309 c -1.42,0 -2.6196,0.489 -3.5996,1.459 -0.98,0.98 -1.461,2.1796 -1.461,3.5996 v 11.9414 h -8 c -1.3,0 -2.4003,0.4286 -3.3203,1.3086 -0.91,0.87 -1.3692,1.96 -1.3692,3.25 0,1.29 0.4592,2.3905 1.3692,3.3105 0.92,0.92 2.0203,1.3809 3.3203,1.3809 h 8 v 39.6192 c 0,3.88 0.5597,6.8707 1.6797,8.9707 1.13,2.1 2.5195,3.6093 4.1895,4.5293 1.67,0.92 3.3605,1.4608 5.0605,1.6308 1.71,0.16 3.1301,0.25 4.2501,0.25 2.17,0 4.1308,-0.511 5.8808,-1.541 1.75,-1.02 2.6192,-2.2998 2.6192,-3.8398 0,-1.25 -0.3393,-2.2593 -1.0293,-3.0293 -0.69,-0.77 -1.4699,-1.1602 -2.3399,-1.1602 -0.83,0 -1.5614,0.1402 -2.1914,0.4102 -0.62,0.27 -1.3291,0.4101 -2.1191,0.4101 -0.96,0 -1.9096,-0.181 -2.8496,-0.541 -0.94,-0.35 -1.7013,-1.0386 -2.2813,-2.0586 -0.58,-1.02 -0.8691,-2.5107 -0.8691,-4.4707 v -39.1797 h 11.3105 c 1.33,0 2.4499,-0.4403 3.3399,-1.3203 0.9,-0.87 1.3496,-1.96 1.3496,-3.25 0,-1.29 -0.4496,-2.3906 -1.3496,-3.3106 -0.89,-0.92 -2.0099,-1.3691 -3.3399,-1.3691 H 5823.05 v -11.9414 c 0,-1.42 -0.4609,-2.6196 -1.3809,-3.5996 -0.92,-0.97 -2.0986,-1.459 -3.5586,-1.459 z m -847.1905,15 c -6.08,0 -11.5707,1.4491 -16.4707,4.3691 -4.89,2.92 -8.7785,6.92 -11.6485,12 -2.88,5.08 -4.3203,10.8995 -4.3203,17.4395 0,6.5 1.4403,12.2911 4.3203,17.3711 2.87,5.09 6.7585,9.0707 11.6485,11.9707 4.9,2.9 10.3907,4.3496 16.4707,4.3496 6.13,0 11.6301,-1.4496 16.5001,-4.3496 4.88,-2.9 8.7399,-6.8807 11.5899,-11.9707 2.86,-5.08 4.289,-10.8711 4.289,-17.3711 0,-6.54 -1.429,-12.3595 -4.289,-17.4395 -2.85,-5.08 -6.7099,-9.08 -11.5899,-12 -4.87,-2.92 -10.3701,-4.3691 -16.5001,-4.3691 z m 73.3792,0 c -6.38,0 -11.9784,1.5 -16.8184,4.5 -4.83,3 -8.6006,7.0391 -11.3106,12.1191 -2.71,5.08 -4.0606,10.7909 -4.0606,17.1309 0,6.37 1.3095,12.109 3.9395,17.209 2.62,5.11 6.3106,9.1396 11.0606,12.0996 4.75,2.96 10.2911,4.4414 16.6211,4.4414 4.46,0 8.4601,-0.5807 12.0001,-1.7207 3.55,-1.15 6.3595,-2.5607 8.4394,-4.2207 2.08,-1.67 3.129,-3.2686 3.129,-4.8086 0,-1.34 -0.3902,-2.4496 -1.1602,-3.3496 -0.77,-0.9 -1.8593,-1.3418 -3.2793,-1.3418 -1.38,0 -2.46,0.41 -3.25,1.25 -0.79,0.83 -1.9189,1.66 -3.3789,2.5 -1.2,0.66 -2.6704,1.2407 -4.4004,1.7207 -1.73,0.47 -4.0508,0.7207 -6.9708,0.7207 -4.5,0 -8.4589,-1.0807 -11.8789,-3.2207 -3.41,-2.15 -6.08,-5.07 -8,-8.75 -1.91,-3.69 -2.8711,-7.8693 -2.8711,-12.5293 0,-4.67 0.9907,-8.84 2.9707,-12.5 1.98,-3.67 4.6997,-6.59 8.1797,-8.75 3.48,-2.17 7.4891,-3.25 12.0391,-3.25 1.95,0 3.8906,0.1693 5.8106,0.5293 1.92,0.35 3.3711,0.7998 4.3711,1.3398 1.09,0.54 1.9383,1.1313 2.5683,1.7813 0.62,0.65 1.29,1.1889 2,1.6289 0.7,0.43 1.6201,0.6504 2.7501,0.6504 1.2899,0 2.3012,-0.5 3.0312,-1.5 0.73,-1 1.0899,-2.0597 1.0899,-3.1797 0,-2 -1.0001,-3.8009 -3.0001,-5.3809 -1.9999,-1.58 -4.7111,-2.83 -8.1211,-3.75 -3.42,-0.92 -7.25,-1.3691 -11.5,-1.3691 z m 233.2508,0 c -6.09,0 -11.5808,1.4491 -16.4708,4.3691 -4.9,2.92 -8.7802,6.92 -11.6602,12 -2.87,5.08 -4.3086,10.8995 -4.3086,17.4395 0,6.5 1.4386,12.2911 4.3086,17.3711 2.88,5.09 6.7602,9.0707 11.6602,11.9707 4.89,2.9 10.3808,4.3496 16.4708,4.3496 6.12,0 11.6201,-1.4496 16.5001,-4.3496 4.87,-2.9 8.7298,-6.8807 11.5898,-11.9707 2.85,-5.08 4.2794,-10.8711 4.2794,-17.3711 0,-6.54 -1.4294,-12.3595 -4.2794,-17.4395 -2.86,-5.08 -6.7198,-9.08 -11.5898,-12 -4.88,-2.92 -10.3801,-4.3691 -16.5001,-4.3691 z m 147.1197,0 c -3.08,0 -5.9294,0.569 -8.5294,1.709 -2.61,1.15 -4.9102,2.7001 -6.9102,4.6601 -2,1.96 -3.6397,4.1599 -4.9297,6.5899 -0.42,0.79 -0.8008,1.5904 -1.1308,2.4004 v -8.6797 c 0,-1.41 -0.4702,-2.6099 -1.4102,-3.5899 -0.93,-0.98 -2.1298,-1.4707 -3.5898,-1.4707 -1.42,0 -2.5986,0.4907 -3.5586,1.4707 -0.96,0.98 -1.4415,2.1799 -1.4415,3.5899 v 54.5 c 0,1.42 0.4702,2.6196 1.4102,3.5996 0.93,0.97 2.1299,1.4707 3.5899,1.4707 1.42,0 2.6105,-0.5007 3.5605,-1.4707 0.96,-0.98 1.4395,-2.1796 1.4395,-3.5996 v -30.4297 c 0,-2.96 0.5112,-5.7602 1.5312,-8.4102 1.02,-2.65 2.3897,-5.0005 4.0997,-7.0605 1.7,-2.07 3.5904,-3.6703 5.6504,-4.8203 2.06,-1.14 4.1387,-1.709 6.2187,-1.709 1.5,0 2.7501,0.239 3.7501,0.709 1,0.48 2.0205,0.7207 3.0605,0.7207 1.17,0 2.2089,-0.4293 3.1289,-1.2793 0.92,-0.85 1.3711,-2.1504 1.3711,-3.9004 0,-1.59 -0.7593,-2.8214 -2.2793,-3.6914 -1.52,-0.88 -3.2012,-1.3086 -5.0312,-1.3086 z m 167.6294,0 c -5.1699,0 -10.0582,1.3598 -14.6582,4.0898 -4.61,2.73 -8.3408,6.65 -11.2208,11.75 -2.8699,5.1 -4.3105,11.2794 -4.3105,18.5293 0,6.5 1.3804,12.2408 4.1504,17.2208 2.77,4.98 6.6602,8.8694 11.6602,11.6894 5,2.81 10.8301,4.2207 17.5001,4.2207 4.5399,0 8.7993,-0.9701 12.7793,-2.9101 3.98,-1.94 7.1613,-4.2013 9.5313,-6.7813 1.34,-1.13 2,-2.3986 2,-3.8086 0,-1.13 -0.4007,-2.1207 -1.2207,-2.9707 -0.81,-0.86 -1.8193,-1.2793 -3.0293,-1.2793 -1.04,0 -2.1017,0.3692 -3.1817,1.1192 -1.09,1.17 -2.4088,2.3207 -3.9687,3.4707 -1.57,1.15 -3.4297,2.0805 -5.5997,2.8105 -2.16,0.73 -4.7316,1.0996 -7.6816,1.0996 -4.63,0 -8.6895,-1.0601 -12.1895,-3.1601 -3.5,-2.1 -6.2295,-4.9995 -8.1895,-8.6895 -1.7043,-3.2086 -2.6214,-6.8601 -2.8438,-10.9004 h 45.3439 c 1.33,0 2.5,-0.4496 3.5,-1.3496 1,-0.9 1.5206,-2.0118 1.5606,-3.3418 -0.08,-4.71 -0.9511,-8.9488 -2.6211,-12.7188 -1.67,-3.77 -3.8902,-7.0107 -6.6602,-9.7207 -2.77,-2.71 -5.94,-4.7787 -9.5,-6.2187 -3.56,-1.44 -7.2805,-2.1504 -11.1505,-2.1504 z m 94.6215,0 c -5.75,0 -10.9313,1.4398 -15.5313,4.3398 -4.61,2.9 -8.2588,6.8788 -10.9688,11.9688 -2.71,5.08 -4.0606,10.8914 -4.0606,17.4414 0,6.5 1.3506,12.2892 4.0606,17.3692 2.71,5.08 6.3893,9.08 11.0293,12 4.65,2.92 9.8908,4.3808 15.7208,4.3808 2.75,0 5.4702,-0.4403 8.1602,-1.3203 2.68,-0.87 5.1298,-2.0698 7.3398,-3.5898 2.21,-1.52 4.0699,-3.2906 5.5899,-5.3106 0.65,-0.86 1.2002,-1.7404 1.6601,-2.6504 v 7.1211 c 0,6.12 -1.8901,11.029 -5.6601,14.709 -3.77,3.69 -9.1913,5.541 -16.2813,5.541 -2,0 -4.0299,-0.2314 -6.0899,-0.6914 -2.06,-0.46 -3.9,-0.9786 -5.5,-1.5586 -1.61,-0.59 -2.7999,-1 -3.5899,-1.25 -1.84,-0.71 -3.3491,-1.0796 -4.5391,-1.0996 -1.18,-0.02 -2.1709,0.5693 -2.9609,1.7793 -0.63,0.92 -0.8,1.8902 -0.5,2.9102 0.29,1.02 1.0606,1.9698 2.3106,2.8398 0.62,1 2.0994,1.9795 4.4394,2.9395 2.33,0.96 5.0113,1.7601 8.0313,2.4101 3.02,0.64 5.7793,0.9707 8.2793,0.9707 5.96,0 11.3495,-1.1196 16.1895,-3.3496 4.83,-2.23 8.6806,-5.6011 11.5606,-10.1211 2.87,-4.53 4.3106,-10.1993 4.3106,-17.0293 v -54.6914 c 0,-1.46 -0.4702,-2.6689 -1.4102,-3.6289 -0.93,-0.96 -2.1298,-1.4297 -3.5898,-1.4297 -1.46,0 -2.6599,0.489 -3.5899,1.459 -0.94,0.98 -1.4102,2.1796 -1.4102,3.5996 v 5.6914 c -1.2399,-1.82 -2.8611,-3.57 -4.8711,-5.25 -2.3,-1.92 -4.9803,-3.4814 -8.0703,-4.6914 -3.08,-1.21 -6.4286,-1.8086 -10.0586,-1.8086 z m -213.9402,0.5 c -1.54,0 -2.7697,0.5 -3.6797,1.5 -0.92,1 -1.3809,2.1786 -1.3809,3.5586 0,0.66 0.1309,1.3505 0.3809,2.0605 l 19.5586,55.4395 c 0.37,1.08 1.0606,1.91 2.0606,2.5 1,0.58 2.0205,0.8114 3.0605,0.6914 2,-0.09 3.459,-1.1514 4.379,-3.1914 l 13.1602,-35.9785 14.4004,35.9785 c 1,2.04 2.4609,3.1014 4.3809,3.1914 1.08,0.12 2.0986,-0.1114 3.0586,-0.6914 0.96,-0.59 1.6405,-1.42 2.0605,-2.5 l 19.2501,-55.4395 c 0.13,-0.29 0.2193,-0.62 0.2793,-1 0.06,-0.37 0.1016,-0.7305 0.1016,-1.0605 0,-1.54 -0.4907,-2.7695 -1.4707,-3.6895 -0.98,-0.92 -2.1202,-1.3691 -3.4102,-1.3691 -2.46,0 -4.04,1.0597 -4.75,3.1797 l -15.4005,45.0703 -13.5996,-33.4414 c -0.37,-1 -0.9192,-1.7686 -1.6192,-2.3086 -0.71,-0.55 -1.6503,-0.8203 -2.8203,-0.8203 -2.2,0 -3.7511,1.0389 -4.6211,3.1289 l -13.1895,33.9102 -15.6192,-45.5391 c -0.34,-1.08 -0.92,-1.8804 -1.75,-2.4004 -0.84,-0.53 -1.7703,-0.7793 -2.8203,-0.7793 z m -288.4307,0.1191 c -1.46,0 -2.6596,0.4907 -3.5996,1.4707 -0.94,0.98 -1.4004,2.1799 -1.4004,3.5899 v 37.75 c 0,4.75 0.8412,8.9293 2.5312,12.5293 1.68,3.61 4.1688,6.4307 7.4688,8.4707 3.29,2.04 7.3311,3.0703 12.1211,3.0703 3.46,0 6.6599,-0.5396 9.5899,-1.5996 2.94,-1.06 5.5391,-2.5507 7.7891,-4.4707 1.5,-1.28 2.7911,-2.7203 3.8711,-4.3203 v 3.2598 c 0,4.75 -0.83,8.7407 -2.5,11.9707 -1.67,3.23 -4.0411,5.6605 -7.1211,7.3105 -3.09,1.65 -6.799,2.4688 -11.129,2.4688 -3.21,0 -6.0698,-0.5093 -8.5898,-1.5293 -2.52,-1.02 -4.4716,-1.8407 -5.8516,-2.4707 -1.2,-0.54 -2.3793,-0.5288 -3.5293,0.031 -1.14,0.56 -1.9893,1.6182 -2.5293,3.1582 -0.46,1.25 -0.3607,2.4313 0.2793,3.5313 0.65,1.1 1.7393,2.0293 3.2793,2.7793 1.92,1.08 4.3902,1.9608 7.4101,2.6308 3.02,0.66 6.1602,1 9.4102,1 5.83,0 11.0598,-1.1308 15.6798,-3.3808 4.63,-2.25 8.3013,-5.6793 11.0313,-10.2793 2.73,-4.6 4.0996,-10.4307 4.0996,-17.4707 V 5320.12 c 0,-1.41 -0.4702,-2.6099 -1.4102,-3.5899 -0.94,-0.98 -2.1298,-1.4707 -3.5898,-1.4707 -1.46,0 -2.6596,0.4907 -3.5996,1.4707 -0.93,0.98 -1.4004,2.1799 -1.4004,3.5899 v 35.5 c 0,3.17 -0.8095,6.0602 -2.4395,8.6602 -1.62,2.6 -3.7807,4.6601 -6.4707,6.1601 -2.69,1.5 -5.6994,2.25 -9.0294,2.25 -5.25,0 -9.1211,-1.431 -11.6211,-4.291 -2.5,-2.85 -3.75,-7.1093 -3.75,-12.7793 v -35.5 c 0,-1.41 -0.4702,-2.6099 -1.4102,-3.5899 -0.94,-0.98 -2.1398,-1.4707 -3.5898,-1.4707 z m 454.7496,0 c -1.42,0 -2.6084,0.4795 -3.5684,1.4395 -0.95,0.96 -1.4316,2.1405 -1.4316,3.5605 v 55.5001 c 0,1.42 0.4511,2.6308 1.3711,3.6308 0.92,1 2.1289,1.5 3.6289,1.5 1.41,0 2.6006,-0.5 3.5606,-1.5 0.96,-1 1.4394,-2.2108 1.4394,-3.6308 v -55.5001 c 0,-1.42 -0.4794,-2.6005 -1.4394,-3.5605 -0.96,-0.96 -2.1506,-1.4395 -3.5606,-1.4395 z m -311.4991,1 c -1.42,0 -2.6104,0.4907 -3.5703,1.4707 -0.95,0.98 -1.4297,2.1799 -1.4297,3.5899 v 34.0703 c 0,8.45 2.3505,14.9899 7.0605,19.5899 4.71,4.6 11.2287,6.9101 19.5587,6.9101 8.38,0 14.9302,-2.3101 19.6602,-6.9101 4.73,-4.6 7.0899,-11.1399 7.0899,-19.5899 v -34.0703 c 0,-1.41 -0.4702,-2.6099 -1.4102,-3.5899 -0.93,-0.98 -2.1298,-1.4707 -3.5898,-1.4707 -1.46,0 -2.6599,0.4907 -3.5899,1.4707 -0.94,0.98 -1.4101,2.1799 -1.4101,3.5899 v 34.0703 c 0,5.7 -1.4499,10.0004 -4.3399,12.9004 -2.9,2.9 -7.0302,4.3496 -12.4102,4.3496 -5.29,0 -9.3894,-1.4496 -12.2793,-4.3496 -2.9,-2.9 -4.3399,-7.2004 -4.3399,-12.9004 v -34.0703 c 0,-1.41 -0.4702,-2.6099 -1.4102,-3.5899 -0.94,-0.98 -2.1398,-1.4707 -3.5898,-1.4707 z m -356.8802,7.6309 c 4.25,0 8.0595,1.0504 11.4395,3.1504 3.37,2.1 6.04,4.9882 8,8.6582 1.96,3.66 2.9415,7.91 2.9415,12.75 0,4.75 -0.9815,8.9611 -2.9415,12.6211 -1.96,3.67 -4.63,6.5602 -8,8.6602 -3.38,2.1 -7.1895,3.1601 -11.4395,3.1601 -4.21,0 -8.0102,-1.0601 -11.4102,-3.1601 -3.39,-2.1 -6.0805,-4.9902 -8.0605,-8.6602 -1.98,-3.66 -2.9688,-7.8711 -2.9688,-12.6211 0,-4.84 0.9888,-9.09 2.9688,-12.75 1.98,-3.67 4.6705,-6.5582 8.0605,-8.6582 3.4,-2.1 7.2002,-3.1504 11.4102,-3.1504 z m 306.63,0 c 4.25,0 8.0597,1.0504 11.4297,3.1504 3.38,2.1 6.0501,4.9882 8.0001,8.6582 1.96,3.66 2.9394,7.91 2.9394,12.75 0,4.75 -0.9794,8.9611 -2.9394,12.6211 -1.95,3.67 -4.6201,6.5602 -8.0001,8.6602 -3.37,2.1 -7.1797,3.1601 -11.4297,3.1601 -4.21,0 -8.0202,-1.0601 -11.4102,-3.1601 -3.4,-2.1 -6.0806,-4.9902 -8.0606,-8.6602 -1.98,-3.66 -2.9687,-7.8711 -2.9687,-12.6211 0,-4.84 0.9887,-9.09 2.9687,-12.75 1.98,-3.67 4.6606,-6.5582 8.0606,-8.6582 3.39,-2.1 7.2002,-3.1504 11.4102,-3.1504 z m 410.6792,0 c 4.34,0 8.17,1.0391 11.5,3.1191 3.34,2.08 5.9609,4.9702 7.8809,8.6602 1.92,3.68 2.8691,7.9207 2.8691,12.7207 0,4.75 -0.9491,8.9604 -2.8691,12.6504 -1.92,3.69 -4.5409,6.5895 -7.8809,8.6895 -3.33,2.1 -7.16,3.1601 -11.5,3.1601 -4.29,0 -8.1088,-1.0807 -11.4688,-3.2207 -3.35,-2.15 -5.9811,-5.0793 -7.8711,-8.7793 -1.9,-3.71 -2.8399,-7.88 -2.8399,-12.5 0,-4.71 0.9399,-8.9096 2.8399,-12.5996 1.89,-3.69 4.5211,-6.5907 7.8711,-8.7207 3.36,-2.12 7.1788,-3.1797 11.4688,-3.1797 z m -95.9301,0.1191 c 3.08,0 6.0319,0.67 8.8419,2 2.81,1.33 5.1982,3.2295 7.1582,5.6895 1.95,2.46 3.0811,5.3905 3.3711,8.8105 v 1 h -39.34 c 0.2916,-1.5688 0.6709,-3.0411 1.1797,-4.3691 1.19,-3.09 2.7707,-5.601 4.7207,-7.541 1.96,-1.93 4.169,-3.35 6.629,-4.25 2.46,-0.89 4.9394,-1.3399 7.4394,-1.3399 z"
   inkscape:label="subtitle"
   transform="matrix(1.37979,0,0,1.02374,-6771.4,-4924.9)" /><path
   d="m 5786.27,4915.69 c 15.24,0.09 29.87,2.96 43.9,8.62 14.25,5.75 26.92,14.04 38,24.88 11.08,10.83 19.96,23.79 26.63,38.87 6.66,15.08 10.16,32.04 10.5,50.88 -0.17,5.33 -2.25,9.79 -6.25,13.37 -4,3.58 -8.67,5.38 -14,5.38 h -191.56 c -0.57,-11.42 -0.02,-22.91 2.09,-34.5 h 167.47 v -4 c -1.17,-13.67 -5.67,-25.42 -13.5,-35.25 -7.84,-9.84 -17.38,-17.42 -28.63,-22.75 -11.25,-5.34 -23.04,-8 -35.37,-8 -10,0 -19.92,1.79 -29.75,5.37 -9.84,3.58 -18.67,9.25 -26.5,17 -7.84,7.75 -14.13,17.79 -18.88,30.13 -4.75,12.33 -7.12,27.25 -7.12,44.75 0,19.16 3.91,36.12 11.75,50.87 7.83,14.75 18.75,26.33 32.75,34.75 14,8.42 30.25,12.63 48.75,12.63 11.83,0 22.08,-1.46 30.75,-4.38 8.66,-2.92 16.12,-6.67 22.37,-11.25 6.25,-4.58 11.54,-9.21 15.88,-13.87 4.33,-3 8.58,-4.5 12.75,-4.5 4.83,0 8.87,1.7 12.12,5.12 3.25,3.42 4.88,7.38 4.88,11.88 0,5.66 -2.67,10.75 -8,15.25 -9.5,10.33 -22.21,19.37 -38.13,27.12 -15.92,7.75 -32.96,11.63 -51.12,11.63 -26.67,0 -50,-5.63 -70,-16.88 -20,-11.25 -35.55,-26.83 -46.63,-46.75 -11.08,-19.92 -16.62,-42.87 -16.62,-68.87 0,-29 5.75,-53.71 17.25,-74.13 11.5,-20.42 26.45,-36.08 44.87,-47 18.42,-10.92 37.96,-16.37 58.63,-16.37 z m -315.22,223.37 c -4.77,7.37 -10.94,14.33 -18.5,20.88 -8.67,7.5 -18.88,13.66 -30.63,18.5 -11.75,4.83 -24.46,7.25 -38.12,7.25 -22.67,0 -43.05,-5.88 -61.13,-17.63 -18.08,-11.75 -32.33,-27.83 -42.75,-48.25 -10.42,-20.42 -15.62,-43.62 -15.62,-69.62 0,-26.34 5.25,-49.59 15.75,-69.75 10.5,-20.17 24.7,-36 42.62,-47.5 17.92,-11.5 37.96,-17.25 60.13,-17.25 14.33,0 27.66,2.37 40,7.12 12.33,4.75 23.08,11.13 32.25,19.13 6.29,5.49 11.63,11.38 16,17.66 v -19.66 c 0,-5.67 1.87,-10.46 5.62,-14.38 3.75,-3.92 8.54,-5.87 14.38,-5.87 5.83,0 10.62,1.91 14.37,5.75 3.75,3.83 5.63,8.66 5.63,14.5 v 220.5 c 0,5.66 -1.92,10.45 -5.75,14.37 -3.84,3.92 -8.59,5.88 -14.25,5.88 -5.84,0 -10.63,-1.96 -14.38,-5.88 -3.75,-3.92 -5.62,-8.71 -5.62,-14.37 z m -504.5,-215.37 v -47.75 c 0,-5.67 1.95,-10.46 5.87,-14.38 3.92,-3.92 8.71,-5.87 14.38,-5.87 5.83,0 10.58,1.95 14.25,5.87 3.66,3.92 5.5,8.71 5.5,14.38 v 47.75 h 45.25 c 5.33,0 9.79,1.83 13.37,5.5 3.58,3.66 5.38,8.08 5.38,13.25 0,5.16 -1.8,9.5 -5.38,13 -3.58,3.5 -8.04,5.25 -13.37,5.25 h -45.25 v 156.75 c 0,7.83 1.16,13.79 3.5,17.87 2.33,4.08 5.37,6.83 9.12,8.25 3.75,1.42 7.54,2.13 11.38,2.13 3.16,0 6,-0.55 8.5,-1.63 2.5,-1.08 5.41,-1.62 8.75,-1.62 3.5,0 6.62,1.54 9.37,4.62 2.75,3.08 4.13,7.13 4.13,12.13 0,6.16 -3.5,11.29 -10.5,15.37 -7,4.08 -14.84,6.13 -23.5,6.13 -4.5,0 -10.17,-0.34 -17,-1 -6.84,-0.67 -13.59,-2.84 -20.25,-6.5 -6.67,-3.67 -12.25,-9.71 -16.75,-18.13 -4.5,-8.42 -6.75,-20.37 -6.75,-35.87 v -158.5 h -32 c -5.17,0 -9.59,-1.84 -13.25,-5.5 -3.67,-3.67 -5.5,-8.09 -5.5,-13.25 0,-5.17 1.83,-9.5 5.5,-13 3.66,-3.5 8.08,-5.25 13.25,-5.25 z m 655.25,236.75 c 0,5.66 -1.96,10.45 -5.88,14.37 -3.92,3.92 -8.71,5.88 -14.37,5.88 -5.67,0 -10.38,-1.96 -14.13,-5.88 -3.75,-3.92 -5.62,-8.71 -5.62,-14.37 v -329.5 c 0,-5.67 1.95,-10.46 5.87,-14.38 3.92,-3.92 8.71,-5.87 14.38,-5.87 5.83,0 10.58,1.95 14.25,5.87 3.66,3.92 5.5,8.71 5.5,14.38 z m -479.25,-183.28 c 1.32,-3.24 2.82,-6.44 4.5,-9.6 5.16,-9.75 11.75,-18.54 19.75,-26.37 8,-7.84 17.2,-14.05 27.62,-18.63 10.42,-4.58 21.79,-6.87 34.13,-6.87 7.33,0 14.04,1.75 20.12,5.25 6.08,3.5 9.13,8.41 9.13,14.75 0,7 -1.84,12.2 -5.5,15.62 -3.67,3.42 -7.84,5.13 -12.5,5.13 -4.17,0 -8.25,-0.96 -12.25,-2.88 -4,-1.92 -9,-2.87 -15,-2.87 -8.34,0 -16.63,2.29 -24.88,6.87 -8.25,4.58 -15.79,11 -22.62,19.25 -6.84,8.25 -12.3,17.67 -16.38,28.25 -4.08,10.58 -6.12,21.79 -6.12,33.63 v 121.75 c 0,5.66 -1.92,10.45 -5.75,14.37 -3.84,3.92 -8.59,5.88 -14.25,5.88 -5.84,0 -10.63,-1.96 -14.38,-5.88 -3.75,-3.92 -5.62,-8.71 -5.62,-14.37 v -218 c 0,-5.67 1.91,-10.46 5.75,-14.38 3.83,-3.92 8.58,-5.87 14.25,-5.87 5.83,0 10.62,1.95 14.37,5.87 3.75,3.92 5.63,8.71 5.63,14.38 z m 245.5,171.53 c 16.66,0 31.41,-4.3 44.25,-12.88 12.83,-8.58 22.87,-20.33 30.12,-35.25 7.25,-14.92 10.88,-31.71 10.88,-50.37 0,-18.34 -3.63,-34.88 -10.88,-49.63 -7.25,-14.75 -17.29,-26.42 -30.12,-35 -12.84,-8.58 -27.59,-12.87 -44.25,-12.87 -16.34,0 -30.92,4.2 -43.75,12.62 -12.84,8.42 -22.92,19.96 -30.25,34.63 -7.34,14.66 -11,31.41 -11,50.25 0,18.66 3.62,35.45 10.87,50.37 7.25,14.92 17.29,26.67 30.13,35.25 12.83,8.58 27.5,12.88 44,12.88 z"
   style="fill-rule:nonzero;clip-rule:evenodd;stroke-linejoin:round;stroke-miterlimit:2;display:inline;fill:#43474e"
   id="path14"
   inkscape:label="title"
   transform="matrix(1.37979,0,0,1.02374,-6771.4,-4924.9)" /></g></g>
</svg>
