<?xml version="1.0" encoding="UTF-8" standalone="no"?>
<!DOCTYPE svg PUBLIC "-//W3C//DTD SVG 1.1//EN" "http://www.w3.org/Graphics/SVG/1.1/DTD/svg11.dtd">
<svg width="100%" height="100%" viewBox="0 0 2137 791" version="1.1" xmlns="http://www.w3.org/2000/svg" xmlns:xlink="http://www.w3.org/1999/xlink" xml:space="preserve" xmlns:serif="http://www.serif.com/" style="fill-rule:evenodd;clip-rule:evenodd;stroke-linejoin:round;stroke-miterlimit:2;">
    <g transform="matrix(1,0,0,1,-4051.04,-5810.68)">
        <g id="Background">
        </g>
        <g id="Smartphone">
        </g>
        <g id="Slogan" transform="matrix(0.593329,0,0,0.439387,8024.04,5585.63)">
            <rect x="-6696.12" y="512.213" width="3600.51" height="1799.86" style="fill:none;"/>
            <clipPath id="_clip1">
                <rect x="-6696.12" y="512.213" width="3600.51" height="1799.86"/>
            </clipPath>
            <g clip-path="url(#_clip1)">
                <g transform="matrix(1.68541,0,0,2.2759,-6776.83,-9459.46)">
                    <g id="Background1" serif:id="Background">
                        <rect x="47.887" y="4381.42" width="3600" height="1800" style="fill:rgb(253,252,255);"/>
                    </g>
                </g>
                <g id="slogan" transform="matrix(1.22149,0,0,2.22312,-5252.56,534.972)">
                    <g transform="matrix(1.37979,0,0,1.02374,-6771.4,-4924.9)">
                        <path d="M5786.27,4915.69C5801.51,4915.78 5816.14,4918.65 5830.17,4924.31C5844.42,4930.06 5857.09,4938.35 5868.17,4949.19C5879.25,4960.02 5888.13,4972.98 5894.8,4988.06C5901.46,5003.14 5904.96,5020.1 5905.3,5038.94C5905.13,5044.27 5903.05,5048.73 5899.05,5052.31C5895.05,5055.89 5890.38,5057.69 5885.05,5057.69L5693.49,5057.69C5692.92,5046.27 5693.47,5034.78 5695.58,5023.19L5863.05,5023.19L5863.05,5019.19C5861.88,5005.52 5857.38,4993.77 5849.55,4983.94C5841.71,4974.1 5832.17,4966.52 5820.92,4961.19C5809.67,4955.85 5797.88,4953.19 5785.55,4953.19C5775.55,4953.19 5765.63,4954.98 5755.8,4958.56C5745.96,4962.14 5737.13,4967.81 5729.3,4975.56C5721.46,4983.31 5715.17,4993.35 5710.42,5005.69C5705.67,5018.02 5703.3,5032.94 5703.3,5050.44C5703.3,5069.6 5707.21,5086.56 5715.05,5101.31C5722.88,5116.06 5733.8,5127.64 5747.8,5136.06C5761.8,5144.48 5778.05,5148.69 5796.55,5148.69C5808.38,5148.69 5818.63,5147.23 5827.3,5144.31C5835.96,5141.39 5843.42,5137.64 5849.67,5133.06C5855.92,5128.48 5861.21,5123.85 5865.55,5119.19C5869.88,5116.19 5874.13,5114.69 5878.3,5114.69C5883.13,5114.69 5887.17,5116.39 5890.42,5119.81C5893.67,5123.23 5895.3,5127.19 5895.3,5131.69C5895.3,5137.35 5892.63,5142.44 5887.3,5146.94C5877.8,5157.27 5865.09,5166.31 5849.17,5174.06C5833.25,5181.81 5816.21,5185.69 5798.05,5185.69C5771.38,5185.69 5748.05,5180.06 5728.05,5168.81C5708.05,5157.56 5692.5,5141.98 5681.42,5122.06C5670.34,5102.14 5664.8,5079.19 5664.8,5053.19C5664.8,5024.19 5670.55,4999.48 5682.05,4979.06C5693.55,4958.64 5708.5,4942.98 5726.92,4932.06C5745.34,4921.14 5764.88,4915.69 5785.55,4915.69L5786.27,4915.69ZM5471.05,5139.06C5466.28,5146.43 5460.11,5153.39 5452.55,5159.94C5443.88,5167.44 5433.67,5173.6 5421.92,5178.44C5410.17,5183.27 5397.46,5185.69 5383.8,5185.69C5361.13,5185.69 5340.75,5179.81 5322.67,5168.06C5304.59,5156.31 5290.34,5140.23 5279.92,5119.81C5269.5,5099.39 5264.3,5076.19 5264.3,5050.19C5264.3,5023.85 5269.55,5000.6 5280.05,4980.44C5290.55,4960.27 5304.75,4944.44 5322.67,4932.94C5340.59,4921.44 5360.63,4915.69 5382.8,4915.69C5397.13,4915.69 5410.46,4918.06 5422.8,4922.81C5435.13,4927.56 5445.88,4933.94 5455.05,4941.94C5461.34,4947.43 5466.68,4953.32 5471.05,4959.6L5471.05,4939.94C5471.05,4934.27 5472.92,4929.48 5476.67,4925.56C5480.42,4921.64 5485.21,4919.69 5491.05,4919.69C5496.88,4919.69 5501.67,4921.6 5505.42,4925.44C5509.17,4929.27 5511.05,4934.1 5511.05,4939.94L5511.05,5160.44C5511.05,5166.1 5509.13,5170.89 5505.3,5174.81C5501.46,5178.73 5496.71,5180.69 5491.05,5180.69C5485.21,5180.69 5480.42,5178.73 5476.67,5174.81C5472.92,5170.89 5471.05,5166.1 5471.05,5160.44L5471.05,5139.06ZM4966.55,4923.69L4966.55,4875.94C4966.55,4870.27 4968.5,4865.48 4972.42,4861.56C4976.34,4857.64 4981.13,4855.69 4986.8,4855.69C4992.63,4855.69 4997.38,4857.64 5001.05,4861.56C5004.71,4865.48 5006.55,4870.27 5006.55,4875.94L5006.55,4923.69L5051.8,4923.69C5057.13,4923.69 5061.59,4925.52 5065.17,4929.19C5068.75,4932.85 5070.55,4937.27 5070.55,4942.44C5070.55,4947.6 5068.75,4951.94 5065.17,4955.44C5061.59,4958.94 5057.13,4960.69 5051.8,4960.69L5006.55,4960.69L5006.55,5117.44C5006.55,5125.27 5007.71,5131.23 5010.05,5135.31C5012.38,5139.39 5015.42,5142.14 5019.17,5143.56C5022.92,5144.98 5026.71,5145.69 5030.55,5145.69C5033.71,5145.69 5036.55,5145.14 5039.05,5144.06C5041.55,5142.98 5044.46,5142.44 5047.8,5142.44C5051.3,5142.44 5054.42,5143.98 5057.17,5147.06C5059.92,5150.14 5061.3,5154.19 5061.3,5159.19C5061.3,5165.35 5057.8,5170.48 5050.8,5174.56C5043.8,5178.64 5035.96,5180.69 5027.3,5180.69C5022.8,5180.69 5017.13,5180.35 5010.3,5179.69C5003.46,5179.02 4996.71,5176.85 4990.05,5173.19C4983.38,5169.52 4977.8,5163.48 4973.3,5155.06C4968.8,5146.64 4966.55,5134.69 4966.55,5119.19L4966.55,4960.69L4934.55,4960.69C4929.38,4960.69 4924.96,4958.85 4921.3,4955.19C4917.63,4951.52 4915.8,4947.1 4915.8,4941.94C4915.8,4936.77 4917.63,4932.44 4921.3,4928.94C4924.96,4925.44 4929.38,4923.69 4934.55,4923.69L4966.55,4923.69ZM5621.8,5160.44C5621.8,5166.1 5619.84,5170.89 5615.92,5174.81C5612,5178.73 5607.21,5180.69 5601.55,5180.69C5595.88,5180.69 5591.17,5178.73 5587.42,5174.81C5583.67,5170.89 5581.8,5166.1 5581.8,5160.44L5581.8,4830.94C5581.8,4825.27 5583.75,4820.48 5587.67,4816.56C5591.59,4812.64 5596.38,4810.69 5602.05,4810.69C5607.88,4810.69 5612.63,4812.64 5616.3,4816.56C5619.96,4820.48 5621.8,4825.27 5621.8,4830.94L5621.8,5160.44ZM5142.55,4977.16C5143.87,4973.92 5145.37,4970.72 5147.05,4967.56C5152.21,4957.81 5158.8,4949.02 5166.8,4941.19C5174.8,4933.35 5184,4927.14 5194.42,4922.56C5204.84,4917.98 5216.21,4915.69 5228.55,4915.69C5235.88,4915.69 5242.59,4917.44 5248.67,4920.94C5254.75,4924.44 5257.8,4929.35 5257.8,4935.69C5257.8,4942.69 5255.96,4947.89 5252.3,4951.31C5248.63,4954.73 5244.46,4956.44 5239.8,4956.44C5235.63,4956.44 5231.55,4955.48 5227.55,4953.56C5223.55,4951.64 5218.55,4950.69 5212.55,4950.69C5204.21,4950.69 5195.92,4952.98 5187.67,4957.56C5179.42,4962.14 5171.88,4968.56 5165.05,4976.81C5158.21,4985.06 5152.75,4994.48 5148.67,5005.06C5144.59,5015.64 5142.55,5026.85 5142.55,5038.69L5142.55,5160.44C5142.55,5166.1 5140.63,5170.89 5136.8,5174.81C5132.96,5178.73 5128.21,5180.69 5122.55,5180.69C5116.71,5180.69 5111.92,5178.73 5108.17,5174.81C5104.42,5170.89 5102.55,5166.1 5102.55,5160.44L5102.55,4942.44C5102.55,4936.77 5104.46,4931.98 5108.3,4928.06C5112.13,4924.14 5116.88,4922.19 5122.55,4922.19C5128.38,4922.19 5133.17,4924.14 5136.92,4928.06C5140.67,4931.98 5142.55,4936.77 5142.55,4942.44L5142.55,4977.16ZM5388.05,5148.69C5404.71,5148.69 5419.46,5144.39 5432.3,5135.81C5445.13,5127.23 5455.17,5115.48 5462.42,5100.56C5469.67,5085.64 5473.3,5068.85 5473.3,5050.19C5473.3,5031.85 5469.67,5015.31 5462.42,5000.56C5455.17,4985.81 5445.13,4974.14 5432.3,4965.56C5419.46,4956.98 5404.71,4952.69 5388.05,4952.69C5371.71,4952.69 5357.13,4956.89 5344.3,4965.31C5331.46,4973.73 5321.38,4985.27 5314.05,4999.94C5306.71,5014.6 5303.05,5031.35 5303.05,5050.19C5303.05,5068.85 5306.67,5085.64 5313.92,5100.56C5321.17,5115.48 5331.21,5127.23 5344.05,5135.81C5356.88,5144.39 5371.55,5148.69 5388.05,5148.69Z" style="fill:rgb(67,71,78);fill-rule:nonzero;"/>
                    </g>
                    <g transform="matrix(1.37979,0,0,1.02374,-6771.4,-4924.9)">
                        <path d="M5044.3,5314.44C5048.55,5314.44 5052.38,5314.89 5055.8,5315.81C5059.21,5316.73 5061.92,5317.98 5063.92,5319.56C5065.92,5321.14 5066.92,5322.94 5066.92,5324.94C5066.92,5326.06 5066.56,5327.12 5065.83,5328.12C5065.1,5329.12 5064.09,5329.62 5062.8,5329.62C5061.67,5329.62 5060.75,5329.4 5060.05,5328.97C5059.34,5328.53 5058.67,5327.99 5058.05,5327.34C5057.42,5326.69 5056.57,5326.1 5055.48,5325.56C5054.48,5325.02 5053.03,5324.57 5051.11,5324.22C5049.19,5323.86 5047.25,5323.69 5045.3,5323.69C5040.75,5323.69 5036.74,5324.77 5033.26,5326.94C5029.78,5329.1 5027.06,5332.02 5025.08,5335.69C5023.1,5339.35 5022.11,5343.52 5022.11,5348.19C5022.11,5352.85 5023.07,5357.03 5024.98,5360.72C5026.9,5364.4 5029.57,5367.32 5032.98,5369.47C5036.4,5371.61 5040.36,5372.69 5044.86,5372.69C5047.78,5372.69 5050.1,5372.44 5051.83,5371.97C5053.56,5371.49 5055.03,5370.91 5056.23,5370.25C5057.69,5369.41 5058.82,5368.58 5059.61,5367.75C5060.4,5366.91 5061.48,5366.5 5062.86,5366.5C5064.28,5366.5 5065.37,5366.94 5066.14,5367.84C5066.91,5368.74 5067.3,5369.85 5067.3,5371.19C5067.3,5372.73 5066.25,5374.33 5064.17,5376C5062.09,5377.66 5059.28,5379.07 5055.73,5380.22C5052.19,5381.36 5048.19,5381.94 5043.73,5381.94C5037.4,5381.94 5031.86,5380.46 5027.11,5377.5C5022.36,5374.54 5018.67,5370.51 5016.05,5365.4C5013.42,5360.3 5012.11,5354.56 5012.11,5348.19C5012.11,5341.85 5013.46,5336.14 5016.17,5331.06C5018.88,5325.98 5022.65,5321.94 5027.48,5318.94C5032.32,5315.94 5037.92,5314.44 5044.3,5314.44ZM5003.3,5348.25C5003.3,5354.75 5001.87,5360.54 4999.01,5365.62C4996.16,5370.71 4992.3,5374.69 4987.42,5377.59C4982.55,5380.49 4977.05,5381.94 4970.92,5381.94C4964.84,5381.94 4959.35,5380.49 4954.45,5377.59C4949.56,5374.69 4945.67,5370.71 4942.8,5365.62C4939.92,5360.54 4938.48,5354.75 4938.48,5348.25C4938.48,5341.71 4939.92,5335.89 4942.8,5330.81C4945.67,5325.73 4949.56,5321.73 4954.45,5318.81C4959.35,5315.89 4964.84,5314.44 4970.92,5314.44C4977.05,5314.44 4982.55,5315.89 4987.42,5318.81C4992.3,5321.73 4996.16,5325.73 4999.01,5330.81C5001.87,5335.89 5003.3,5341.71 5003.3,5348.25ZM4927.73,5375.62C4927.73,5377.04 4927.24,5378.24 4926.26,5379.22C4925.28,5380.19 4924.09,5380.69 4922.67,5380.69C4921.25,5380.69 4920.08,5380.19 4919.14,5379.22C4918.2,5378.24 4917.73,5377.04 4917.73,5375.62L4917.73,5293.25C4917.73,5291.83 4918.22,5290.63 4919.2,5289.65C4920.18,5288.68 4921.38,5288.19 4922.8,5288.19C4924.25,5288.19 4925.44,5288.68 4926.36,5289.65C4927.28,5290.63 4927.73,5291.83 4927.73,5293.25L4927.73,5375.62ZM5091.23,5358.69L5091.23,5375.62C5091.23,5377.04 5090.76,5378.24 5089.83,5379.22C5088.89,5380.19 5087.69,5380.69 5086.23,5380.69C5084.78,5380.69 5083.58,5380.19 5082.64,5379.22C5081.7,5378.24 5081.23,5377.04 5081.23,5375.62L5081.23,5293.25C5081.23,5291.83 5081.7,5290.63 5082.64,5289.65C5083.58,5288.68 5084.78,5288.19 5086.23,5288.19C5087.69,5288.19 5088.89,5288.68 5089.83,5289.65C5090.76,5290.63 5091.23,5291.83 5091.23,5293.25L5091.23,5346.66L5124.23,5317.25C5125.28,5316.21 5126.46,5315.69 5127.8,5315.69C5129.09,5315.69 5130.21,5316.21 5131.17,5317.25C5132.13,5318.29 5132.61,5319.37 5132.61,5320.5C5132.61,5321.87 5131.96,5323.12 5130.67,5324.25L5107.25,5344.71L5132.61,5371.94C5133.65,5373.02 5134.17,5374.27 5134.17,5375.69C5134.17,5377.19 5133.58,5378.38 5132.39,5379.28C5131.2,5380.18 5130.11,5380.62 5129.11,5380.62C5127.69,5380.62 5126.46,5380.06 5125.42,5378.94L5099.55,5351.43L5091.23,5358.69ZM4993.3,5348.25C4993.3,5343.41 4992.32,5339.16 4990.36,5335.5C4988.4,5331.83 4985.73,5328.94 4982.36,5326.84C4978.98,5324.74 4975.17,5323.69 4970.92,5323.69C4966.71,5323.69 4962.91,5324.74 4959.51,5326.84C4956.12,5328.94 4953.43,5331.83 4951.45,5335.5C4949.47,5339.16 4948.48,5343.41 4948.48,5348.25C4948.48,5353 4949.47,5357.21 4951.45,5360.87C4953.43,5364.54 4956.12,5367.43 4959.51,5369.53C4962.91,5371.63 4966.71,5372.69 4970.92,5372.69C4975.17,5372.69 4978.98,5371.63 4982.36,5369.53C4985.73,5367.43 4988.4,5364.54 4990.36,5360.87C4992.32,5357.21 4993.3,5353 4993.3,5348.25Z" style="fill:rgb(67,71,78);fill-rule:nonzero;"/>
                    </g>
                    <g transform="matrix(1.37979,0,0,1.02374,-6771.4,-4924.9)">
                        <path d="M5222.92,5371.55C5221.84,5373.15 5220.55,5374.59 5219.05,5375.87C5216.8,5377.79 5214.2,5379.28 5211.26,5380.34C5208.33,5381.4 5205.13,5381.94 5201.67,5381.94C5196.88,5381.94 5192.84,5380.91 5189.55,5378.87C5186.25,5376.83 5183.76,5374.01 5182.08,5370.4C5180.39,5366.8 5179.55,5362.62 5179.55,5357.87L5179.55,5320.12C5179.55,5318.71 5180.01,5317.51 5180.95,5316.53C5181.89,5315.55 5183.09,5315.06 5184.55,5315.06C5186,5315.06 5187.2,5315.55 5188.14,5316.53C5189.08,5317.51 5189.55,5318.71 5189.55,5320.12L5189.55,5355.62C5189.55,5361.29 5190.8,5365.55 5193.3,5368.4C5195.8,5371.26 5199.67,5372.69 5204.92,5372.69C5208.25,5372.69 5211.26,5371.94 5213.95,5370.44C5216.64,5368.94 5218.8,5366.88 5220.42,5364.28C5222.05,5361.68 5222.86,5358.79 5222.86,5355.62L5222.86,5320.12C5222.86,5318.71 5223.33,5317.51 5224.26,5316.53C5225.2,5315.55 5226.4,5315.06 5227.86,5315.06C5229.32,5315.06 5230.51,5315.55 5231.45,5316.53C5232.39,5317.51 5232.86,5318.71 5232.86,5320.12L5232.86,5374.56C5232.86,5381.6 5231.49,5387.43 5228.76,5392.03C5226.03,5396.63 5222.36,5400.06 5217.73,5402.31C5213.11,5404.56 5207.88,5405.69 5202.05,5405.69C5198.8,5405.69 5195.66,5405.35 5192.64,5404.69C5189.62,5404.02 5187.15,5403.14 5185.23,5402.06C5183.69,5401.31 5182.6,5400.38 5181.95,5399.28C5181.31,5398.18 5181.21,5397 5181.67,5395.75C5182.21,5394.21 5183.06,5393.15 5184.2,5392.59C5185.35,5392.03 5186.53,5392.02 5187.73,5392.56C5189.11,5393.19 5191.06,5394.01 5193.58,5395.03C5196.1,5396.05 5198.96,5396.56 5202.17,5396.56C5206.5,5396.56 5210.21,5395.74 5213.3,5394.09C5216.38,5392.44 5218.75,5390.01 5220.42,5386.78C5222.09,5383.55 5222.92,5379.56 5222.92,5374.81L5222.92,5371.55ZM5309.92,5348.25C5309.92,5354.75 5308.49,5360.54 5305.64,5365.62C5302.78,5370.71 5298.92,5374.69 5294.05,5377.59C5289.17,5380.49 5283.67,5381.94 5277.55,5381.94C5271.46,5381.94 5265.97,5380.49 5261.08,5377.59C5256.18,5374.69 5252.3,5370.71 5249.42,5365.62C5246.55,5360.54 5245.11,5354.75 5245.11,5348.25C5245.11,5341.71 5246.55,5335.89 5249.42,5330.81C5252.3,5325.73 5256.18,5321.73 5261.08,5318.81C5265.97,5315.89 5271.46,5314.44 5277.55,5314.44C5283.67,5314.44 5289.17,5315.89 5294.05,5318.81C5298.92,5321.73 5302.78,5325.73 5305.64,5330.81C5308.49,5335.89 5309.92,5341.71 5309.92,5348.25ZM5371.17,5316.06C5372.63,5316.06 5373.83,5316.55 5374.76,5317.53C5375.7,5318.51 5376.17,5319.71 5376.17,5321.12L5376.17,5355.19C5376.17,5363.64 5373.81,5370.18 5369.08,5374.78C5364.35,5379.38 5357.8,5381.69 5349.42,5381.69C5341.09,5381.69 5334.57,5379.38 5329.86,5374.78C5325.15,5370.18 5322.8,5363.64 5322.8,5355.19L5322.8,5321.12C5322.8,5319.71 5323.28,5318.51 5324.23,5317.53C5325.19,5316.55 5326.38,5316.06 5327.8,5316.06C5329.25,5316.06 5330.45,5316.55 5331.39,5317.53C5332.33,5318.51 5332.8,5319.71 5332.8,5321.12L5332.8,5355.19C5332.8,5360.89 5334.24,5365.19 5337.14,5368.09C5340.03,5370.99 5344.13,5372.44 5349.42,5372.44C5354.8,5372.44 5358.93,5370.99 5361.83,5368.09C5364.72,5365.19 5366.17,5360.89 5366.17,5355.19L5366.17,5321.12C5366.17,5319.71 5366.64,5318.51 5367.58,5317.53C5368.51,5316.55 5369.71,5316.06 5371.17,5316.06ZM5403.17,5329.8C5403.5,5328.99 5403.88,5328.19 5404.3,5327.4C5405.59,5324.97 5407.23,5322.77 5409.23,5320.81C5411.23,5318.85 5413.53,5317.3 5416.14,5316.15C5418.74,5315.01 5421.59,5314.44 5424.67,5314.44C5426.5,5314.44 5428.18,5314.87 5429.7,5315.75C5431.22,5316.62 5431.98,5317.85 5431.98,5319.44C5431.98,5321.19 5431.53,5322.49 5430.61,5323.34C5429.69,5324.19 5428.65,5324.62 5427.48,5324.62C5426.44,5324.62 5425.42,5324.38 5424.42,5323.9C5423.42,5323.43 5422.17,5323.19 5420.67,5323.19C5418.59,5323.19 5416.51,5323.76 5414.45,5324.9C5412.39,5326.05 5410.5,5327.65 5408.8,5329.72C5407.09,5331.78 5405.72,5334.13 5404.7,5336.78C5403.68,5339.43 5403.17,5342.23 5403.17,5345.19L5403.17,5375.62C5403.17,5377.04 5402.69,5378.24 5401.73,5379.22C5400.78,5380.19 5399.59,5380.69 5398.17,5380.69C5396.71,5380.69 5395.51,5380.19 5394.58,5379.22C5393.64,5378.24 5393.17,5377.04 5393.17,5375.62L5393.17,5321.12C5393.17,5319.71 5393.65,5318.51 5394.61,5317.53C5395.57,5316.55 5396.75,5316.06 5398.17,5316.06C5399.63,5316.06 5400.83,5316.55 5401.76,5317.53C5402.7,5318.51 5403.17,5319.71 5403.17,5321.12L5403.17,5329.8ZM5299.92,5348.25C5299.92,5343.41 5298.94,5339.16 5296.98,5335.5C5295.03,5331.83 5292.36,5328.94 5288.98,5326.84C5285.61,5324.74 5281.8,5323.69 5277.55,5323.69C5273.34,5323.69 5269.53,5324.74 5266.14,5326.84C5262.74,5328.94 5260.06,5331.83 5258.08,5335.5C5256.1,5339.16 5255.11,5343.41 5255.11,5348.25C5255.11,5353 5256.1,5357.21 5258.08,5360.87C5260.06,5364.54 5262.74,5367.43 5266.14,5369.53C5269.53,5371.63 5273.34,5372.69 5277.55,5372.69C5281.8,5372.69 5285.61,5371.63 5288.98,5369.53C5292.36,5367.43 5295.03,5364.54 5296.98,5360.87C5298.94,5357.21 5299.92,5353 5299.92,5348.25Z" style="fill:rgb(67,71,78);fill-rule:nonzero;"/>
                    </g>
                    <g transform="matrix(1.37979,0,0,1.02374,-6771.4,-4924.9)">
                        <path d="M5709.92,5369.07C5709.46,5369.98 5708.91,5370.86 5708.26,5371.72C5706.74,5373.74 5704.88,5375.51 5702.67,5377.03C5700.46,5378.55 5698.01,5379.75 5695.33,5380.62C5692.64,5381.5 5689.92,5381.94 5687.17,5381.94C5681.34,5381.94 5676.1,5380.48 5671.45,5377.56C5666.81,5374.64 5663.13,5370.64 5660.42,5365.56C5657.71,5360.48 5656.36,5354.69 5656.36,5348.19C5656.36,5341.64 5657.71,5335.83 5660.42,5330.75C5663.13,5325.66 5666.78,5321.68 5671.39,5318.78C5675.99,5315.88 5681.17,5314.44 5686.92,5314.44C5690.55,5314.44 5693.9,5315.04 5696.98,5316.25C5700.07,5317.46 5702.75,5319.02 5705.05,5320.94C5707.06,5322.62 5708.68,5324.37 5709.92,5326.19L5709.92,5320.5C5709.92,5319.08 5710.39,5317.88 5711.33,5316.9C5712.26,5315.93 5713.46,5315.44 5714.92,5315.44C5716.38,5315.44 5717.58,5315.91 5718.51,5316.87C5719.45,5317.83 5719.92,5319.04 5719.92,5320.5L5719.92,5375.19C5719.92,5382.02 5718.48,5387.69 5715.61,5392.22C5712.73,5396.74 5708.88,5400.11 5704.05,5402.34C5699.21,5404.57 5693.82,5405.69 5687.86,5405.69C5685.36,5405.69 5682.6,5405.36 5679.58,5404.72C5676.56,5404.07 5673.88,5403.27 5671.55,5402.31C5669.21,5401.35 5667.73,5400.37 5667.11,5399.37C5665.86,5398.5 5665.09,5397.55 5664.8,5396.53C5664.5,5395.51 5664.67,5394.54 5665.3,5393.62C5666.09,5392.41 5667.08,5391.82 5668.26,5391.84C5669.45,5391.86 5670.96,5392.23 5672.8,5392.94C5673.59,5393.19 5674.78,5393.6 5676.39,5394.19C5677.99,5394.77 5679.83,5395.29 5681.89,5395.75C5683.95,5396.21 5685.98,5396.44 5687.98,5396.44C5695.07,5396.44 5700.49,5394.59 5704.26,5390.9C5708.03,5387.22 5709.92,5382.31 5709.92,5376.19L5709.92,5369.07ZM5611.67,5341.31L5611.67,5340.31C5611.38,5336.89 5610.25,5333.96 5608.3,5331.5C5606.34,5329.04 5603.95,5327.14 5601.14,5325.81C5598.33,5324.48 5595.38,5323.81 5592.3,5323.81C5589.8,5323.81 5587.32,5324.26 5584.86,5325.15C5582.4,5326.05 5580.19,5327.47 5578.23,5329.4C5576.28,5331.34 5574.7,5333.85 5573.51,5336.94C5572.33,5340.02 5571.73,5343.75 5571.73,5348.12C5571.73,5352.91 5572.71,5357.15 5574.67,5360.84C5576.63,5364.53 5579.36,5367.43 5582.86,5369.53C5586.36,5371.63 5590.42,5372.69 5595.05,5372.69C5598,5372.69 5600.57,5372.32 5602.73,5371.59C5604.9,5370.86 5606.76,5369.93 5608.33,5368.78C5609.89,5367.63 5611.21,5366.48 5612.3,5365.31C5613.38,5364.56 5614.44,5364.19 5615.48,5364.19C5616.69,5364.19 5617.7,5364.61 5618.51,5365.47C5619.33,5366.32 5619.73,5367.31 5619.73,5368.44C5619.73,5369.85 5619.07,5371.12 5617.73,5372.25C5615.36,5374.83 5612.18,5377.09 5608.2,5379.03C5604.22,5380.97 5599.96,5381.94 5595.42,5381.94C5588.75,5381.94 5582.92,5380.53 5577.92,5377.72C5572.92,5374.9 5569.03,5371.01 5566.26,5366.03C5563.49,5361.05 5562.11,5355.31 5562.11,5348.81C5562.11,5341.56 5563.55,5335.38 5566.42,5330.28C5569.3,5325.18 5573.03,5321.26 5577.64,5318.53C5582.24,5315.8 5587.13,5314.44 5592.3,5314.44C5596.17,5314.44 5599.89,5315.15 5603.45,5316.59C5607.01,5318.03 5610.18,5320.1 5612.95,5322.81C5615.72,5325.52 5617.94,5328.76 5619.61,5332.53C5621.28,5336.3 5622.15,5340.54 5622.23,5345.25C5622.19,5346.58 5621.67,5347.69 5620.67,5348.59C5619.67,5349.49 5618.5,5349.94 5617.17,5349.94L5569.78,5349.94C5569.66,5347.06 5569.87,5344.19 5570.31,5341.31L5611.67,5341.31ZM5529.02,5363.19L5544.42,5318.12C5545.13,5316 5546.71,5314.94 5549.17,5314.94C5550.46,5314.94 5551.6,5315.39 5552.58,5316.31C5553.56,5317.23 5554.05,5318.46 5554.05,5320C5554.05,5320.33 5554.01,5320.69 5553.95,5321.06C5553.89,5321.44 5553.8,5321.77 5553.67,5322.06L5534.42,5377.5C5534,5378.58 5533.32,5379.41 5532.36,5380C5531.4,5380.58 5530.38,5380.81 5529.3,5380.69C5527.38,5380.6 5525.92,5379.54 5524.92,5377.5L5510.52,5341.52L5497.36,5377.5C5496.44,5379.54 5494.98,5380.6 5492.98,5380.69C5491.94,5380.81 5490.92,5380.58 5489.92,5380C5488.92,5379.41 5488.23,5378.58 5487.86,5377.5L5468.3,5322.06C5468.05,5321.35 5467.92,5320.66 5467.92,5320C5467.92,5318.62 5468.38,5317.44 5469.3,5316.44C5470.21,5315.44 5471.44,5314.94 5472.98,5314.94C5474.03,5314.94 5474.96,5315.19 5475.8,5315.72C5476.63,5316.24 5477.21,5317.04 5477.55,5318.12L5493.17,5363.66L5506.36,5329.75C5507.23,5327.66 5508.78,5326.62 5510.98,5326.62C5512.15,5326.62 5513.09,5326.89 5513.8,5327.44C5514.5,5327.98 5515.05,5328.75 5515.42,5329.75L5529.02,5363.19ZM5644.3,5375.56C5644.3,5376.98 5643.82,5378.19 5642.86,5379.19C5641.9,5380.19 5640.71,5380.69 5639.3,5380.69C5637.8,5380.69 5636.59,5380.19 5635.67,5379.19C5634.75,5378.19 5634.3,5376.98 5634.3,5375.56L5634.3,5320.06C5634.3,5318.64 5634.78,5317.46 5635.73,5316.5C5636.69,5315.54 5637.88,5315.06 5639.3,5315.06C5640.71,5315.06 5641.9,5315.54 5642.86,5316.5C5643.82,5317.46 5644.3,5318.64 5644.3,5320.06L5644.3,5375.56ZM5813.05,5316.44L5813.05,5304.5C5813.05,5303.08 5813.53,5301.88 5814.51,5300.9C5815.49,5299.93 5816.69,5299.44 5818.11,5299.44C5819.57,5299.44 5820.75,5299.93 5821.67,5300.9C5822.59,5301.88 5823.05,5303.08 5823.05,5304.5L5823.05,5316.44L5834.36,5316.44C5835.69,5316.44 5836.81,5316.89 5837.7,5317.81C5838.6,5318.73 5839.05,5319.83 5839.05,5321.12C5839.05,5322.41 5838.6,5323.5 5837.7,5324.37C5836.81,5325.25 5835.69,5325.69 5834.36,5325.69L5823.05,5325.69L5823.05,5364.87C5823.05,5366.83 5823.34,5368.32 5823.92,5369.34C5824.5,5370.36 5825.26,5371.05 5826.2,5371.4C5827.14,5371.76 5828.09,5371.94 5829.05,5371.94C5829.84,5371.94 5830.55,5371.8 5831.17,5371.53C5831.8,5371.26 5832.53,5371.12 5833.36,5371.12C5834.23,5371.12 5835.01,5371.51 5835.7,5372.28C5836.39,5373.05 5836.73,5374.06 5836.73,5375.31C5836.73,5376.85 5835.86,5378.13 5834.11,5379.15C5832.36,5380.18 5830.4,5380.69 5828.23,5380.69C5827.11,5380.69 5825.69,5380.6 5823.98,5380.44C5822.28,5380.27 5820.59,5379.73 5818.92,5378.81C5817.25,5377.89 5815.86,5376.38 5814.73,5374.28C5813.61,5372.18 5813.05,5369.19 5813.05,5365.31L5813.05,5325.69L5805.05,5325.69C5803.75,5325.69 5802.65,5325.23 5801.73,5324.31C5800.82,5323.39 5800.36,5322.29 5800.36,5321C5800.36,5319.71 5800.82,5318.62 5801.73,5317.75C5802.65,5316.87 5803.75,5316.44 5805.05,5316.44L5813.05,5316.44ZM5747.3,5327.07C5747.36,5326.98 5747.42,5326.88 5747.48,5326.78C5748.9,5324.59 5750.7,5322.61 5752.89,5320.84C5755.08,5319.07 5757.5,5317.66 5760.17,5316.62C5762.84,5315.58 5765.61,5315.06 5768.48,5315.06C5773.98,5315.06 5778.34,5316.25 5781.55,5318.62C5784.75,5321 5787.06,5324.18 5788.45,5328.15C5789.85,5332.13 5790.55,5336.54 5790.55,5341.37L5790.55,5375.62C5790.55,5377.04 5790.07,5378.24 5789.11,5379.22C5788.15,5380.19 5786.96,5380.69 5785.55,5380.69C5784.09,5380.69 5782.89,5380.19 5781.95,5379.22C5781.01,5378.24 5780.55,5377.04 5780.55,5375.62L5780.55,5341.37C5780.55,5338.21 5780.09,5335.34 5779.17,5332.78C5778.25,5330.22 5776.73,5328.16 5774.61,5326.62C5772.48,5325.08 5769.57,5324.31 5765.86,5324.31C5762.48,5324.31 5759.38,5325.08 5756.55,5326.62C5753.71,5328.16 5751.46,5330.22 5749.8,5332.78C5748.13,5335.34 5747.3,5338.21 5747.3,5341.37L5747.3,5375.62C5747.3,5377.04 5746.82,5378.24 5745.86,5379.22C5744.9,5380.19 5743.71,5380.69 5742.3,5380.69C5740.84,5380.69 5739.64,5380.19 5738.7,5379.22C5737.76,5378.24 5737.3,5377.04 5737.3,5375.62L5737.3,5293.25C5737.3,5291.83 5737.78,5290.63 5738.73,5289.65C5739.69,5288.68 5740.88,5288.19 5742.3,5288.19C5743.75,5288.19 5744.95,5288.68 5745.89,5289.65C5746.83,5290.63 5747.3,5291.83 5747.3,5293.25L5747.3,5327.07ZM5688.23,5323.69C5683.94,5323.69 5680.12,5324.75 5676.76,5326.87C5673.41,5329 5670.78,5331.9 5668.89,5335.59C5666.99,5339.28 5666.05,5343.48 5666.05,5348.19C5666.05,5352.81 5666.99,5356.98 5668.89,5360.69C5670.78,5364.39 5673.41,5367.32 5676.76,5369.47C5680.12,5371.61 5683.94,5372.69 5688.23,5372.69C5692.57,5372.69 5696.4,5371.63 5699.73,5369.53C5703.07,5367.43 5705.69,5364.53 5707.61,5360.84C5709.53,5357.15 5710.48,5352.94 5710.48,5348.19C5710.48,5343.39 5709.53,5339.15 5707.61,5335.47C5705.69,5331.78 5703.07,5328.89 5699.73,5326.81C5696.4,5324.73 5692.57,5323.69 5688.23,5323.69ZM5611.67,5341.31L5613.67,5341.31L5611.67,5343.12L5611.67,5341.31ZM5639.3,5306.81C5637.21,5306.81 5635.67,5306.39 5634.67,5305.56C5633.67,5304.73 5633.17,5303.44 5633.17,5301.69L5633.17,5299.94C5633.17,5298.19 5633.71,5296.89 5634.8,5296.06C5635.88,5295.23 5637.42,5294.81 5639.42,5294.81C5641.42,5294.81 5642.92,5295.23 5643.92,5296.06C5644.92,5296.89 5645.42,5298.19 5645.42,5299.94L5645.42,5301.69C5645.42,5303.44 5644.9,5304.73 5643.86,5305.56C5642.82,5306.39 5641.3,5306.81 5639.3,5306.81Z" style="fill:rgb(67,71,78);fill-rule:nonzero;"/>
                    </g>
                    <g transform="matrix(1.37979,0,0,1.02374,-6771.4,-4924.9)">
                        <path d="M5124.3,5493.23C5124.65,5492.65 5125.05,5492.07 5125.48,5491.51C5126.94,5489.61 5128.73,5487.93 5130.86,5486.44C5132.98,5484.97 5135.35,5483.81 5137.95,5482.98C5140.56,5482.14 5143.28,5481.73 5146.11,5481.73C5151.82,5481.73 5156.91,5483.15 5161.39,5486.01C5165.87,5488.86 5169.42,5492.78 5172.05,5497.76C5174.67,5502.74 5175.98,5508.48 5175.98,5514.98C5175.98,5521.44 5174.67,5527.18 5172.05,5532.19C5169.42,5537.22 5165.88,5541.16 5161.42,5544.04C5156.96,5546.91 5151.94,5548.35 5146.36,5548.35C5143.32,5548.35 5140.43,5547.88 5137.7,5546.94C5134.97,5546.01 5132.51,5544.76 5130.33,5543.19C5128.14,5541.63 5126.3,5539.88 5124.8,5537.94C5124.62,5537.72 5124.46,5537.5 5124.3,5537.28L5124.3,5567.29C5124.3,5568.71 5123.83,5569.9 5122.89,5570.88C5121.95,5571.86 5120.75,5572.35 5119.3,5572.35C5117.88,5572.35 5116.69,5571.87 5115.73,5570.91C5114.78,5569.96 5114.3,5568.75 5114.3,5567.29L5114.3,5487.41C5114.3,5486 5114.76,5484.8 5115.7,5483.82C5116.64,5482.84 5117.84,5482.35 5119.3,5482.35C5120.75,5482.35 5121.95,5482.84 5122.89,5483.82C5123.83,5484.8 5124.3,5486 5124.3,5487.41L5124.3,5493.23ZM4913.11,5537.16C4912.4,5536.08 4912.08,5534.93 4912.14,5533.69C4912.2,5532.47 4912.9,5531.41 4914.23,5530.54C4915.11,5529.91 4916.1,5529.64 4917.2,5529.73C4918.31,5529.81 4919.34,5530.35 4920.3,5531.35C4922.59,5534.1 4925.24,5536.29 4928.26,5537.91C4931.28,5539.54 4934.94,5540.35 4939.23,5540.35C4941.23,5540.31 4943.24,5539.99 4945.26,5539.38C4947.28,5538.78 4948.98,5537.76 4950.36,5536.32C4951.73,5534.88 4952.42,5532.96 4952.42,5530.54C4952.42,5528.21 4951.71,5526.34 4950.3,5524.94C4948.88,5523.55 4947.03,5522.41 4944.76,5521.54C4942.49,5520.66 4940.05,5519.89 4937.42,5519.23C4934.67,5518.48 4931.96,5517.63 4929.3,5516.69C4926.63,5515.76 4924.23,5514.56 4922.11,5513.1C4919.98,5511.64 4918.28,5509.81 4916.98,5507.6C4915.69,5505.39 4915.05,5502.69 4915.05,5499.48C4915.05,5495.77 4916.07,5492.54 4918.11,5489.79C4920.15,5487.04 4922.89,5484.9 4926.33,5483.38C4929.76,5481.86 4933.55,5481.1 4937.67,5481.1C4939.96,5481.1 4942.38,5481.38 4944.92,5481.94C4947.46,5482.51 4949.94,5483.44 4952.36,5484.73C4954.78,5486.02 4956.9,5487.77 4958.73,5489.98C4959.53,5490.85 4959.95,5491.9 4960.01,5493.13C4960.08,5494.36 4959.53,5495.48 4958.36,5496.48C4957.48,5497.14 4956.48,5497.44 4955.36,5497.38C4954.23,5497.32 4953.3,5496.91 4952.55,5496.16C4950.75,5494.04 4948.55,5492.41 4945.92,5491.29C4943.3,5490.16 4940.4,5489.6 4937.23,5489.6C4935.23,5489.6 4933.28,5489.9 4931.36,5490.51C4929.44,5491.11 4927.84,5492.1 4926.55,5493.48C4925.25,5494.85 4924.61,5496.75 4924.61,5499.16C4924.69,5501.41 4925.45,5503.24 4926.89,5504.63C4928.33,5506.03 4930.25,5507.18 4932.67,5508.07C4935.09,5508.97 4937.75,5509.81 4940.67,5510.6C4943.3,5511.27 4945.85,5512.05 4948.33,5512.94C4950.81,5513.84 4953.03,5515 4955.01,5516.41C4956.99,5517.83 4958.58,5519.63 4959.76,5521.82C4960.95,5524.01 4961.55,5526.77 4961.55,5530.1C4961.55,5533.98 4960.45,5537.3 4958.26,5540.07C4956.08,5542.84 4953.22,5544.96 4949.7,5546.41C4946.18,5547.87 4942.38,5548.6 4938.3,5548.6C4933.67,5548.6 4929.13,5547.74 4924.67,5546.01C4920.21,5544.28 4916.36,5541.33 4913.11,5537.16ZM5259.92,5507.98L5259.92,5506.98C5259.63,5503.56 5258.5,5500.62 5256.55,5498.16C5254.59,5495.71 5252.2,5493.81 5249.39,5492.48C5246.58,5491.14 5243.63,5490.48 5240.55,5490.48C5238.05,5490.48 5235.57,5490.93 5233.11,5491.82C5230.65,5492.72 5228.44,5494.13 5226.48,5496.07C5224.53,5498.01 5222.95,5500.52 5221.76,5503.6C5220.58,5506.69 5219.98,5510.41 5219.98,5514.79C5219.98,5519.58 5220.96,5523.82 5222.92,5527.51C5224.88,5531.19 5227.61,5534.09 5231.11,5536.19C5234.61,5538.3 5238.67,5539.35 5243.3,5539.35C5246.25,5539.35 5248.82,5538.99 5250.98,5538.26C5253.15,5537.53 5255.01,5536.59 5256.58,5535.44C5258.14,5534.3 5259.46,5533.14 5260.55,5531.98C5261.63,5531.23 5262.69,5530.85 5263.73,5530.85C5264.94,5530.85 5265.95,5531.28 5266.76,5532.13C5267.58,5532.99 5267.98,5533.98 5267.98,5535.1C5267.98,5536.52 5267.32,5537.79 5265.98,5538.91C5263.61,5541.5 5260.43,5543.76 5256.45,5545.69C5252.47,5547.63 5248.21,5548.6 5243.67,5548.6C5237,5548.6 5231.17,5547.19 5226.17,5544.38C5221.17,5541.57 5217.28,5537.68 5214.51,5532.69C5211.74,5527.72 5210.36,5521.98 5210.36,5515.48C5210.36,5508.23 5211.8,5502.05 5214.67,5496.94C5217.55,5491.84 5221.28,5487.93 5225.89,5485.19C5230.49,5482.47 5235.38,5481.1 5240.55,5481.1C5244.42,5481.1 5248.14,5481.82 5251.7,5483.26C5255.26,5484.69 5258.43,5486.77 5261.2,5489.48C5263.97,5492.19 5266.19,5495.43 5267.86,5499.19C5269.53,5502.97 5270.4,5507.21 5270.48,5511.91C5270.44,5513.25 5269.92,5514.36 5268.92,5515.26C5267.92,5516.15 5266.75,5516.6 5265.42,5516.6L5219.03,5516.6C5218.88,5513.7 5219.04,5510.82 5219.56,5507.98L5259.92,5507.98ZM5199.61,5542.29C5199.61,5543.71 5199.12,5544.9 5198.14,5545.88C5197.16,5546.86 5195.96,5547.35 5194.55,5547.35C5193.13,5547.35 5191.95,5546.86 5191.01,5545.88C5190.08,5544.9 5189.61,5543.71 5189.61,5542.29L5189.61,5459.91C5189.61,5458.5 5190.1,5457.3 5191.08,5456.32C5192.06,5455.34 5193.25,5454.85 5194.67,5454.85C5196.13,5454.85 5197.32,5455.34 5198.23,5456.32C5199.15,5457.3 5199.61,5458.5 5199.61,5459.91L5199.61,5542.29ZM4984.55,5542.23C4984.55,5543.64 4984.07,5544.85 4983.11,5545.85C4982.15,5546.85 4980.96,5547.35 4979.55,5547.35C4978.05,5547.35 4976.84,5546.85 4975.92,5545.85C4975,5544.85 4974.55,5543.64 4974.55,5542.23L4974.55,5486.73C4974.55,5485.31 4975.03,5484.12 4975.98,5483.16C4976.94,5482.21 4978.13,5481.73 4979.55,5481.73C4980.96,5481.73 4982.15,5482.21 4983.11,5483.16C4984.07,5484.12 4984.55,5485.31 4984.55,5486.73L4984.55,5542.23ZM5051.64,5495.45C5052.69,5493.32 5054.32,5491.26 5056.51,5489.26C5058.91,5487.07 5061.69,5485.27 5064.86,5483.85C5068.03,5482.44 5071.32,5481.73 5074.73,5481.73C5080.23,5481.73 5084.58,5482.91 5087.76,5485.29C5090.95,5487.66 5093.22,5490.83 5094.58,5494.79C5095.93,5498.75 5096.61,5503.19 5096.61,5508.1L5096.61,5542.29C5096.61,5543.71 5096.14,5544.9 5095.2,5545.88C5094.26,5546.86 5093.07,5547.35 5091.61,5547.35C5090.15,5547.35 5088.95,5546.86 5088.01,5545.88C5087.08,5544.9 5086.61,5543.71 5086.61,5542.29L5086.61,5508.35C5086.61,5505.14 5086.14,5502.23 5085.2,5499.6C5084.26,5496.98 5082.72,5494.88 5080.58,5493.32C5078.43,5491.76 5075.53,5490.98 5071.86,5490.98C5068.48,5490.98 5065.38,5491.76 5062.55,5493.32C5059.71,5494.88 5057.46,5496.98 5055.8,5499.6C5054.13,5502.23 5053.3,5505.14 5053.3,5508.35L5053.3,5542.29C5053.3,5543.71 5052.83,5544.9 5051.89,5545.88C5050.95,5546.86 5049.75,5547.35 5048.3,5547.35C5046.84,5547.35 5045.64,5546.86 5044.7,5545.88C5043.76,5544.9 5043.3,5543.71 5043.3,5542.29L5043.3,5508.04C5043.3,5504.87 5042.85,5502.01 5041.95,5499.44C5041.06,5496.88 5039.57,5494.83 5037.48,5493.29C5035.4,5491.75 5032.55,5490.98 5028.92,5490.98C5025.59,5490.98 5022.53,5491.75 5019.76,5493.29C5016.99,5494.83 5014.78,5496.88 5013.14,5499.44C5011.49,5502.01 5010.67,5504.87 5010.67,5508.04L5010.67,5542.29C5010.67,5543.71 5010.19,5544.9 5009.23,5545.88C5008.28,5546.86 5007.09,5547.35 5005.67,5547.35C5004.21,5547.35 5003.01,5546.86 5002.08,5545.88C5001.14,5544.9 5000.67,5543.71 5000.67,5542.29L5000.67,5487.79C5000.67,5486.37 5001.15,5485.18 5002.11,5484.19C5003.07,5483.22 5004.25,5482.73 5005.67,5482.73C5007.13,5482.73 5008.33,5483.22 5009.26,5484.19C5010.2,5485.18 5010.67,5486.37 5010.67,5487.79L5010.67,5493.47C5012.02,5491.39 5013.72,5489.49 5015.76,5487.76C5017.91,5485.94 5020.33,5484.49 5023.01,5483.38C5025.7,5482.28 5028.55,5481.73 5031.55,5481.73C5037.21,5481.73 5041.81,5483.16 5045.33,5486.04C5048.2,5488.39 5050.3,5491.52 5051.64,5495.45ZM5145.05,5490.98C5140.84,5490.98 5137.14,5492.02 5133.95,5494.1C5130.76,5496.19 5128.26,5499.02 5126.45,5502.6C5124.64,5506.19 5123.73,5510.31 5123.73,5514.98C5123.73,5519.56 5124.64,5523.69 5126.45,5527.35C5128.26,5531.02 5130.76,5533.89 5133.95,5535.98C5137.14,5538.06 5140.84,5539.1 5145.05,5539.1C5149.21,5539.1 5152.88,5538.06 5156.05,5535.98C5159.21,5533.89 5161.71,5531.02 5163.55,5527.35C5165.38,5523.69 5166.3,5519.56 5166.3,5514.98C5166.3,5510.35 5165.38,5506.24 5163.55,5502.63C5161.71,5499.03 5159.21,5496.19 5156.05,5494.1C5152.88,5492.02 5149.21,5490.98 5145.05,5490.98ZM5259.92,5507.98L5261.92,5507.98L5259.92,5509.79L5259.92,5507.98ZM4979.55,5473.48C4977.46,5473.48 4975.92,5473.06 4974.92,5472.23C4973.92,5471.39 4973.42,5470.1 4973.42,5468.35L4973.42,5466.6C4973.42,5464.85 4973.96,5463.56 4975.05,5462.73C4976.13,5461.89 4977.67,5461.48 4979.67,5461.48C4981.67,5461.48 4983.17,5461.89 4984.17,5462.73C4985.17,5463.56 4985.67,5464.85 4985.67,5466.6L4985.67,5468.35C4985.67,5470.1 4985.15,5471.39 4984.11,5472.23C4983.07,5473.06 4981.55,5473.48 4979.55,5473.48Z" style="fill:rgb(1,97,163);fill-rule:nonzero;"/>
                    </g>
                    <path d="M577.53,769.768C577.53,771.218 576.868,772.445 575.546,773.447C574.224,774.45 572.557,774.951 570.544,774.951C568.59,774.951 566.966,774.45 565.672,773.447C564.378,772.445 563.732,771.218 563.732,769.768L563.732,658.18C563.732,656.73 564.393,655.504 565.715,654.501C567.037,653.499 568.705,652.998 570.717,652.998C572.729,652.998 574.368,653.499 575.632,654.501C576.897,655.504 577.53,656.73 577.53,658.18L577.53,769.768Z" style="fill:rgb(67,71,78);fill-rule:nonzero;"/>
                    <g transform="matrix(1.37979,0,0,1.02374,-6771.4,-4924.9)">
                        <path d="M5515.17,5538.21C5514.09,5539.81 5512.8,5541.26 5511.3,5542.54C5509.05,5544.46 5506.45,5545.94 5503.51,5547.01C5500.58,5548.07 5497.38,5548.6 5493.92,5548.6C5489.13,5548.6 5485.09,5547.58 5481.8,5545.54C5478.5,5543.5 5476.01,5540.68 5474.33,5537.07C5472.64,5533.47 5471.8,5529.29 5471.8,5524.54L5471.8,5486.79C5471.8,5485.37 5472.26,5484.18 5473.2,5483.19C5474.14,5482.22 5475.34,5481.73 5476.8,5481.73C5478.25,5481.73 5479.45,5482.22 5480.39,5483.19C5481.33,5484.18 5481.8,5485.37 5481.8,5486.79L5481.8,5522.29C5481.8,5527.96 5483.05,5532.22 5485.55,5535.07C5488.05,5537.93 5491.92,5539.35 5497.17,5539.35C5500.5,5539.35 5503.51,5538.6 5506.2,5537.1C5508.89,5535.6 5511.05,5533.55 5512.67,5530.94C5514.3,5528.34 5515.11,5525.46 5515.11,5522.29L5515.11,5486.79C5515.11,5485.37 5515.58,5484.18 5516.51,5483.19C5517.45,5482.22 5518.65,5481.73 5520.11,5481.73C5521.57,5481.73 5522.76,5482.22 5523.7,5483.19C5524.64,5484.18 5525.11,5485.37 5525.11,5486.79L5525.11,5541.23C5525.11,5548.27 5523.74,5554.09 5521.01,5558.69C5518.28,5563.3 5514.61,5566.73 5509.98,5568.98C5505.36,5571.23 5500.13,5572.35 5494.3,5572.35C5491.05,5572.35 5487.91,5572.02 5484.89,5571.35C5481.87,5570.69 5479.4,5569.81 5477.48,5568.73C5475.94,5567.98 5474.85,5567.05 5474.2,5565.94C5473.56,5564.84 5473.46,5563.66 5473.92,5562.41C5474.46,5560.87 5475.31,5559.82 5476.45,5559.26C5477.6,5558.69 5478.78,5558.69 5479.98,5559.23C5481.36,5559.85 5483.31,5560.68 5485.83,5561.69C5488.35,5562.72 5491.21,5563.23 5494.42,5563.23C5498.75,5563.23 5502.46,5562.4 5505.55,5560.76C5508.63,5559.11 5511,5556.68 5512.67,5553.44C5514.34,5550.22 5515.17,5546.23 5515.17,5541.48L5515.17,5538.21ZM5370.48,5537.16C5369.78,5536.08 5369.45,5534.93 5369.51,5533.69C5369.58,5532.47 5370.28,5531.41 5371.61,5530.54C5372.48,5529.91 5373.47,5529.64 5374.58,5529.73C5375.68,5529.81 5376.71,5530.35 5377.67,5531.35C5379.96,5534.1 5382.62,5536.29 5385.64,5537.91C5388.66,5539.54 5392.32,5540.35 5396.61,5540.35C5398.61,5540.31 5400.62,5539.99 5402.64,5539.38C5404.66,5538.78 5406.36,5537.76 5407.73,5536.32C5409.11,5534.88 5409.8,5532.96 5409.8,5530.54C5409.8,5528.21 5409.09,5526.34 5407.67,5524.94C5406.25,5523.55 5404.41,5522.41 5402.14,5521.54C5399.87,5520.66 5397.42,5519.89 5394.8,5519.23C5392.05,5518.48 5389.34,5517.63 5386.67,5516.69C5384,5515.76 5381.61,5514.56 5379.48,5513.1C5377.36,5511.64 5375.65,5509.81 5374.36,5507.6C5373.07,5505.39 5372.42,5502.69 5372.42,5499.48C5372.42,5495.77 5373.44,5492.54 5375.48,5489.79C5377.53,5487.04 5380.26,5484.9 5383.7,5483.38C5387.14,5481.86 5390.92,5481.1 5395.05,5481.1C5397.34,5481.1 5399.75,5481.38 5402.3,5481.94C5404.84,5482.51 5407.32,5483.44 5409.73,5484.73C5412.15,5486.02 5414.28,5487.77 5416.11,5489.98C5416.9,5490.85 5417.33,5491.9 5417.39,5493.13C5417.45,5494.36 5416.9,5495.48 5415.73,5496.48C5414.86,5497.14 5413.86,5497.44 5412.73,5497.38C5411.61,5497.32 5410.67,5496.91 5409.92,5496.16C5408.13,5494.04 5405.92,5492.41 5403.3,5491.29C5400.67,5490.16 5397.78,5489.6 5394.61,5489.6C5392.61,5489.6 5390.65,5489.9 5388.73,5490.51C5386.82,5491.11 5385.21,5492.1 5383.92,5493.48C5382.63,5494.85 5381.98,5496.75 5381.98,5499.16C5382.07,5501.41 5382.83,5503.24 5384.26,5504.63C5385.7,5506.03 5387.63,5507.18 5390.05,5508.07C5392.46,5508.97 5395.13,5509.81 5398.05,5510.6C5400.67,5511.27 5403.22,5512.05 5405.7,5512.94C5408.18,5513.84 5410.41,5515 5412.39,5516.41C5414.37,5517.83 5415.95,5519.63 5417.14,5521.82C5418.33,5524.01 5418.92,5526.77 5418.92,5530.1C5418.92,5533.98 5417.83,5537.3 5415.64,5540.07C5413.45,5542.84 5410.6,5544.96 5407.08,5546.41C5403.56,5547.87 5399.75,5548.6 5395.67,5548.6C5391.05,5548.6 5386.5,5547.74 5382.05,5546.01C5377.59,5544.28 5373.73,5541.33 5370.48,5537.16ZM5591.11,5537.16C5590.4,5536.08 5590.08,5534.93 5590.14,5533.69C5590.2,5532.47 5590.9,5531.41 5592.23,5530.54C5593.11,5529.91 5594.1,5529.64 5595.2,5529.73C5596.31,5529.81 5597.34,5530.35 5598.3,5531.35C5600.59,5534.1 5603.24,5536.29 5606.26,5537.91C5609.28,5539.54 5612.94,5540.35 5617.23,5540.35C5619.23,5540.31 5621.24,5539.99 5623.26,5539.38C5625.28,5538.78 5626.98,5537.76 5628.36,5536.32C5629.73,5534.88 5630.42,5532.96 5630.42,5530.54C5630.42,5528.21 5629.71,5526.34 5628.3,5524.94C5626.88,5523.55 5625.03,5522.41 5622.76,5521.54C5620.49,5520.66 5618.05,5519.89 5615.42,5519.23C5612.67,5518.48 5609.96,5517.63 5607.3,5516.69C5604.63,5515.76 5602.23,5514.56 5600.11,5513.1C5597.98,5511.64 5596.28,5509.81 5594.98,5507.6C5593.69,5505.39 5593.05,5502.69 5593.05,5499.48C5593.05,5495.77 5594.07,5492.54 5596.11,5489.79C5598.15,5487.04 5600.89,5484.9 5604.33,5483.38C5607.76,5481.86 5611.55,5481.1 5615.67,5481.1C5617.96,5481.1 5620.38,5481.38 5622.92,5481.94C5625.46,5482.51 5627.94,5483.44 5630.36,5484.73C5632.78,5486.02 5634.9,5487.77 5636.73,5489.98C5637.53,5490.85 5637.95,5491.9 5638.01,5493.13C5638.08,5494.36 5637.53,5495.48 5636.36,5496.48C5635.48,5497.14 5634.48,5497.44 5633.36,5497.38C5632.23,5497.32 5631.3,5496.91 5630.55,5496.16C5628.75,5494.04 5626.55,5492.41 5623.92,5491.29C5621.3,5490.16 5618.4,5489.6 5615.23,5489.6C5613.23,5489.6 5611.28,5489.9 5609.36,5490.51C5607.44,5491.11 5605.84,5492.1 5604.55,5493.48C5603.25,5494.85 5602.61,5496.75 5602.61,5499.16C5602.69,5501.41 5603.45,5503.24 5604.89,5504.63C5606.33,5506.03 5608.25,5507.18 5610.67,5508.07C5613.09,5508.97 5615.75,5509.81 5618.67,5510.6C5621.3,5511.27 5623.85,5512.05 5626.33,5512.94C5628.81,5513.84 5631.03,5515 5633.01,5516.41C5634.99,5517.83 5636.58,5519.63 5637.76,5521.82C5638.95,5524.01 5639.55,5526.77 5639.55,5530.1C5639.55,5533.98 5638.45,5537.3 5636.26,5540.07C5634.08,5542.84 5631.22,5544.96 5627.7,5546.41C5624.18,5547.87 5620.38,5548.6 5616.3,5548.6C5611.67,5548.6 5607.13,5547.74 5602.67,5546.01C5598.21,5544.28 5594.36,5541.33 5591.11,5537.16ZM5552.98,5542.29C5552.98,5543.71 5552.49,5544.9 5551.51,5545.88C5550.53,5546.86 5549.34,5547.35 5547.92,5547.35C5546.5,5547.35 5545.33,5546.86 5544.39,5545.88C5543.45,5544.9 5542.98,5543.71 5542.98,5542.29L5542.98,5459.91C5542.98,5458.5 5543.47,5457.3 5544.45,5456.32C5545.43,5455.34 5546.63,5454.85 5548.05,5454.85C5549.5,5454.85 5550.69,5455.34 5551.61,5456.32C5552.53,5457.3 5552.98,5458.5 5552.98,5459.91L5552.98,5542.29ZM5578.67,5542.23C5578.67,5543.64 5578.19,5544.85 5577.23,5545.85C5576.28,5546.85 5575.09,5547.35 5573.67,5547.35C5572.17,5547.35 5570.96,5546.85 5570.05,5545.85C5569.13,5544.85 5568.67,5543.64 5568.67,5542.23L5568.67,5486.73C5568.67,5485.31 5569.15,5484.12 5570.11,5483.16C5571.07,5482.21 5572.25,5481.73 5573.67,5481.73C5575.09,5481.73 5576.28,5482.21 5577.23,5483.16C5578.19,5484.12 5578.67,5485.31 5578.67,5486.73L5578.67,5542.23ZM5437.8,5483.1L5437.8,5471.16C5437.8,5469.75 5438.28,5468.55 5439.26,5467.57C5440.24,5466.59 5441.44,5466.1 5442.86,5466.1C5444.32,5466.1 5445.5,5466.59 5446.42,5467.57C5447.34,5468.55 5447.8,5469.75 5447.8,5471.16L5447.8,5483.1L5459.11,5483.1C5460.44,5483.1 5461.56,5483.56 5462.45,5484.48C5463.35,5485.39 5463.8,5486.5 5463.8,5487.79C5463.8,5489.08 5463.35,5490.16 5462.45,5491.04C5461.56,5491.91 5460.44,5492.35 5459.11,5492.35L5447.8,5492.35L5447.8,5531.54C5447.8,5533.5 5448.09,5534.99 5448.67,5536.01C5449.25,5537.03 5450.01,5537.72 5450.95,5538.07C5451.89,5538.43 5452.84,5538.6 5453.8,5538.6C5454.59,5538.6 5455.3,5538.47 5455.92,5538.19C5456.55,5537.93 5457.28,5537.79 5458.11,5537.79C5458.98,5537.79 5459.76,5538.18 5460.45,5538.94C5461.14,5539.72 5461.48,5540.73 5461.48,5541.98C5461.48,5543.52 5460.61,5544.8 5458.86,5545.82C5457.11,5546.84 5455.15,5547.35 5452.98,5547.35C5451.86,5547.35 5450.44,5547.27 5448.73,5547.1C5447.03,5546.94 5445.34,5546.39 5443.67,5545.48C5442,5544.56 5440.61,5543.05 5439.48,5540.94C5438.36,5538.84 5437.8,5535.85 5437.8,5531.98L5437.8,5492.35L5429.8,5492.35C5428.5,5492.35 5427.4,5491.89 5426.48,5490.98C5425.57,5490.06 5425.11,5488.96 5425.11,5487.66C5425.11,5486.37 5425.57,5485.29 5426.48,5484.41C5427.4,5483.54 5428.5,5483.1 5429.8,5483.1L5437.8,5483.1ZM5662.92,5493.74C5662.98,5493.64 5663.05,5493.54 5663.11,5493.44C5664.53,5491.26 5666.33,5489.28 5668.51,5487.51C5670.7,5485.74 5673.13,5484.33 5675.8,5483.29C5678.46,5482.25 5681.23,5481.73 5684.11,5481.73C5689.61,5481.73 5693.96,5482.91 5697.17,5485.29C5700.38,5487.66 5702.68,5490.84 5704.08,5494.82C5705.47,5498.8 5706.17,5503.21 5706.17,5508.04L5706.17,5542.29C5706.17,5543.71 5705.69,5544.9 5704.73,5545.88C5703.78,5546.86 5702.59,5547.35 5701.17,5547.35C5699.71,5547.35 5698.51,5546.86 5697.58,5545.88C5696.64,5544.9 5696.17,5543.71 5696.17,5542.29L5696.17,5508.04C5696.17,5504.87 5695.71,5502.01 5694.8,5499.44C5693.88,5496.88 5692.36,5494.83 5690.23,5493.29C5688.11,5491.75 5685.19,5490.98 5681.48,5490.98C5678.11,5490.98 5675,5491.75 5672.17,5493.29C5669.34,5494.83 5667.09,5496.88 5665.42,5499.44C5663.75,5502.01 5662.92,5504.87 5662.92,5508.04L5662.92,5542.29C5662.92,5543.71 5662.44,5544.9 5661.48,5545.88C5660.53,5546.86 5659.34,5547.35 5657.92,5547.35C5656.46,5547.35 5655.26,5546.86 5654.33,5545.88C5653.39,5544.9 5652.92,5543.71 5652.92,5542.29L5652.92,5459.91C5652.92,5458.5 5653.4,5457.3 5654.36,5456.32C5655.32,5455.34 5656.5,5454.85 5657.92,5454.85C5659.38,5454.85 5660.58,5455.34 5661.51,5456.32C5662.45,5457.3 5662.92,5458.5 5662.92,5459.91L5662.92,5493.74ZM5573.67,5473.48C5571.59,5473.48 5570.05,5473.06 5569.05,5472.23C5568.05,5471.39 5567.55,5470.1 5567.55,5468.35L5567.55,5466.6C5567.55,5464.85 5568.09,5463.56 5569.17,5462.73C5570.25,5461.89 5571.8,5461.48 5573.8,5461.48C5575.8,5461.48 5577.3,5461.89 5578.3,5462.73C5579.3,5463.56 5579.8,5464.85 5579.8,5466.6L5579.8,5468.35C5579.8,5470.1 5579.28,5471.39 5578.23,5472.23C5577.19,5473.06 5575.67,5473.48 5573.67,5473.48Z" style="fill:rgb(1,97,163);fill-rule:nonzero;"/>
                    </g>
                    <path d="M1184.98,769.768C1184.98,771.218 1184.32,772.445 1183,773.447C1181.68,774.45 1180.01,774.951 1178,774.951C1176.04,774.951 1174.42,774.45 1173.13,773.447C1171.83,772.445 1171.18,771.218 1171.18,769.768L1171.18,658.18C1171.18,656.73 1171.85,655.504 1173.17,654.501C1174.49,653.499 1176.16,652.998 1178.17,652.998C1180.18,652.998 1181.82,653.499 1183.09,654.501C1184.35,655.504 1184.98,656.73 1184.98,658.18L1184.98,769.768Z" style="fill:rgb(67,71,78);fill-rule:nonzero;"/>
                    <g transform="matrix(1.37979,0,0,1.02374,-6771.4,-4924.9)">
                        <path d="M5810.73,5537.16C5810.03,5536.08 5809.7,5534.93 5809.76,5533.69C5809.83,5532.47 5810.53,5531.41 5811.86,5530.54C5812.73,5529.91 5813.72,5529.64 5814.83,5529.73C5815.93,5529.81 5816.96,5530.35 5817.92,5531.35C5820.21,5534.1 5822.87,5536.29 5825.89,5537.91C5828.91,5539.54 5832.57,5540.35 5836.86,5540.35C5838.86,5540.31 5840.87,5539.99 5842.89,5539.38C5844.91,5538.78 5846.61,5537.76 5847.98,5536.32C5849.36,5534.88 5850.05,5532.96 5850.05,5530.54C5850.05,5528.21 5849.34,5526.34 5847.92,5524.94C5846.5,5523.55 5844.66,5522.41 5842.39,5521.54C5840.12,5520.66 5837.67,5519.89 5835.05,5519.23C5832.3,5518.48 5829.59,5517.63 5826.92,5516.69C5824.25,5515.76 5821.86,5514.56 5819.73,5513.1C5817.61,5511.64 5815.9,5509.81 5814.61,5507.6C5813.32,5505.39 5812.67,5502.69 5812.67,5499.48C5812.67,5495.77 5813.69,5492.54 5815.73,5489.79C5817.78,5487.04 5820.51,5484.9 5823.95,5483.38C5827.39,5481.86 5831.17,5481.1 5835.3,5481.1C5837.59,5481.1 5840,5481.38 5842.55,5481.94C5845.09,5482.51 5847.57,5483.44 5849.98,5484.73C5852.4,5486.02 5854.53,5487.77 5856.36,5489.98C5857.15,5490.85 5857.58,5491.9 5857.64,5493.13C5857.7,5494.36 5857.15,5495.48 5855.98,5496.48C5855.11,5497.14 5854.11,5497.44 5852.98,5497.38C5851.86,5497.32 5850.92,5496.91 5850.17,5496.16C5848.38,5494.04 5846.17,5492.41 5843.55,5491.29C5840.92,5490.16 5838.03,5489.6 5834.86,5489.6C5832.86,5489.6 5830.9,5489.9 5828.98,5490.51C5827.07,5491.11 5825.46,5492.1 5824.17,5493.48C5822.88,5494.85 5822.23,5496.75 5822.23,5499.16C5822.32,5501.41 5823.08,5503.24 5824.51,5504.63C5825.95,5506.03 5827.88,5507.18 5830.3,5508.07C5832.71,5508.97 5835.38,5509.81 5838.3,5510.6C5840.92,5511.27 5843.47,5512.05 5845.95,5512.94C5848.43,5513.84 5850.66,5515 5852.64,5516.41C5854.62,5517.83 5856.2,5519.63 5857.39,5521.82C5858.58,5524.01 5859.17,5526.77 5859.17,5530.1C5859.17,5533.98 5858.08,5537.3 5855.89,5540.07C5853.7,5542.84 5850.85,5544.96 5847.33,5546.41C5843.81,5547.87 5840,5548.6 5835.92,5548.6C5831.3,5548.6 5826.75,5547.74 5822.3,5546.01C5817.84,5544.28 5813.98,5541.33 5810.73,5537.16ZM5969.17,5481.1C5973.42,5481.1 5977.25,5481.56 5980.67,5482.48C5984.09,5483.39 5986.8,5484.64 5988.8,5486.23C5990.8,5487.81 5991.8,5489.6 5991.8,5491.6C5991.8,5492.73 5991.43,5493.79 5990.7,5494.79C5989.97,5495.79 5988.96,5496.29 5987.67,5496.29C5986.55,5496.29 5985.63,5496.07 5984.92,5495.63C5984.21,5495.19 5983.55,5494.65 5982.92,5494.01C5982.3,5493.36 5981.44,5492.77 5980.36,5492.23C5979.36,5491.69 5977.9,5491.24 5975.98,5490.88C5974.07,5490.53 5972.13,5490.35 5970.17,5490.35C5965.63,5490.35 5961.62,5491.44 5958.14,5493.6C5954.66,5495.77 5951.93,5498.69 5949.95,5502.35C5947.97,5506.02 5946.98,5510.19 5946.98,5514.85C5946.98,5519.52 5947.94,5523.69 5949.86,5527.38C5951.78,5531.07 5954.44,5533.99 5957.86,5536.13C5961.28,5538.28 5965.23,5539.35 5969.73,5539.35C5972.65,5539.35 5974.97,5539.11 5976.7,5538.63C5978.43,5538.15 5979.9,5537.58 5981.11,5536.91C5982.57,5536.08 5983.69,5535.25 5984.48,5534.41C5985.28,5533.58 5986.36,5533.16 5987.73,5533.16C5989.15,5533.16 5990.24,5533.61 5991.01,5534.51C5991.78,5535.4 5992.17,5536.52 5992.17,5537.85C5992.17,5539.39 5991.13,5541 5989.05,5542.66C5986.96,5544.33 5984.15,5545.74 5980.61,5546.88C5977.07,5548.03 5973.07,5548.6 5968.61,5548.6C5962.28,5548.6 5956.73,5547.12 5951.98,5544.16C5947.23,5541.21 5943.55,5537.18 5940.92,5532.07C5938.3,5526.97 5936.98,5521.23 5936.98,5514.85C5936.98,5508.52 5938.34,5502.81 5941.05,5497.73C5943.75,5492.64 5947.53,5488.6 5952.36,5485.6C5957.19,5482.6 5962.8,5481.1 5969.17,5481.1ZM5918.05,5507.98L5918.05,5506.98C5917.75,5503.56 5916.63,5500.62 5914.67,5498.16C5912.71,5495.71 5910.33,5493.81 5907.51,5492.48C5904.7,5491.14 5901.75,5490.48 5898.67,5490.48C5896.17,5490.48 5893.69,5490.93 5891.23,5491.82C5888.78,5492.72 5886.57,5494.13 5884.61,5496.07C5882.65,5498.01 5881.08,5500.52 5879.89,5503.6C5878.7,5506.69 5878.11,5510.41 5878.11,5514.79C5878.11,5519.58 5879.09,5523.82 5881.05,5527.51C5883,5531.19 5885.73,5534.09 5889.23,5536.19C5892.73,5538.3 5896.8,5539.35 5901.42,5539.35C5904.38,5539.35 5906.94,5538.99 5909.11,5538.26C5911.28,5537.53 5913.14,5536.59 5914.7,5535.44C5916.26,5534.3 5917.59,5533.14 5918.67,5531.98C5919.75,5531.23 5920.82,5530.85 5921.86,5530.85C5923.07,5530.85 5924.08,5531.28 5924.89,5532.13C5925.7,5532.99 5926.11,5533.98 5926.11,5535.1C5926.11,5536.52 5925.44,5537.79 5924.11,5538.91C5921.73,5541.5 5918.56,5543.76 5914.58,5545.69C5910.6,5547.63 5906.34,5548.6 5901.8,5548.6C5895.13,5548.6 5889.3,5547.19 5884.3,5544.38C5879.3,5541.57 5875.41,5537.68 5872.64,5532.69C5869.87,5527.72 5868.48,5521.98 5868.48,5515.48C5868.48,5508.23 5869.92,5502.05 5872.8,5496.94C5875.67,5491.84 5879.41,5487.93 5884.01,5485.19C5888.62,5482.47 5893.5,5481.1 5898.67,5481.1C5902.55,5481.1 5906.26,5481.82 5909.83,5483.26C5913.39,5484.69 5916.56,5486.77 5919.33,5489.48C5922.1,5492.19 5924.32,5495.43 5925.98,5499.19C5927.65,5502.97 5928.53,5507.21 5928.61,5511.91C5928.57,5513.25 5928.05,5514.36 5927.05,5515.26C5926.05,5516.15 5924.88,5516.6 5923.55,5516.6L5874.17,5516.6L5871.92,5507.98L5918.05,5507.98ZM6164.3,5507.98L6164.3,5506.98C6164,5503.56 6162.88,5500.62 6160.92,5498.16C6158.96,5495.71 6156.58,5493.81 6153.76,5492.48C6150.95,5491.14 6148,5490.48 6144.92,5490.48C6142.42,5490.48 6139.94,5490.93 6137.48,5491.82C6135.03,5492.72 6132.82,5494.13 6130.86,5496.07C6128.9,5498.01 6127.33,5500.52 6126.14,5503.6C6124.95,5506.69 6124.36,5510.41 6124.36,5514.79C6124.36,5519.58 6125.34,5523.82 6127.3,5527.51C6129.25,5531.19 6131.98,5534.09 6135.48,5536.19C6138.98,5538.3 6143.05,5539.35 6147.67,5539.35C6150.63,5539.35 6153.19,5538.99 6155.36,5538.26C6157.53,5537.53 6159.39,5536.59 6160.95,5535.44C6162.51,5534.3 6163.84,5533.14 6164.92,5531.98C6166,5531.23 6167.07,5530.85 6168.11,5530.85C6169.32,5530.85 6170.33,5531.28 6171.14,5532.13C6171.95,5532.99 6172.36,5533.98 6172.36,5535.1C6172.36,5536.52 6171.69,5537.79 6170.36,5538.91C6167.98,5541.5 6164.81,5543.76 6160.83,5545.69C6156.85,5547.63 6152.59,5548.6 6148.05,5548.6C6141.38,5548.6 6135.55,5547.19 6130.55,5544.38C6125.55,5541.57 6121.66,5537.68 6118.89,5532.69C6116.12,5527.72 6114.73,5521.98 6114.73,5515.48C6114.73,5508.23 6116.17,5502.05 6119.05,5496.94C6121.92,5491.84 6125.66,5487.93 6130.26,5485.19C6134.87,5482.47 6139.75,5481.1 6144.92,5481.1C6148.8,5481.1 6152.51,5481.82 6156.08,5483.26C6159.64,5484.69 6162.81,5486.77 6165.58,5489.48C6168.35,5492.19 6170.57,5495.43 6172.23,5499.19C6173.9,5502.97 6174.78,5507.21 6174.86,5511.91C6174.82,5513.25 6174.3,5514.36 6173.3,5515.26C6172.3,5516.15 6171.13,5516.6 6169.8,5516.6L6120.42,5516.6L6118.17,5507.98L6164.3,5507.98ZM6053.55,5482.73C6055,5482.73 6056.2,5483.22 6057.14,5484.19C6058.08,5485.18 6058.55,5486.37 6058.55,5487.79L6058.55,5521.85C6058.55,5530.31 6056.18,5536.84 6051.45,5541.44C6046.72,5546.05 6040.17,5548.35 6031.8,5548.35C6023.46,5548.35 6016.94,5546.05 6012.23,5541.44C6007.53,5536.84 6005.17,5530.31 6005.17,5521.85L6005.17,5487.79C6005.17,5486.37 6005.65,5485.18 6006.61,5484.19C6007.57,5483.22 6008.75,5482.73 6010.17,5482.73C6011.63,5482.73 6012.83,5483.22 6013.76,5484.19C6014.7,5485.18 6015.17,5486.37 6015.17,5487.79L6015.17,5521.85C6015.17,5527.56 6016.62,5531.86 6019.51,5534.76C6022.41,5537.65 6026.5,5539.1 6031.8,5539.1C6037.17,5539.1 6041.31,5537.65 6044.2,5534.76C6047.1,5531.86 6048.55,5527.56 6048.55,5521.85L6048.55,5487.79C6048.55,5486.37 6049.01,5485.18 6049.95,5484.19C6050.89,5483.22 6052.09,5482.73 6053.55,5482.73ZM6085.55,5496.47C6085.88,5495.66 6086.25,5494.86 6086.67,5494.07C6087.96,5491.63 6089.61,5489.44 6091.61,5487.48C6093.61,5485.52 6095.91,5483.97 6098.51,5482.82C6101.12,5481.68 6103.96,5481.1 6107.05,5481.1C6108.88,5481.1 6110.56,5481.54 6112.08,5482.41C6113.6,5483.29 6114.36,5484.52 6114.36,5486.1C6114.36,5487.85 6113.9,5489.15 6112.98,5490.01C6112.07,5490.86 6111.03,5491.29 6109.86,5491.29C6108.82,5491.29 6107.8,5491.05 6106.8,5490.57C6105.8,5490.09 6104.55,5489.85 6103.05,5489.85C6100.96,5489.85 6098.89,5490.43 6096.83,5491.57C6094.76,5492.72 6092.88,5494.32 6091.17,5496.38C6089.46,5498.44 6088.1,5500.8 6087.08,5503.44C6086.06,5506.09 6085.55,5508.89 6085.55,5511.85L6085.55,5542.29C6085.55,5543.71 6085.07,5544.9 6084.11,5545.88C6083.15,5546.86 6081.96,5547.35 6080.55,5547.35C6079.09,5547.35 6077.89,5546.86 6076.95,5545.88C6076.01,5544.9 6075.55,5543.71 6075.55,5542.29L6075.55,5487.79C6075.55,5486.37 6076.03,5485.18 6076.98,5484.19C6077.94,5483.22 6079.13,5482.73 6080.55,5482.73C6082,5482.73 6083.2,5483.22 6084.14,5484.19C6085.08,5485.18 6085.55,5486.37 6085.55,5487.79L6085.55,5496.47ZM5918.05,5507.98L5920.05,5507.98L5918.05,5509.79L5918.05,5507.98ZM6164.3,5507.98L6166.3,5507.98L6164.3,5509.79L6164.3,5507.98Z" style="fill:rgb(1,97,163);fill-rule:nonzero;"/>
                    </g>
                </g>
                <g id="icon" transform="matrix(3.04136,0,0,3.62345,-7117.96,-58.5002)">
                    <g id="background" transform="matrix(0.166875,0,0,0.189141,-5560.33,-1353.36)">
                        <path d="M36720.4,8392.35C36720.4,8187.55 36554.1,8021.28 36349.3,8021.28L34555.8,8021.28C34351,8021.28 34184.7,8187.55 34184.7,8392.35L34184.7,10185.6C34184.7,10390.4 34351,10556.7 34555.8,10556.7L36349.3,10556.7C36554.1,10556.7 36720.4,10390.4 36720.4,10185.6L36720.4,8392.35Z" style="fill:rgb(208,228,255);"/>
                    </g>
                    <g id="wolf" transform="matrix(0.166875,0,0,0.189141,-4750.58,-2222.46)">
                        <path d="M30720,13711.7L31071.1,13711.7L31071.1,13757.9C31119.8,13744.9 31166,13738.3 31206.6,13738.2L31289.9,13737.9L31291.4,14172.5C31306,14158.2 31324.3,14139.7 31353.4,14115.9C31368.5,14103.7 31369.9,14160 31369.9,14160C31400,14154.2 31421.6,14013.8 31436.8,13894.2C31440.6,13864.3 31469.7,13904.3 31469.7,13904.3C31479.2,13906.9 31471.2,13738.3 31461.6,13697.8C31430,13565.3 31412.9,13483.1 31471.6,13322.4C31486.3,13282.4 31590.1,13121.2 31566.8,13102.2C31554.3,13092 31522,13120.6 31501.4,13140.7C31520.1,13101.6 31529.8,12953.1 31448.2,12969.6C31424.5,12974.3 31344.4,13130.4 31323.3,13127.1C31252.2,13116.2 31201.7,13184.6 31201.7,13184.6C31192,13199 31059.3,13211.6 31042,13236.7C31034.3,13247.9 31090.6,13269.7 31090.6,13269.7C31066.7,13266.6 31004.6,13300.3 31008.3,13318.3C31011.9,13335.4 31080.1,13371.6 31080.1,13371.6C31047.4,13453.4 30995.9,13496.6 30924.4,13544.5C30916.5,13549.8 30990.1,13550.8 30990.1,13550.8C30990.1,13550.8 30911.9,13583.8 30863.2,13590.1C30854.5,13591.2 30939,13610.2 30939,13610.2C30890.6,13665.3 30798.6,13684.5 30720,13711.7ZM29733.6,13711.7L29733.6,13192.1C29719.2,13211.8 29705.8,13231.9 29693.6,13251.7C29689.9,13257.6 29682.2,13212.9 29682.2,13212.9C29636.9,13268.3 29610.4,13404.1 29607.7,13493.9C29607.5,13501.9 29578.1,13467 29578.1,13467C29580.6,13532.9 29605.9,13617.9 29631.2,13673.2C29635.9,13683.6 29643,13696.9 29652,13711.7L29733.6,13711.7ZM30293.7,13077.6L30293.7,13395.3C30358.5,13440.2 30419.9,13522.9 30456.3,13650.2C30494.8,13518.9 30493.3,13413.6 30467.9,13330.1C30463.1,13314.4 30488.1,13322.8 30488.1,13322.8C30474.2,13287.9 30415,13214 30388.3,13189.2C30367,13169.3 30347.3,13148.6 30324.9,13132.3C30314.9,13125.1 30364.4,13116.9 30364.4,13116.9C30343.5,13103.1 30319.4,13089.9 30293.7,13077.6Z" style="fill:rgb(67,71,78);"/>
                    </g>
                    <g id="tr" transform="matrix(0.166875,0,0,0.189141,-5560.33,-1353.36)">
                        <path d="M35446.9,9200.04L35446.9,10227.3L35840.3,10227.3L35840.3,9832.96C35840.3,9774.59 35880.9,9727.17 35923.7,9690.37C35969.1,9651.38 36020.8,9620.11 36060.7,9619.97L36059.3,9226.56C35996.6,9226.77 35918.8,9245.46 35840.3,9281.44L35840.3,9200.04L35446.9,9200.04ZM35062.9,8019.67L34669.5,8019.67L34669.5,9200.04L34399.3,9200.04L34399.3,9593.46L34669.5,9593.46C34669.5,9860.39 34671.3,10030.8 34750.1,10120C34858.8,10242.9 35085,10225.7 35393.7,10225.7L35393.7,9832.29C35036.1,9832.29 35062.9,9847.14 35062.9,9593.46L35390.7,9593.46L35390.7,9200.04L35062.9,9200.04L35062.9,8019.67Z" style="fill:rgb(253,252,255);"/>
                    </g>
                </g>
            </g>
        </g>
    </g>
</svg>
